<?xml version="1.0" standalone="no"?><!DOCTYPE svg PUBLIC "-//W3C//DTD SVG 1.1//EN" "http://www.w3.org/Graphics/SVG/1.1/DTD/svg11.dtd" ><svg version="1.1" xmlns="http://www.w3.org/2000/svg"><defs><font horiz-adv-x="0" id="font"><font-face ascent="768" bbox="-157 -251 1402 898" cap-height="684" descent="-232" font-family="National Trust Display Web" font-stretch="normal" font-style="normal" font-weight="400" units-per-em="1000" x-height="470" /><missing-glyph horiz-adv-x="202" /><glyph glyph-name=".null" horiz-adv-x="0" /><glyph d="M390 222H151L121 144Q113 127 105 102.5Q97 78 89 55Q80 29 72 0H0Q20 38 39 72.5Q58 107 75 147L295 665Q307 671 318 680.5Q329 690 337 698L568 86Q572 75 577.5 62.5Q583 50 589 38Q595 26 599.5 15.5Q604 5 607 0H471Q469 6 466 16.5Q463 27 459 39L451 61Q448 72 445 78ZM163 256H379L277 528Z" glyph-name="A" horiz-adv-x="616" unicode="A" /><glyph d="M383 684H789L778 631Q763 634 735.5 637.5Q708 641 672.5 643.5Q637 646 595.5 647.5Q554 649 511 649V379Q571 379 608 379.5Q645 380 667 381.5Q689 383 699.5 384.5Q710 386 718 388L710 332Q697 335 670.5 337.5Q644 340 613.5 342Q583 344 555 345Q527 346 511 346V41H621Q632 41 656.5 41.5Q681 42 707.5 44Q734 46 758 49.5Q782 53 792 59L785 0H385Q387 2 389 10.5Q391 19 393 30Q395 41 396 52Q397 63 397 71V238H182L121 128Q103 95 88 61.5Q73 28 63 0H-9Q19 42 41 75.5Q63 109 85 147ZM394 619 201 272H397V619Z" glyph-name="AE" horiz-adv-x="819" unicode="&#198;" /><glyph d="M390 222H151L121 144Q113 127 105 102.5Q97 78 89 55Q80 29 72 0H0Q20 38 39 72.5Q58 107 75 147L295 665Q307 671 318 680.5Q329 690 337 698L568 86Q572 75 577.5 62.5Q583 50 589 38Q595 26 599.5 15.5Q604 5 607 0H471Q469 6 466 16.5Q463 27 459 39L451 61Q448 72 445 78ZM163 256H379L277 528ZM226 749 360 878 400 809 240 728Z" glyph-name="Aacute" horiz-adv-x="616" unicode="&#193;" /><glyph d="M390 222H151L121 144Q113 127 105 102.5Q97 78 89 55Q80 29 72 0H0Q20 38 39 72.5Q58 107 75 147L295 665Q307 671 318 680.5Q329 690 337 698L568 86Q572 75 577.5 62.5Q583 50 589 38Q595 26 599.5 15.5Q604 5 607 0H471Q469 6 466 16.5Q463 27 459 39L451 61Q448 72 445 78ZM163 256H379L277 528ZM467 736 450 722 323 804H321L194 722L177 736L313 871H331Z" glyph-name="Acircumflex" horiz-adv-x="616" unicode="&#194;" /><glyph d="M390 222H151L121 144Q113 127 105 102.5Q97 78 89 55Q80 29 72 0H0Q20 38 39 72.5Q58 107 75 147L295 665Q307 671 318 680.5Q329 690 337 698L568 86Q572 75 577.5 62.5Q583 50 589 38Q595 26 599.5 15.5Q604 5 607 0H471Q469 6 466 16.5Q463 27 459 39L451 61Q448 72 445 78ZM163 256H379L277 528ZM156 786Q156 806 171 821Q186 836 206 836Q226 836 242 821Q258 806 258 786Q258 765 242 750Q226 735 206 735Q186 735 171 750Q156 765 156 786ZM366 786Q366 806 381.5 821Q397 836 417 836Q437 836 452.5 821Q468 806 468 786Q468 765 452.5 750Q437 735 417 735Q397 735 381.5 750Q366 765 366 786Z" glyph-name="Adieresis" horiz-adv-x="616" unicode="&#196;" /><glyph d="M390 222H151L121 144Q113 127 105 102.5Q97 78 89 55Q80 29 72 0H0Q20 38 39 72.5Q58 107 75 147L295 665Q307 671 318 680.5Q329 690 337 698L568 86Q572 75 577.5 62.5Q583 50 589 38Q595 26 599.5 15.5Q604 5 607 0H471Q469 6 466 16.5Q463 27 459 39L451 61Q448 72 445 78ZM163 256H379L277 528ZM386 728 226 809 269 878 404 749Z" glyph-name="Agrave" horiz-adv-x="616" unicode="&#192;" /><glyph d="M390 222H151L121 144Q113 127 105 102.5Q97 78 89 55Q80 29 72 0H0Q20 38 39 72.5Q58 107 75 147L295 665Q307 671 318 680.5Q329 690 337 698L568 86Q572 75 577.5 62.5Q583 50 589 38Q595 26 599.5 15.5Q604 5 607 0H471Q469 6 466 16.5Q463 27 459 39L451 61Q448 72 445 78ZM163 256H379L277 528ZM314 898Q348 898 373 875Q398 852 398 813Q398 774 372.5 751Q347 728 314 728Q280 728 255 751Q230 774 230 813Q230 852 255 875Q280 898 314 898ZM314 748Q342 748 357.5 766.5Q373 785 373 813Q373 841 357 859.5Q341 878 314 878Q286 878 270.5 859.5Q255 841 255 813Q255 785 270.5 766.5Q286 748 314 748Z" glyph-name="Aring" horiz-adv-x="616" unicode="&#197;" /><glyph d="M390 222H151L121 144Q113 127 105 102.5Q97 78 89 55Q80 29 72 0H0Q20 38 39 72.5Q58 107 75 147L295 665Q307 671 318 680.5Q329 690 337 698L568 86Q572 75 577.5 62.5Q583 50 589 38Q595 26 599.5 15.5Q604 5 607 0H471Q469 6 466 16.5Q463 27 459 39L451 61Q448 72 445 78ZM163 256H379L277 528ZM293 760Q271 771 253.5 778Q236 785 217 785Q202 785 194 769.5Q186 754 197 730L159 741Q165 787 192.5 808.5Q220 830 258 830Q279 830 300 822.5Q321 815 342 804L381 784Q398 776 412 776Q427 776 433.5 791.5Q440 807 429 830L466 820Q461 773 440.5 751.5Q420 730 382 730Q360 730 337 739.5Q314 749 293 760Z" glyph-name="Atilde" horiz-adv-x="616" unicode="&#195;" /><glyph d="M292 684Q341 684 381 675Q421 666 449.5 646.5Q478 627 493.5 594.5Q509 562 509 516Q509 455 473 415Q437 375 356 359V356Q447 344 498 303Q549 262 549 186Q549 146 533.5 112Q518 78 488 53Q458 28 413 14Q368 0 309 0H60Q63 5 67 25Q71 45 71 62V622Q71 629 70 638.5Q69 648 67 657.5Q65 667 63 674Q61 681 60 684ZM184 339V33H294Q338 33 365.5 44Q393 55 409 75.5Q425 96 430.5 124Q436 152 436 185Q436 260 405 299.5Q374 339 293 339ZM184 372H288Q320 372 341.5 382.5Q363 393 376 412Q389 431 394.5 457Q400 483 400 513Q400 541 393.5 566Q387 591 372.5 610Q358 629 334.5 639.5Q311 650 277 650Q255 650 228 649Q201 648 184 643Z" glyph-name="B" horiz-adv-x="600" unicode="B" /><glyph d="M401 696Q467 696 526.5 678.5Q586 661 633 627L577 547Q562 581 540 607Q518 633 489 647Q450 666 391 666Q340 666 294 640.5Q248 615 216 561Q194 523 181.5 470.5Q169 418 169 353Q169 265 187 204Q205 143 238 104.5Q271 66 316 48.5Q361 31 415 31Q474 31 530 57Q586 83 623 137L647 115Q635 98 613.5 76.5Q592 55 560.5 35.5Q529 16 487 2.5Q445 -11 392 -11Q313 -11 249.5 15Q186 41 141 87.5Q96 134 72 198Q48 262 48 339Q48 423 75 489.5Q102 556 149.5 602Q197 648 261.5 672Q326 696 401 696Z" glyph-name="C" horiz-adv-x="670" unicode="C" /><glyph d="M633 627 577 547Q562 581 540 607Q518 633 489 647Q470 657 445.5 661.5Q421 666 391 666Q340 666 294 640.5Q248 615 216 561Q194 523 181.5 470.5Q169 418 169 353Q169 265 187 204Q205 143 238 105Q271 66 316 48.5Q361 31 415 31Q474 31 530 57Q586 83 623 137L647 115Q635 98 614 77Q593 56 562 37Q531 17 490.5 3.5Q450 -10 399 -11L380 -54Q387 -47 400.5 -43.5Q414 -40 430 -40Q467 -40 486 -60.5Q505 -81 505 -107Q505 -136 476.5 -159Q448 -182 388 -182Q359 -182 329.5 -175Q300 -168 285 -160L303 -109Q316 -129 334 -146.5Q352 -164 386 -164Q414 -164 427.5 -148.5Q441 -133 441 -113Q441 -82 431 -71.5Q421 -61 401 -61Q391 -61 380.5 -67Q370 -73 365 -81L343 -74L371 -10Q297 -7 237 20.5Q177 48 135 94Q93 140 70.5 202.5Q48 265 48 339Q48 423 75 489.5Q102 556 150 602Q197 648 261.5 672Q326 696 401 696Q467 696 526.5 678.5Q586 661 633 627Z" glyph-name="Ccedilla" horiz-adv-x="670" unicode="&#199;" /><glyph d="M268 34Q329 33 377 46.5Q425 60 458.5 95Q492 130 510 190.5Q528 251 528 344Q528 419 516 476Q504 533 475.5 572Q447 611 399 630.5Q351 650 279 650H184V34ZM278 684Q463 684 555.5 597.5Q648 511 648 350Q648 268 621.5 203Q595 138 546 93Q497 48 429 24Q361 0 278 0H60Q61 2 63 10.5Q65 19 67 30Q69 41 70 52Q71 63 71 71V604Q71 611 70 623.5Q69 636 67 648.5Q65 661 63 671Q61 681 60 684Z" glyph-name="D" horiz-adv-x="689" unicode="D" /><glyph d="M185 379Q245 379 283.5 379.5Q322 380 345.5 381.5Q369 383 381 384.5Q393 386 401 388L394 332Q381 335 353 337.5Q325 340 292.5 342Q260 344 230.5 345Q201 346 185 346V32H305Q316 32 340.5 32.5Q365 33 391.5 35Q418 37 441.5 40.5Q465 44 476 50L468 0H60Q61 2 63 10.5Q65 19 67 30Q69 41 70 52Q71 63 71 71V613Q71 620 70 631Q69 642 67 653Q65 664 63 672.5Q61 681 60 684H473L462 631Q447 634 418 637.5Q389 641 351.5 644Q314 647 271 648.5Q228 650 185 650Z" glyph-name="E" horiz-adv-x="502" unicode="E" /><glyph d="M185 379Q245 379 283.5 379.5Q322 380 345.5 381.5Q369 383 381 384.5Q393 386 401 388L394 332Q381 335 353 337.5Q325 340 292.5 342Q260 344 230.5 345Q201 346 185 346V32H305Q316 32 340.5 32.5Q365 33 391.5 35Q418 37 441.5 40.5Q465 44 476 50L468 0H60Q61 2 63 10.5Q65 19 67 30Q69 41 70 52Q71 63 71 71V613Q71 620 70 631Q69 642 67 653Q65 664 63 672.5Q61 681 60 684H473L462 631Q447 634 418 637.5Q389 641 351.5 644Q314 647 271 648.5Q228 650 185 650ZM190 749 324 878 364 809 204 728Z" glyph-name="Eacute" horiz-adv-x="502" unicode="&#201;" /><glyph d="M185 379Q245 379 283.5 379.5Q322 380 345.5 381.5Q369 383 381 384.5Q393 386 401 388L394 332Q381 335 353 337.5Q325 340 292.5 342Q260 344 230.5 345Q201 346 185 346V32H305Q316 32 340.5 32.5Q365 33 391.5 35Q418 37 441.5 40.5Q465 44 476 50L468 0H60Q61 2 63 10.5Q65 19 67 30Q69 41 70 52Q71 63 71 71V613Q71 620 70 631Q69 642 67 653Q65 664 63 672.5Q61 681 60 684H473L462 631Q447 634 418 637.5Q389 641 351.5 644Q314 647 271 648.5Q228 650 185 650ZM417 736 400 722 273 804H271L144 722L127 736L263 871H281Z" glyph-name="Ecircumflex" horiz-adv-x="502" unicode="&#202;" /><glyph d="M117 786Q117 806 132 821Q147 836 167 836Q187 836 203 821Q219 806 219 786Q219 765 203 750Q187 735 167 735Q147 735 132 750Q117 765 117 786ZM327 786Q327 806 342.5 821Q358 836 378 836Q398 836 413.5 821Q429 806 429 786Q429 765 413.5 750Q398 735 378 735Q358 735 342.5 750Q327 765 327 786ZM185 379Q245 379 283.5 379.5Q322 380 345.5 381.5Q369 383 381 384.5Q393 386 401 388L394 332Q381 335 353 337.5Q325 340 292.5 342Q260 344 230.5 345Q201 346 185 346V32H305Q316 32 340.5 32.5Q365 33 391.5 35Q418 37 441.5 40.5Q465 44 476 50L468 0H60Q61 2 63 10.5Q65 19 67 30Q69 41 70 52Q71 63 71 71V613Q71 620 70 631Q69 642 67 653Q65 664 63 672.5Q61 681 60 684H473L462 631Q447 634 418 637.5Q389 641 351.5 644Q314 647 271 648.5Q228 650 185 650Z" glyph-name="Edieresis" horiz-adv-x="502" unicode="&#203;" /><glyph d="M185 379Q245 379 283.5 379.5Q322 380 345.5 381.5Q369 383 381 384.5Q393 386 401 388L394 332Q381 335 353 337.5Q325 340 292.5 342Q260 344 230.5 345Q201 346 185 346V32H305Q316 32 340.5 32.5Q365 33 391.5 35Q418 37 441.5 40.5Q465 44 476 50L468 0H60Q61 2 63 10.5Q65 19 67 30Q69 41 70 52Q71 63 71 71V613Q71 620 70 631Q69 642 67 653Q65 664 63 672.5Q61 681 60 684H473L462 631Q447 634 418 637.5Q389 641 351.5 644Q314 647 271 648.5Q228 650 185 650ZM329 728 169 809 212 878 347 749Z" glyph-name="Egrave" horiz-adv-x="502" unicode="&#200;" /><glyph d="M117 357V604Q117 611 116 623.5Q115 636 113 648.5Q111 661 109 671Q107 681 106 684H324Q509 684 601.5 597.5Q694 511 694 350Q694 268 667.5 203Q641 138 592 93Q543 48 475 24Q407 0 324 0H106Q107 2 109 10.5Q111 19 113 30Q115 41 116 52Q117 63 117 71V323H46V357ZM314 34Q375 33 423 46.5Q471 60 504.5 95Q538 130 556 190.5Q574 251 574 344Q574 419 562 476Q550 533 521.5 572Q493 611 445 630.5Q397 650 325 650H230V357H344V323H230V34Z" glyph-name="Eth" horiz-adv-x="735" unicode="&#208;" /><glyph d="M366 248H223Q229 198 241.5 157.5Q254 117 274.5 88.5Q295 60 324.5 44.5Q354 29 394 29Q430 29 473 48.5Q516 68 553 121L577 101Q565 84 548 64.5Q531 45 507 28.5Q483 12 450.5 0.5Q418 -11 375 -11Q312 -11 265 7.5Q218 26 185.5 60Q153 94 133.5 142Q114 190 107 248H32V283H103Q102 297 101.5 311Q101 325 101 339V364Q101 376 103 387H32V422H107Q116 487 140.5 538Q165 589 200.5 624Q236 659 281.5 677.5Q327 696 380 696Q413 696 436.5 693.5Q460 691 479.5 684.5Q499 678 517.5 666.5Q536 655 559 638L518 566Q506 587 495.5 605Q485 623 470 636.5Q455 650 432.5 658Q410 666 375 666Q298 666 262.5 604.5Q227 543 220 422H429L421 387H218V353Q218 334 218.5 317Q219 300 220 283H374Z" glyph-name="Euro" horiz-adv-x="586" unicode="&#8364;" /><glyph d="M179 80Q179 72 180 59.5Q181 47 183 34.5Q185 22 186.5 12Q188 2 190 0H55Q57 2 59 12Q61 22 62.5 34.5Q64 47 65 59.5Q66 72 66 80V604Q66 611 65 623.5Q64 636 62.5 648.5Q61 661 59 671Q57 681 55 684H468L459 641Q450 643 420.5 644.5Q391 646 350.5 647.5Q310 649 264.5 649.5Q219 650 179 650V370Q261 370 317 374Q373 378 387 380L380 326Q372 327 354 329Q336 331 309.5 332.5Q283 334 249.5 335Q216 336 179 336Z" glyph-name="F" horiz-adv-x="487" unicode="F" /><glyph d="M391 666Q341 666 298.5 646Q256 626 225 587Q194 548 176.5 489.5Q159 431 159 353Q159 280 172.5 219Q186 158 215 113.5Q244 69 289.5 44.5Q335 20 400 20Q447 20 483 34Q519 48 546 64V264Q526 264 500 263Q474 262 450.5 261Q427 260 410 259.5Q393 259 391 259V309H660Q658 301 656.5 290.5Q655 280 654 268Q653 256 652.5 245Q652 234 652 226V63Q601 34 531 11.5Q461 -11 383 -11Q304 -11 241 15Q178 41 133.5 87.5Q89 134 65 198Q41 262 41 339Q41 423 68.5 489.5Q96 556 144 602Q192 648 257 672Q322 696 397 696Q463 696 524.5 678.5Q586 661 633 627L577 547Q562 581 540 607Q518 633 489 647Q450 666 391 666Z" glyph-name="G" horiz-adv-x="698" unicode="G" /><glyph d="M509 332H183V80Q183 69 184.5 56.5Q186 44 188.5 32Q191 20 193.5 11Q196 2 198 0H55Q57 2 59.5 10.5Q62 19 64.5 31Q67 43 68.5 56Q70 69 70 80V604Q70 614 68.5 627Q67 640 64.5 652Q62 664 59.5 672.5Q57 681 55 684H198Q196 681 193.5 672.5Q191 664 188.5 652.5Q186 641 184.5 628Q183 615 183 604V366H509V604Q509 611 507.5 623.5Q506 636 503.5 648.5Q501 661 498.5 671Q496 681 494 684H635Q633 681 630.5 671.5Q628 662 626 649.5Q624 637 622.5 624.5Q621 612 621 604V80Q621 73 622.5 60.5Q624 48 626 35Q628 22 630.5 12Q633 2 635 0H494Q496 2 498.5 12Q501 22 503.5 34.5Q506 47 507.5 59.5Q509 72 509 80Z" glyph-name="H" horiz-adv-x="690" unicode="H" /><glyph d="M183 80Q183 69 184.5 56.5Q186 44 188.5 32Q191 20 193.5 11Q196 2 198 0H55Q57 2 59.5 10.5Q62 19 64.5 31Q67 43 68.5 56Q70 69 70 80V604Q70 614 68.5 627Q67 640 64.5 652Q62 664 59.5 672.5Q57 681 55 684H198Q196 681 193.5 672.5Q191 664 188.5 652.5Q186 641 184.5 628Q183 615 183 604Z" glyph-name="I" horiz-adv-x="253" unicode="I" /><glyph d="M181 80Q181 69 182.5 56.5Q184 44 186.5 32Q189 20 191.5 11Q194 2 196 0H53Q55 2 57.5 10.5Q60 19 62.5 31Q65 43 66.5 56Q68 69 68 80V604Q68 614 66.5 627Q65 640 62.5 652Q60 664 57.5 672.5Q55 681 53 684H196Q194 681 191.5 672.5Q189 664 186.5 652.5Q184 641 182.5 628Q181 615 181 604ZM38 749 172 878 212 809 52 728Z" glyph-name="Iacute" horiz-adv-x="253" unicode="&#205;" /><glyph d="M181 80Q181 69 182.5 56.5Q184 44 186.5 32Q189 20 191.5 11Q194 2 196 0H53Q55 2 57.5 10.5Q60 19 62.5 31Q65 43 66.5 56Q68 69 68 80V604Q68 614 66.5 627Q65 640 62.5 652Q60 664 57.5 672.5Q55 681 53 684H196Q194 681 191.5 672.5Q189 664 186.5 652.5Q184 641 182.5 628Q181 615 181 604ZM269 736 252 722 125 804H123L-4 722L-21 736L115 871H133Z" glyph-name="Icircumflex" horiz-adv-x="253" unicode="&#206;" /><glyph d="M-32 786Q-32 806 -17 821Q-2 836 18 836Q38 836 54 821Q70 806 70 786Q70 765 54 750Q38 735 18 735Q-2 735 -17 750Q-32 765 -32 786ZM178 786Q178 806 193.5 821Q209 836 229 836Q249 836 264.5 821Q280 806 280 786Q280 765 264.5 750Q249 735 229 735Q209 735 193.5 750Q178 765 178 786ZM181 80Q181 69 182.5 56.5Q184 44 186.5 32Q189 20 191.5 11Q194 2 196 0H53Q55 2 57.5 10.5Q60 19 62.5 31Q65 43 66.5 56Q68 69 68 80V604Q68 614 66.5 627Q65 640 62.5 652Q60 664 57.5 672.5Q55 681 53 684H196Q194 681 191.5 672.5Q189 664 186.5 652.5Q184 641 182.5 628Q181 615 181 604Z" glyph-name="Idieresis" horiz-adv-x="253" unicode="&#207;" /><glyph d="M181 80Q181 69 182.5 56.5Q184 44 186.5 32Q189 20 191.5 11Q194 2 196 0H53Q55 2 57.5 10.5Q60 19 62.5 31Q65 43 66.5 56Q68 69 68 80V604Q68 614 66.5 627Q65 640 62.5 652Q60 664 57.5 672.5Q55 681 53 684H196Q194 681 191.5 672.5Q189 664 186.5 652.5Q184 641 182.5 628Q181 615 181 604ZM191 728 31 809 74 878 209 749Z" glyph-name="Igrave" horiz-adv-x="253" unicode="&#204;" /><glyph d="M89 604Q89 614 87.5 627Q86 640 83.5 652Q81 664 78.5 672.5Q76 681 75 684H217Q215 681 212.5 672.5Q210 664 208 652.5Q206 641 204 628Q202 615 202 604V79Q202 7 180 -42.5Q158 -92 125 -122.5Q92 -153 53 -167Q14 -181 -21 -181Q-59 -181 -89.5 -174Q-120 -167 -138 -156L-116 -67Q-85 -103 -58.5 -123.5Q-32 -144 -3 -144Q13 -144 29.5 -141Q46 -138 59 -127Q72 -116 80.5 -95.5Q89 -75 89 -39Z" glyph-name="J" horiz-adv-x="265" unicode="J" /><glyph d="M180 80Q180 73 181 60.5Q182 48 184 35Q186 22 187.5 12Q189 2 191 0H57Q59 2 61 12Q63 22 64.5 34.5Q66 47 67 59.5Q68 72 68 80V604Q68 611 67 623.5Q66 636 64.5 648.5Q63 661 61 671Q59 681 57 684H191Q189 681 187.5 671.5Q186 662 184 649.5Q182 637 181 624.5Q180 612 180 604ZM400 560Q407 568 421 584.5Q435 601 449 619.5Q463 638 475 655.5Q487 673 491 684H576Q567 676 547 656L465 574Q446 555 438 546L293 392L568 69Q580 52 597.5 33.5Q615 15 629 4V0H480L193 342Z" glyph-name="K" horiz-adv-x="602" unicode="K" /><glyph d="M323 33Q334 33 358.5 33.5Q383 34 409.5 36Q436 38 459.5 41.5Q483 45 494 51L487 0H60Q63 5 67 25Q71 45 71 62V604Q71 611 70 623.5Q69 636 67 648.5Q65 661 63 671Q61 681 60 684H195Q193 681 191 671Q189 661 187.5 648.5Q186 636 185 623.5Q184 611 184 604V33Z" glyph-name="L" horiz-adv-x="518" unicode="L" /><glyph d="M71 311V604Q71 611 70 624Q69 637 67 649.5Q65 662 63 672Q61 682 60 684H195Q193 682 191 672Q189 662 187.5 649.5Q186 637 185 624Q184 611 184 604V351L355 414L361 381L184 316V42H323Q334 42 358.5 42.5Q383 43 409.5 45Q436 47 459.5 50.5Q483 54 494 60L487 0H60Q63 5 67 25Q71 45 71 62V276L16 256L5 287Z" glyph-name="Lslash" horiz-adv-x="547" unicode="&#321;" /><glyph d="M217 684 402 178 602 684H752Q750 681 748 671.5Q746 662 744.5 649.5Q743 637 742 624.5Q741 612 741 604V80Q741 73 742 60.5Q743 48 744.5 35Q746 22 748 12Q750 2 752 0H616Q618 2 620 12Q622 22 623.5 34.5Q625 47 626 59.5Q627 72 627 80V620L382 5H356L116 619L115 255Q115 250 115.5 230Q116 210 117 182Q118 154 119 122.5Q120 91 121 64.5Q122 38 123.5 19.5Q125 1 126 0H55Q56 1 57.5 19.5Q59 38 60 64.5Q61 91 62 122Q63 153 64 181Q65 209 65.5 229.5Q66 250 66 255V594Q66 601 65 615.5Q64 630 62.5 644Q61 658 59 669.5Q57 681 55 684Z" glyph-name="M" horiz-adv-x="807" unicode="M" /><glyph d="M575 512Q575 519 574 546Q573 573 571.5 602.5Q570 632 568 656.5Q566 681 564 684H635Q633 681 631 657Q629 633 627.5 603.5Q626 574 625 547Q624 520 624 512V0H586L125 566V209Q125 204 125.5 187Q126 170 127 147.5Q128 125 129 99.5Q130 74 131.5 52.5Q133 31 134 16Q135 1 136 0H64Q65 1 66.5 16Q68 31 69 52.5Q70 74 71 99Q72 124 73 147Q74 170 74.5 187Q75 204 75 209V567Q75 574 72.5 592Q70 610 67 629.5Q64 649 60.5 665Q57 681 55 684H193L575 196Z" glyph-name="N" horiz-adv-x="690" unicode="N" /><glyph d="M575 512Q575 519 574 546Q573 573 571.5 602.5Q570 632 568 656.5Q566 681 564 684H635Q633 681 631 657Q629 633 627.5 603.5Q626 574 625 547Q624 520 624 512V0H586L125 566V209Q125 204 125.5 187Q126 170 127 147.5Q128 125 129 99.5Q130 74 131.5 52.5Q133 31 134 16Q135 1 136 0H64Q65 1 66.5 16Q68 31 69 52.5Q70 74 71 99Q72 124 73 147Q74 170 74.5 187Q75 204 75 209V567Q75 574 72.5 592Q70 610 67 629.5Q64 649 60.5 665Q57 681 55 684H193L575 196ZM362 760Q340 771 322.5 778Q305 785 286 785Q271 785 263 769.5Q255 754 266 730L228 741Q234 787 261.5 808.5Q289 830 327 830Q348 830 369 822.5Q390 815 411 804L450 784Q467 776 481 776Q496 776 502.5 791.5Q509 807 498 830L535 820Q530 773 509.5 751.5Q489 730 451 730Q429 730 406 739.5Q383 749 362 760Z" glyph-name="Ntilde" horiz-adv-x="690" unicode="&#209;" /><glyph d="M379 20Q437 20 477.5 45Q518 70 543.5 113Q569 156 580.5 214Q592 272 592 339Q592 410 578.5 469.5Q565 529 538 572.5Q511 616 470 640.5Q429 665 374 665Q316 665 275 639.5Q234 614 208.5 570.5Q183 527 171.5 468.5Q160 410 160 344Q160 273 173.5 213.5Q187 154 214.5 111Q242 68 283 44Q324 20 379 20ZM374 696Q446 696 508 672.5Q570 649 615 604.5Q660 560 685.5 496Q711 432 711 352Q711 265 686 197Q661 129 616.5 82.5Q572 36 511 12Q450 -12 379 -12Q307 -12 245 11.5Q183 35 137.5 79.5Q92 124 66.5 187.5Q41 251 41 331Q41 419 66.5 487Q92 555 136.5 601.5Q181 648 242 672Q303 696 374 696Z" glyph-name="O" horiz-adv-x="753" unicode="O" /><glyph d="M553 379Q613 379 648.5 379.5Q684 380 704.5 381.5Q725 383 734 384.5Q743 386 751 388L743 332Q730 335 704.5 337.5Q679 340 650.5 342Q622 344 595.5 345Q569 346 553 346V32H654Q665 32 689.5 32.5Q714 33 740.5 35Q767 37 791 40.5Q815 44 825 50L818 0H388Q316 0 252.5 23Q189 46 142 89Q95 132 68 193Q41 254 41 331Q41 415 69 480.5Q97 546 145 591Q193 636 257 659.5Q321 683 393 683L822 684L811 631Q796 634 770 637.5Q744 641 710 643.5Q676 646 636 647.5Q596 649 553 649ZM393 649Q334 649 290.5 626Q247 603 218 562.5Q189 522 174.5 466Q160 410 160 344Q160 273 175 215.5Q190 158 219 117.5Q248 77 290.5 55Q333 33 388 33H439L437 649Z" glyph-name="OE" horiz-adv-x="852" unicode="&#338;" /><glyph d="M379 20Q437 20 477.5 45Q518 70 543.5 113Q569 156 580.5 214Q592 272 592 339Q592 410 578.5 469.5Q565 529 538 572.5Q511 616 470 640.5Q429 665 374 665Q316 665 275 639.5Q234 614 208.5 570.5Q183 527 171.5 468.5Q160 410 160 344Q160 273 173.5 213.5Q187 154 214.5 111Q242 68 283 44Q324 20 379 20ZM374 696Q446 696 508 672.5Q570 649 615 604.5Q660 560 685.5 496Q711 432 711 352Q711 265 686 197Q661 129 616.5 82.5Q572 36 511 12Q450 -12 379 -12Q307 -12 245 11.5Q183 35 137.5 79.5Q92 124 66.5 187.5Q41 251 41 331Q41 419 66.5 487Q92 555 136.5 601.5Q181 648 242 672Q303 696 374 696ZM290 749 424 878 464 809 304 728Z" glyph-name="Oacute" horiz-adv-x="753" unicode="&#211;" /><glyph d="M379 20Q437 20 477.5 45Q518 70 543.5 113Q569 156 580.5 214Q592 272 592 339Q592 410 578.5 469.5Q565 529 538 572.5Q511 616 470 640.5Q429 665 374 665Q316 665 275 639.5Q234 614 208.5 570.5Q183 527 171.5 468.5Q160 410 160 344Q160 273 173.5 213.5Q187 154 214.5 111Q242 68 283 44Q324 20 379 20ZM374 696Q446 696 508 672.5Q570 649 615 604.5Q660 560 685.5 496Q711 432 711 352Q711 265 686 197Q661 129 616.5 82.5Q572 36 511 12Q450 -12 379 -12Q307 -12 245 11.5Q183 35 137.5 79.5Q92 124 66.5 187.5Q41 251 41 331Q41 419 66.5 487Q92 555 136.5 601.5Q181 648 242 672Q303 696 374 696ZM521 736 504 722 377 804H375L248 722L231 736L367 871H385Z" glyph-name="Ocircumflex" horiz-adv-x="753" unicode="&#212;" /><glyph d="M379 20Q437 20 477.5 45Q518 70 543.5 113Q569 156 580.5 214Q592 272 592 339Q592 410 578.5 469.5Q565 529 538 572.5Q511 616 470 640.5Q429 665 374 665Q316 665 275 639.5Q234 614 208.5 570.5Q183 527 171.5 468.5Q160 410 160 344Q160 273 173.5 213.5Q187 154 214.5 111Q242 68 283 44Q324 20 379 20ZM374 696Q446 696 508 672.5Q570 649 615 604.5Q660 560 685.5 496Q711 432 711 352Q711 265 686 197Q661 129 616.5 82.5Q572 36 511 12Q450 -12 379 -12Q307 -12 245 11.5Q183 35 137.5 79.5Q92 124 66.5 187.5Q41 251 41 331Q41 419 66.5 487Q92 555 136.5 601.5Q181 648 242 672Q303 696 374 696ZM220 786Q220 806 235 821Q250 836 270 836Q290 836 306 821Q322 806 322 786Q322 765 306 750Q290 735 270 735Q250 735 235 750Q220 765 220 786ZM430 786Q430 806 445.5 821Q461 836 481 836Q501 836 516.5 821Q532 806 532 786Q532 765 516.5 750Q501 735 481 735Q461 735 445.5 750Q430 765 430 786Z" glyph-name="Odieresis" horiz-adv-x="753" unicode="&#214;" /><glyph d="M379 20Q437 20 477.5 45Q518 70 543.5 113Q569 156 580.5 214Q592 272 592 339Q592 410 578.5 469.5Q565 529 538 572.5Q511 616 470 640.5Q429 665 374 665Q316 665 275 639.5Q234 614 208.5 570.5Q183 527 171.5 468.5Q160 410 160 344Q160 273 173.5 213.5Q187 154 214.5 111Q242 68 283 44Q324 20 379 20ZM374 696Q446 696 508 672.5Q570 649 615 604.5Q660 560 685.5 496Q711 432 711 352Q711 265 686 197Q661 129 616.5 82.5Q572 36 511 12Q450 -12 379 -12Q307 -12 245 11.5Q183 35 137.5 79.5Q92 124 66.5 187.5Q41 251 41 331Q41 419 66.5 487Q92 555 136.5 601.5Q181 648 242 672Q303 696 374 696ZM450 728 290 809 333 878 468 749Z" glyph-name="Ograve" horiz-adv-x="753" unicode="&#210;" /><glyph d="M153 -66 207 30Q131 72 86 150Q41 228 41 331Q41 415 66.5 483Q92 551 136.5 598Q181 645 242 670.5Q303 696 374 696Q425 696 469.5 684Q514 672 552 649L596 728L628 709L583 627Q642 582 676.5 512Q711 442 711 352Q711 268 686 200.5Q661 133 616.5 86Q572 39 511 13.5Q450 -12 379 -12Q304 -12 241 14L186 -86ZM160 344Q160 259 179 192Q198 125 236 82L523 595Q496 628 459 646.5Q422 665 374 665Q316 665 275 639.5Q234 614 208.5 570.5Q183 527 171.5 468.5Q160 410 160 344ZM379 20Q437 20 477.5 45Q518 70 543.5 113Q569 156 580.5 214Q592 272 592 339Q592 473 546 560L264 56Q287 39 316 29.5Q345 20 379 20Z" glyph-name="Oslash" horiz-adv-x="739" unicode="&#216;" /><glyph d="M379 20Q437 20 477.5 45Q518 70 543.5 113Q569 156 580.5 214Q592 272 592 339Q592 410 578.5 469.5Q565 529 538 572.5Q511 616 470 640.5Q429 665 374 665Q316 665 275 639.5Q234 614 208.5 570.5Q183 527 171.5 468.5Q160 410 160 344Q160 273 173.5 213.5Q187 154 214.5 111Q242 68 283 44Q324 20 379 20ZM374 696Q446 696 508 672.5Q570 649 615 604.5Q660 560 685.5 496Q711 432 711 352Q711 265 686 197Q661 129 616.5 82.5Q572 36 511 12Q450 -12 379 -12Q307 -12 245 11.5Q183 35 137.5 79.5Q92 124 66.5 187.5Q41 251 41 331Q41 419 66.5 487Q92 555 136.5 601.5Q181 648 242 672Q303 696 374 696ZM366 760Q344 771 326.5 778Q309 785 290 785Q275 785 267 769.5Q259 754 270 730L232 741Q238 787 265.5 808.5Q293 830 331 830Q352 830 373 822.5Q394 815 415 804L454 784Q471 776 485 776Q500 776 506.5 791.5Q513 807 502 830L539 820Q534 773 513.5 751.5Q493 730 455 730Q433 730 410 739.5Q387 749 366 760Z" glyph-name="Otilde" horiz-adv-x="753" unicode="&#213;" /><glyph d="M186 303V98Q186 91 187 75.5Q188 60 189.5 44Q191 28 193 15Q195 3 196 0H62Q63 2 65 15Q67 28 69 43.5Q71 59 72 74.5Q73 90 73 98V604Q73 611 72 623.5Q71 636 69 648.5Q67 661 65 671Q63 681 62 684H278Q332 684 376 674Q420 664 451.5 642Q483 620 500 585.5Q517 551 517 502Q517 459 498.5 422.5Q480 386 446 359.5Q412 333 365.5 318Q319 303 264 303ZM185 645V527Q185 493 185.5 447.5Q186 402 186 338H247Q331 338 369.5 376Q408 414 408 502Q408 538 401 565.5Q394 593 376.5 611Q359 629 330 638.5Q301 648 258 648Q232 648 217 647Q202 646 185 645Z" glyph-name="P" horiz-adv-x="558" unicode="P" /><glyph d="M367 696Q436 696 495.5 672.5Q555 649 599 604.5Q643 560 668.5 496Q694 432 694 352Q694 243 658.5 169Q623 95 558 48Q565 27 574 7Q583 -13 593.5 -29.5Q604 -46 616 -56Q628 -66 642 -66Q662 -66 674.5 -53.5Q687 -41 694.5 -21.5Q702 -2 706 20Q710 42 713 62L769 55Q766 30 755 2Q744 -26 723.5 -50Q703 -74 673.5 -89.5Q644 -105 605 -105Q574 -105 551.5 -95.5Q529 -86 512.5 -71Q496 -56 484.5 -37Q473 -18 465 1Q445 -4 421 -8Q397 -12 371 -12Q302 -12 242 11.5Q182 35 138 79.5Q94 124 68.5 187.5Q43 251 43 331Q43 419 68 487Q93 555 137 601.5Q181 648 240 672Q299 696 367 696ZM161 344Q161 279 169 229.5Q177 180 193.5 143.5Q210 107 234.5 82Q259 57 292 39Q275 54 265 70.5Q255 87 255 118Q255 139 263 158.5Q271 178 286.5 192.5Q302 207 325.5 216Q349 225 379 225Q426 225 466.5 192.5Q507 160 534 103Q548 122 556 150.5Q564 179 568.5 212Q573 245 574 280.5Q575 316 575 350Q574 418 560.5 476Q547 534 521 576.5Q495 619 456.5 643Q418 667 367 667Q312 667 273 641.5Q234 616 209 572Q184 528 172.5 469Q161 410 161 344ZM381 22Q400 22 420 26Q440 30 455 35Q449 56 439.5 82.5Q430 109 417.5 133Q405 157 389 173Q373 189 353 189Q325 189 307 173.5Q289 158 289 123Q289 109 294.5 91.5Q300 74 311.5 59Q323 44 340.5 33Q358 22 381 22Z" glyph-name="Q" horiz-adv-x="742" unicode="Q" /><glyph d="M517 115Q537 84 557.5 53Q578 22 597 0H454L258 310H186L185 108Q185 100 186 83.5Q187 67 188.5 49Q190 31 192 16.5Q194 2 196 0H61Q62 2 64 16Q66 30 68 48Q70 66 71 83Q72 100 72 108V622Q72 629 71 638.5Q70 648 68 657.5Q66 667 64 674Q62 681 61 684H268Q394 684 458.5 640.5Q523 597 523 500Q523 473 513 446.5Q503 420 484.5 397Q466 374 438.5 356Q411 338 375 327ZM186 340H247Q325 340 364 377Q403 414 403 494Q403 539 395 568.5Q387 598 368.5 615.5Q350 633 320 640.5Q290 648 247 648Q222 648 211.5 647Q201 646 186 644Z" glyph-name="R" horiz-adv-x="604" unicode="R" /><glyph d="M262 -12Q225 -12 192 -5Q159 2 131 12.5Q103 23 80.5 36Q58 49 41 61L84 157Q123 89 165.5 54.5Q208 20 263 20Q307 20 336 30Q365 40 381.5 57Q398 74 404.5 96.5Q411 119 411 144Q411 172 403.5 192Q396 212 378 229Q360 246 330.5 262Q301 278 256 296Q214 314 179 332Q144 350 119.5 373Q95 396 81.5 427.5Q68 459 68 503Q68 545 82.5 580.5Q97 616 125 641.5Q153 667 193.5 681.5Q234 696 285 696Q341 696 392.5 682.5Q444 669 479 645L442 562Q419 609 378.5 637Q338 665 283 665Q257 665 234 658Q211 651 193.5 636.5Q176 622 166 600.5Q156 579 156 551Q156 528 163 509Q170 490 186 472.5Q202 455 229 439.5Q256 424 295 408Q350 386 390.5 365.5Q431 345 457 321Q483 297 496 267Q509 237 509 197Q509 153 494.5 115Q480 77 449.5 48.5Q419 20 372.5 4Q326 -12 262 -12Z" glyph-name="S" horiz-adv-x="557" unicode="S" /><glyph d="M262 -12Q225 -12 192 -5Q159 2 131 12.5Q103 23 80.5 36Q58 49 41 61L84 157Q123 89 165.5 54.5Q208 20 263 20Q307 20 336 30Q365 40 381.5 57Q398 74 404.5 96.5Q411 119 411 144Q411 172 403.5 192Q396 212 378 229Q360 246 330.5 262Q301 278 256 296Q214 314 179 332Q144 350 119.5 373Q95 396 81.5 427.5Q68 459 68 503Q68 545 82.5 580.5Q97 616 125 641.5Q153 667 193.5 681.5Q234 696 285 696Q341 696 392.5 682.5Q444 669 479 645L442 562Q419 609 378.5 637Q338 665 283 665Q257 665 234 658Q211 651 193.5 636.5Q176 622 166 600.5Q156 579 156 551Q156 528 163 509Q170 490 186 472.5Q202 455 229 439.5Q256 424 295 408Q350 386 390.5 365.5Q431 345 457 321Q483 297 496 267Q509 237 509 197Q509 153 494.5 115Q480 77 449.5 48.5Q419 20 372.5 4Q326 -12 262 -12ZM136 852 153 866 280 784H282L409 866L426 852L290 717H272Z" glyph-name="Scaron" horiz-adv-x="557" unicode="&#352;" /><glyph d="M498 684Q512 684 529.5 684.5Q547 685 562 686L598 688L588 633Q579 635 557 636.5Q535 638 509.5 639Q484 640 460.5 640.5Q437 641 426 641H353V62Q353 54 354 44.5Q355 35 357 26Q359 17 360.5 9.5Q362 2 364 0H229Q230 2 232 9.5Q234 17 236 26Q238 35 239 44.5Q240 54 240 62V641H153Q141 641 119 640.5Q97 640 73.5 639Q50 638 29.5 636.5Q9 635 0 633L10 688Q29 685 51.5 684.5Q74 684 103 684Z" glyph-name="T" horiz-adv-x="593" unicode="T" /><glyph d="M185 546H259Q313 546 357.5 536Q402 526 433.5 504Q465 482 482 447.5Q499 413 499 364Q499 321 480.5 284.5Q462 248 428 221.5Q394 195 347.5 180Q301 165 246 165H186V98Q186 75 187 48Q188 21 200 0H57Q59 4 65.5 31.5Q72 59 72 98V604Q72 614 70.5 627Q69 640 66.5 652Q64 664 61.5 672.5Q59 681 57 684H200Q198 681 195.5 672.5Q193 664 190.5 652.5Q188 641 186.5 628Q185 615 185 604ZM185 516V394Q185 358 185.5 311Q186 264 186 200H238Q321 200 355 238.5Q389 277 389 364Q389 400 382 428.5Q375 457 358 477.5Q341 498 312 508.5Q283 519 239 519Q227 519 220 518.5Q213 518 208 517.5Q203 517 198.5 516.5Q194 516 185 516Z" glyph-name="Thorn" horiz-adv-x="540" unicode="&#222;" /><glyph d="M553 548Q553 555 552 576.5Q551 598 549 621Q547 644 545 662.5Q543 681 542 684H613Q611 681 609 662.5Q607 644 605.5 621Q604 598 603 577Q602 556 602 548V231Q602 114 536.5 51Q471 -12 350 -12Q287 -12 234 1Q181 14 143 44Q105 74 84 122.5Q63 171 63 242V604Q63 611 62 623.5Q61 636 59.5 648.5Q58 661 56 671Q54 681 52 684H188Q186 681 184 671.5Q182 662 180.5 649.5Q179 637 178 624.5Q177 612 177 604V230Q177 127 220 79.5Q263 32 357 32Q452 32 502.5 79.5Q553 127 553 230Z" glyph-name="U" horiz-adv-x="665" unicode="U" /><glyph d="M553 548Q553 555 552 576.5Q551 598 549 621Q547 644 545 662.5Q543 681 542 684H613Q611 681 609 662.5Q607 644 605.5 621Q604 598 603 577Q602 556 602 548V231Q602 114 536.5 51Q471 -12 350 -12Q287 -12 234 1Q181 14 143 44Q105 74 84 122.5Q63 171 63 242V604Q63 611 62 623.5Q61 636 59.5 648.5Q58 661 56 671Q54 681 52 684H188Q186 681 184 671.5Q182 662 180.5 649.5Q179 637 178 624.5Q177 612 177 604V230Q177 127 220 79.5Q263 32 357 32Q452 32 502.5 79.5Q553 127 553 230ZM273 749 407 878 447 809 287 728Z" glyph-name="Uacute" horiz-adv-x="665" unicode="&#218;" /><glyph d="M553 548Q553 555 552 576.5Q551 598 549 621Q547 644 545 662.5Q543 681 542 684H613Q611 681 609 662.5Q607 644 605.5 621Q604 598 603 577Q602 556 602 548V231Q602 114 536.5 51Q471 -12 350 -12Q287 -12 234 1Q181 14 143 44Q105 74 84 122.5Q63 171 63 242V604Q63 611 62 623.5Q61 636 59.5 648.5Q58 661 56 671Q54 681 52 684H188Q186 681 184 671.5Q182 662 180.5 649.5Q179 637 178 624.5Q177 612 177 604V230Q177 127 220 79.5Q263 32 357 32Q452 32 502.5 79.5Q553 127 553 230ZM513 736 496 722 369 804H367L240 722L223 736L359 871H377Z" glyph-name="Ucircumflex" horiz-adv-x="665" unicode="&#219;" /><glyph d="M553 548Q553 555 552 576.5Q551 598 549 621Q547 644 545 662.5Q543 681 542 684H613Q611 681 609 662.5Q607 644 605.5 621Q604 598 603 577Q602 556 602 548V231Q602 114 536.5 51Q471 -12 350 -12Q287 -12 234 1Q181 14 143 44Q105 74 84 122.5Q63 171 63 242V604Q63 611 62 623.5Q61 636 59.5 648.5Q58 661 56 671Q54 681 52 684H188Q186 681 184 671.5Q182 662 180.5 649.5Q179 637 178 624.5Q177 612 177 604V230Q177 127 220 79.5Q263 32 357 32Q452 32 502.5 79.5Q553 127 553 230ZM199 786Q199 806 214 821Q229 836 249 836Q269 836 285 821Q301 806 301 786Q301 765 285 750Q269 735 249 735Q229 735 214 750Q199 765 199 786ZM409 786Q409 806 424.5 821Q440 836 460 836Q480 836 495.5 821Q511 806 511 786Q511 765 495.5 750Q480 735 460 735Q440 735 424.5 750Q409 765 409 786Z" glyph-name="Udieresis" horiz-adv-x="665" unicode="&#220;" /><glyph d="M424 728 264 809 307 878 442 749ZM553 548Q553 555 552 576.5Q551 598 549 621Q547 644 545 662.5Q543 681 542 684H613Q611 681 609 662.5Q607 644 605.5 621Q604 598 603 577Q602 556 602 548V231Q602 114 536.5 51Q471 -12 350 -12Q287 -12 234 1Q181 14 143 44Q105 74 84 122.5Q63 171 63 242V604Q63 611 62 623.5Q61 636 59.5 648.5Q58 661 56 671Q54 681 52 684H188Q186 681 184 671.5Q182 662 180.5 649.5Q179 637 178 624.5Q177 612 177 604V230Q177 127 220 79.5Q263 32 357 32Q452 32 502.5 79.5Q553 127 553 230Z" glyph-name="Ugrave" horiz-adv-x="665" unicode="&#217;" /><glyph d="M342 164 450 426Q457 444 468.5 474Q480 504 493.5 540Q507 576 520 613.5Q533 651 543 684H611Q596 654 577.5 612.5Q559 571 542 532Q525 493 512 462.5Q499 432 495 423L316 0H282L58 597Q54 608 48.5 621Q43 634 37 646Q31 658 26 668.5Q21 679 18 684H158Q159 678 162 667L170 645Q174 633 178 622Q182 611 184 605Z" glyph-name="V" horiz-adv-x="624" unicode="V" /><glyph d="M657 164 746 426Q753 444 763 474Q773 504 784.5 540Q796 576 807.5 613.5Q819 651 829 684H897Q882 654 865 612.5Q848 571 833 532Q818 493 806.5 462.5Q795 432 791 423L640 0H596L447 476L282 0H237L51 597Q47 608 42.5 621Q38 634 33.5 646Q29 658 25 668.5Q21 679 18 684H158Q159 678 161.5 667.5Q164 657 166.5 645Q169 633 171.5 622Q174 611 177 605L298 164Q323 235 341 287.5Q359 340 372 378Q385 416 393.5 442Q402 468 408 486Q414 504 418 517Q422 530 426 542L409 597Q401 619 392 646Q383 673 377 684H517Q518 678 520.5 667.5Q523 657 525.5 645Q528 633 530.5 622Q533 611 535 605Z" glyph-name="W" horiz-adv-x="906" unicode="W" /><glyph d="M657 164 746 426Q753 444 763 474Q773 504 784.5 540Q796 576 807.5 613.5Q819 651 829 684H897Q882 654 865 612.5Q848 571 833 532Q818 493 806.5 462.5Q795 432 791 423L640 0H596L447 476L282 0H237L51 597Q47 608 42.5 621Q38 634 33.5 646Q29 658 25 668.5Q21 679 18 684H158Q159 678 161.5 667.5Q164 657 166.5 645Q169 633 171.5 622Q174 611 177 605L298 164Q323 235 341 287.5Q359 340 372 378Q385 416 393.5 442Q402 468 408 486Q414 504 418 517Q422 530 426 542L409 597Q401 619 392 646Q383 673 377 684H517Q518 678 520.5 667.5Q523 657 525.5 645Q528 633 530.5 622Q533 611 535 605ZM361 749 495 878 535 809 375 728Z" glyph-name="Wacute" horiz-adv-x="906" unicode="&#7810;" /><glyph d="M592 736 575 722 448 804H446L319 722L302 736L438 871H456ZM657 164 746 426Q753 444 763 474Q773 504 784.5 540Q796 576 807.5 613.5Q819 651 829 684H897Q882 654 865 612.5Q848 571 833 532Q818 493 806.5 462.5Q795 432 791 423L640 0H596L447 476L282 0H237L51 597Q47 608 42.5 621Q38 634 33.5 646Q29 658 25 668.5Q21 679 18 684H158Q159 678 161.5 667.5Q164 657 166.5 645Q169 633 171.5 622Q174 611 177 605L298 164Q323 235 341 287.5Q359 340 372 378Q385 416 393.5 442Q402 468 408 486Q414 504 418 517Q422 530 426 542L409 597Q401 619 392 646Q383 673 377 684H517Q518 678 520.5 667.5Q523 657 525.5 645Q528 633 530.5 622Q533 611 535 605Z" glyph-name="Wcircumflex" horiz-adv-x="906" unicode="&#372;" /><glyph d="M657 164 746 426Q753 444 763 474Q773 504 784.5 540Q796 576 807.5 613.5Q819 651 829 684H897Q882 654 865 612.5Q848 571 833 532Q818 493 806.5 462.5Q795 432 791 423L640 0H596L447 476L282 0H237L51 597Q47 608 42.5 621Q38 634 33.5 646Q29 658 25 668.5Q21 679 18 684H158Q159 678 161.5 667.5Q164 657 166.5 645Q169 633 171.5 622Q174 611 177 605L298 164Q323 235 341 287.5Q359 340 372 378Q385 416 393.5 442Q402 468 408 486Q414 504 418 517Q422 530 426 542L409 597Q401 619 392 646Q383 673 377 684H517Q518 678 520.5 667.5Q523 657 525.5 645Q528 633 530.5 622Q533 611 535 605ZM291 786Q291 806 306 821Q321 836 341 836Q361 836 377 821Q393 806 393 786Q393 765 377 750Q361 735 341 735Q321 735 306 750Q291 765 291 786ZM501 786Q501 806 516.5 821Q532 836 552 836Q572 836 587.5 821Q603 806 603 786Q603 765 587.5 750Q572 735 552 735Q532 735 516.5 750Q501 765 501 786Z" glyph-name="Wdieresis" horiz-adv-x="906" unicode="&#7812;" /><glyph d="M657 164 746 426Q753 444 763 474Q773 504 784.5 540Q796 576 807.5 613.5Q819 651 829 684H897Q882 654 865 612.5Q848 571 833 532Q818 493 806.5 462.5Q795 432 791 423L640 0H596L447 476L282 0H237L51 597Q47 608 42.5 621Q38 634 33.5 646Q29 658 25 668.5Q21 679 18 684H158Q159 678 161.5 667.5Q164 657 166.5 645Q169 633 171.5 622Q174 611 177 605L298 164Q323 235 341 287.5Q359 340 372 378Q385 416 393.5 442Q402 468 408 486Q414 504 418 517Q422 530 426 542L409 597Q401 619 392 646Q383 673 377 684H517Q518 678 520.5 667.5Q523 657 525.5 645Q528 633 530.5 622Q533 611 535 605ZM522 728 362 809 405 878 540 749Z" glyph-name="Wgrave" horiz-adv-x="906" unicode="&#7808;" /><glyph d="M278 294 102 0H29Q46 18 60.5 36.5Q75 55 89 77L256 326L71 605Q57 628 42 647Q27 666 11 684H156L334 405L487 684H559Q543 666 528.5 647Q514 628 500 605L358 375L550 77Q564 55 579 36.5Q594 18 610 0H469Z" glyph-name="X" horiz-adv-x="626" unicode="X" /><glyph d="M338 62Q338 54 339 44.5Q340 35 341.5 26Q343 17 345 9.5Q347 2 349 0H217Q221 5 224.5 25Q228 45 228 62L229 293L56 618Q44 638 33.5 654Q23 670 9 684H144L323 349L498 684H559Q545 668 535 655Q525 642 511 618L339 293Z" glyph-name="Y" horiz-adv-x="569" unicode="Y" /><glyph d="M338 62Q338 54 339 44.5Q340 35 341.5 26Q343 17 345 9.5Q347 2 349 0H217Q221 5 224.5 25Q228 45 228 62L229 293L56 618Q44 638 33.5 654Q23 670 9 684H144L323 349L498 684H559Q545 668 535 655Q525 642 511 618L339 293ZM236 749 370 878 410 809 250 728Z" glyph-name="Yacute" horiz-adv-x="569" unicode="&#221;" /><glyph d="M338 62Q338 54 339 44.5Q340 35 341.5 26Q343 17 345 9.5Q347 2 349 0H217Q221 5 224.5 25Q228 45 228 62L229 293L56 618Q44 638 33.5 654Q23 670 9 684H144L323 349L498 684H559Q545 668 535 655Q525 642 511 618L339 293ZM463 736 446 722 319 804H317L190 722L173 736L309 871H327Z" glyph-name="Ycircumflex" horiz-adv-x="569" unicode="&#374;" /><glyph d="M169 786Q169 806 184 821Q199 836 219 836Q239 836 255 821Q271 806 271 786Q271 765 255 750Q239 735 219 735Q199 735 184 750Q169 765 169 786ZM379 786Q379 806 394.5 821Q410 836 430 836Q450 836 465.5 821Q481 806 481 786Q481 765 465.5 750Q450 735 430 735Q410 735 394.5 750Q379 765 379 786ZM338 62Q338 54 339 44.5Q340 35 341.5 26Q343 17 345 9.5Q347 2 349 0H217Q221 5 224.5 25Q228 45 228 62L229 293L56 618Q44 638 33.5 654Q23 670 9 684H144L323 349L498 684H559Q545 668 535 655Q525 642 511 618L339 293Z" glyph-name="Ydieresis" horiz-adv-x="569" unicode="&#376;" /><glyph d="M338 62Q338 54 339 44.5Q340 35 341.5 26Q343 17 345 9.5Q347 2 349 0H217Q221 5 224.5 25Q228 45 228 62L229 293L56 618Q44 638 33.5 654Q23 670 9 684H144L323 349L498 684H559Q545 668 535 655Q525 642 511 618L339 293ZM369 728 209 809 252 878 387 749Z" glyph-name="Ygrave" horiz-adv-x="569" unicode="&#7922;" /><glyph d="M183 645Q140 645 105.5 641Q71 637 45 627L52 685Q95 684 135 684H543L549 670L170 39H360Q408 39 440.5 41.5Q473 44 494 47.5Q515 51 527 55Q539 59 546 63L540 -2Q476 -2 419 -1H369Q344 -1 320.5 -0.5Q297 0 277 0H31L29 17L410 645Z" glyph-name="Z" horiz-adv-x="577" unicode="Z" /><glyph d="M183 645Q140 645 105.5 641Q71 637 45 627L52 685Q95 684 135 684H543L549 670L170 39H360Q408 39 440.5 41.5Q473 44 494 47.5Q515 51 527 55Q539 59 546 63L540 -2Q476 -2 419 -1H369Q344 -1 320.5 -0.5Q297 0 277 0H31L29 17L410 645ZM150 852 167 866 294 784H296L423 866L440 852L304 717H286Z" glyph-name="Zcaron" horiz-adv-x="595" unicode="&#381;" /><glyph d="M40 424Q78 450 123.5 466Q169 482 224 482Q272 482 305 473Q338 464 358.5 447Q379 430 387.5 406Q396 382 396 351Q396 317 395.5 286Q395 255 394 223.5Q393 192 392.5 158Q392 124 392 84Q392 56 404 47.5Q416 39 434 39Q458 39 474 55L477 52Q474 42 465.5 31Q457 20 444.5 10.5Q432 1 415.5 -5Q399 -11 381 -11Q355 -11 338 -4.5Q321 2 311 12.5Q301 23 296.5 36Q292 49 289 62H285Q276 49 264 36Q252 23 236 12.5Q220 2 199.5 -4.5Q179 -11 155 -11Q132 -11 111 -4.5Q90 2 73.5 15.5Q57 29 47 49.5Q37 70 37 99Q37 129 45.5 148.5Q54 168 67.5 180.5Q81 193 97.5 200Q114 207 130 213L217 242Q238 249 256.5 254.5Q275 260 287 264V382Q287 427 270.5 443Q254 459 210 459Q186 459 165.5 449Q145 439 125 420Q112 407 99.5 390Q87 373 76 355ZM287 246Q277 242 262.5 237Q248 232 232.5 226Q217 220 202 214.5Q187 209 175 204Q154 196 143 174.5Q132 153 132 121Q132 84 149 62Q166 40 201 40Q227 40 250 53.5Q273 67 283 84Z" glyph-name="a" horiz-adv-x="470" unicode="a" /><glyph d="M40 424Q78 450 123.5 466Q169 482 224 482Q272 482 305 473Q338 464 358.5 447Q379 430 387.5 406Q396 382 396 351Q396 317 395.5 286Q395 255 394 223.5Q393 192 392.5 158Q392 124 392 84Q392 56 404 47.5Q416 39 434 39Q458 39 474 55L477 52Q474 42 465.5 31Q457 20 444.5 10.5Q432 1 415.5 -5Q399 -11 381 -11Q355 -11 338 -4.5Q321 2 311 12.5Q301 23 296.5 36Q292 49 289 62H285Q276 49 264 36Q252 23 236 12.5Q220 2 199.5 -4.5Q179 -11 155 -11Q132 -11 111 -4.5Q90 2 73.5 15.5Q57 29 47 49.5Q37 70 37 99Q37 129 45.5 148.5Q54 168 67.5 180.5Q81 193 97.5 200Q114 207 130 213L217 242Q238 249 256.5 254.5Q275 260 287 264V382Q287 427 270.5 443Q254 459 210 459Q186 459 165.5 449Q145 439 125 420Q112 407 99.5 390Q87 373 76 355ZM287 246Q277 242 262.5 237Q248 232 232.5 226Q217 220 202 214.5Q187 209 175 204Q154 196 143 174.5Q132 153 132 121Q132 84 149 62Q166 40 201 40Q227 40 250 53.5Q273 67 283 84ZM186 534 233 703 300 683 207 524Z" glyph-name="aacute" horiz-adv-x="470" unicode="&#225;" /><glyph d="M40 424Q78 450 123.5 466Q169 482 224 482Q272 482 305 473Q338 464 358.5 447Q379 430 387.5 406Q396 382 396 351Q396 317 395.5 286Q395 255 394 223.5Q393 192 392.5 158Q392 124 392 84Q392 56 404 47.5Q416 39 434 39Q458 39 474 55L477 52Q474 42 465.5 31Q457 20 444.5 10.5Q432 1 415.5 -5Q399 -11 381 -11Q355 -11 338 -4.5Q321 2 311 12.5Q301 23 296.5 36Q292 49 289 62H285Q276 49 264 36Q252 23 236 12.5Q220 2 199.5 -4.5Q179 -11 155 -11Q132 -11 111 -4.5Q90 2 73.5 15.5Q57 29 47 49.5Q37 70 37 99Q37 129 45.5 148.5Q54 168 67.5 180.5Q81 193 97.5 200Q114 207 130 213L217 242Q238 249 256.5 254.5Q275 260 287 264V382Q287 427 270.5 443Q254 459 210 459Q186 459 165.5 449Q145 439 125 420Q112 407 99.5 390Q87 373 76 355ZM287 246Q277 242 262.5 237Q248 232 232.5 226Q217 220 202 214.5Q187 209 175 204Q154 196 143 174.5Q132 153 132 121Q132 84 149 62Q166 40 201 40Q227 40 250 53.5Q273 67 283 84ZM346 552 328 538 220 638H218L110 538L92 552L210 706H228Z" glyph-name="acircumflex" horiz-adv-x="470" unicode="&#226;" /><glyph d="M142 534 189 703 256 683 163 524Z" glyph-name="acute" horiz-adv-x="368" unicode="&#180;" /><glyph d="M152 537 199 704H273L178 537Z" glyph-name="acute.pl" horiz-adv-x="368" /><glyph d="M92 749 226 878 266 809 106 728Z" glyph-name="acute.uc" horiz-adv-x="368" /><glyph d="M153 730 193 891H268L178 730Z" glyph-name="acute.ucpl" horiz-adv-x="368" /><glyph d="M40 424Q78 450 123.5 466Q169 482 224 482Q272 482 305 473Q338 464 358.5 447Q379 430 387.5 406Q396 382 396 351Q396 317 395.5 286Q395 255 394 223.5Q393 192 392.5 158Q392 124 392 84Q392 56 404 47.5Q416 39 434 39Q458 39 474 55L477 52Q474 42 465.5 31Q457 20 444.5 10.5Q432 1 415.5 -5Q399 -11 381 -11Q355 -11 338 -4.5Q321 2 311 12.5Q301 23 296.5 36Q292 49 289 62H285Q276 49 264 36Q252 23 236 12.5Q220 2 199.5 -4.5Q179 -11 155 -11Q132 -11 111 -4.5Q90 2 73.5 15.5Q57 29 47 49.5Q37 70 37 99Q37 129 45.5 148.5Q54 168 67.5 180.5Q81 193 97.5 200Q114 207 130 213L217 242Q238 249 256.5 254.5Q275 260 287 264V382Q287 427 270.5 443Q254 459 210 459Q186 459 165.5 449Q145 439 125 420Q112 407 99.5 390Q87 373 76 355ZM287 246Q277 242 262.5 237Q248 232 232.5 226Q217 220 202 214.5Q187 209 175 204Q154 196 143 174.5Q132 153 132 121Q132 84 149 62Q166 40 201 40Q227 40 250 53.5Q273 67 283 84ZM77 612Q77 632 92 647.5Q107 663 127 663Q147 663 163 647.5Q179 632 179 612Q179 591 163 576Q147 561 127 561Q107 561 92 576Q77 591 77 612ZM269 612Q269 632 284.5 647.5Q300 663 320 663Q340 663 355.5 647.5Q371 632 371 612Q371 591 355.5 576Q340 561 320 561Q300 561 284.5 576Q269 591 269 612Z" glyph-name="adieresis" horiz-adv-x="470" unicode="&#228;" /><glyph d="M395 259V215Q395 169 410 139.5Q425 110 447.5 93Q470 76 496.5 69.5Q523 63 546 63Q576 63 600 68.5Q624 74 642 82.5Q660 91 672.5 101.5Q685 112 694 122L700 117Q694 100 678 78Q662 56 637 36Q612 16 577.5 2.5Q543 -11 499 -11Q448 -11 399 9.5Q350 30 319 82Q308 66 292.5 49.5Q277 33 256.5 19.5Q236 6 211 -2.5Q186 -11 157 -11Q134 -11 111.5 -4Q89 3 70 17.5Q51 32 39.5 53.5Q28 75 28 104Q28 134 36 155.5Q44 177 56.5 191.5Q69 206 85 214Q101 222 117 226L286 259L287 374Q287 419 270.5 440Q254 461 210 461Q170 461 136 431Q102 401 76 357L40 426Q78 452 123.5 468Q169 484 224 484Q287 484 329.5 461Q372 438 385 409H388Q402 439 437 461.5Q472 484 518 484Q563 484 594.5 472Q626 460 646.5 438Q667 416 676 384.5Q685 353 685 315ZM309 101Q286 152 286 227V239L180 219Q165 216 154 205.5Q143 195 136 180.5Q129 166 125.5 149Q122 132 122 117Q122 69 140 49Q158 29 193 29Q213 29 231 35.5Q249 42 264 52Q279 62 290.5 75Q302 88 309 101ZM395 281 581 316Q581 346 578 372Q575 398 566 417.5Q557 437 541 448.5Q525 460 498 460Q474 460 455 450Q436 440 422.5 423.5Q409 407 402 385Q395 363 395 339Z" glyph-name="ae" horiz-adv-x="723" unicode="&#230;" /><glyph d="M40 424Q78 450 123.5 466Q169 482 224 482Q272 482 305 473Q338 464 358.5 447Q379 430 387.5 406Q396 382 396 351Q396 317 395.5 286Q395 255 394 223.5Q393 192 392.5 158Q392 124 392 84Q392 56 404 47.5Q416 39 434 39Q458 39 474 55L477 52Q474 42 465.5 31Q457 20 444.5 10.5Q432 1 415.5 -5Q399 -11 381 -11Q355 -11 338 -4.5Q321 2 311 12.5Q301 23 296.5 36Q292 49 289 62H285Q276 49 264 36Q252 23 236 12.5Q220 2 199.5 -4.5Q179 -11 155 -11Q132 -11 111 -4.5Q90 2 73.5 15.5Q57 29 47 49.5Q37 70 37 99Q37 129 45.5 148.5Q54 168 67.5 180.5Q81 193 97.5 200Q114 207 130 213L217 242Q238 249 256.5 254.5Q275 260 287 264V382Q287 427 270.5 443Q254 459 210 459Q186 459 165.5 449Q145 439 125 420Q112 407 99.5 390Q87 373 76 355ZM287 246Q277 242 262.5 237Q248 232 232.5 226Q217 220 202 214.5Q187 209 175 204Q154 196 143 174.5Q132 153 132 121Q132 84 149 62Q166 40 201 40Q227 40 250 53.5Q273 67 283 84ZM246 524 153 683 220 703 267 534Z" glyph-name="agrave" horiz-adv-x="470" unicode="&#224;" /><glyph d="M312 696Q342 696 369 689Q396 682 416.5 667Q437 652 449 629.5Q461 607 461 576Q461 545 438 517.5Q415 490 385 467Q368 455 350.5 444Q333 433 314 422Q359 365 404.5 308.5Q450 252 498 195Q509 212 517 230L533 266Q549 306 553.5 340Q558 374 557 403H642Q632 384 623.5 367Q615 350 606.5 332.5Q598 315 589 295.5Q580 276 568 252Q557 231 546 209.5Q535 188 522 167Q557 125 594 83.5Q631 42 671 0H533Q515 22 496.5 43Q478 64 458 86Q418 44 365 18Q312 -8 240 -10Q191 -11 150 2Q109 15 80 40.5Q51 66 34.5 102.5Q18 139 18 186Q18 225 34.5 256Q51 287 77.5 311.5Q104 336 137 355.5Q170 375 203 393L197 402Q172 439 160 470Q148 501 148 535Q148 572 160.5 601.5Q173 631 195.5 652Q218 673 247.5 684.5Q277 696 312 696ZM437 111Q384 172 329.5 236.5Q275 301 221 371Q203 360 189 349Q175 338 164 326Q145 303 138 273.5Q131 244 131 199Q131 158 143 126.5Q155 95 175.5 73Q196 51 222 40Q248 29 277 29Q322 29 362.5 52Q403 75 437 111ZM226 581Q226 550 243 519Q260 488 295 444Q318 458 335 468.5Q352 479 363 491Q377 507 383.5 528Q390 549 390 572Q390 622 369.5 645Q349 668 308 668Q293 668 278.5 663Q264 658 252 647.5Q240 637 233 620.5Q226 604 226 581Z" glyph-name="ampersand" horiz-adv-x="661" unicode="&amp;" /><glyph d="M40 424Q78 450 123.5 466Q169 482 224 482Q272 482 305 473Q338 464 358.5 447Q379 430 387.5 406Q396 382 396 351Q396 317 395.5 286Q395 255 394 223.5Q393 192 392.5 158Q392 124 392 84Q392 56 404 47.5Q416 39 434 39Q458 39 474 55L477 52Q474 42 465.5 31Q457 20 444.5 10.5Q432 1 415.5 -5Q399 -11 381 -11Q355 -11 338 -4.5Q321 2 311 12.5Q301 23 296.5 36Q292 49 289 62H285Q276 49 264 36Q252 23 236 12.5Q220 2 199.5 -4.5Q179 -11 155 -11Q132 -11 111 -4.5Q90 2 73.5 15.5Q57 29 47 49.5Q37 70 37 99Q37 129 45.5 148.5Q54 168 67.5 180.5Q81 193 97.5 200Q114 207 130 213L217 242Q238 249 256.5 254.5Q275 260 287 264V382Q287 427 270.5 443Q254 459 210 459Q186 459 165.5 449Q145 439 125 420Q112 407 99.5 390Q87 373 76 355ZM287 246Q277 242 262.5 237Q248 232 232.5 226Q217 220 202 214.5Q187 209 175 204Q154 196 143 174.5Q132 153 132 121Q132 84 149 62Q166 40 201 40Q227 40 250 53.5Q273 67 283 84ZM216 684Q193 684 180.5 668.5Q168 653 168 633Q168 612 180.5 597Q193 582 216 582Q239 582 251 597Q263 612 263 633Q263 653 251 668.5Q239 684 216 684ZM216 708Q246 708 268.5 688.5Q291 669 291 633Q291 598 268.5 578Q246 558 216 558Q186 558 163.5 578Q141 598 141 633Q141 669 163.5 688.5Q186 708 216 708Z" glyph-name="aring" horiz-adv-x="470" unicode="&#229;" /><glyph d="M272 665 98 379 63 397 260 715H286L483 397L448 379L274 665Z" glyph-name="asciicircum" horiz-adv-x="540" unicode="^" /><glyph d="M246 291Q269 279 283 271.5Q297 264 307 259.5Q317 255 325 253Q333 251 344 251Q361 251 373 262.5Q385 274 385 299Q385 307 382.5 318Q380 329 372 338L423 323Q413 263 379.5 229Q346 195 300 195Q274 195 255.5 201.5Q237 208 214 222Q191 233 175.5 241.5Q160 250 148 255.5Q136 261 126.5 264Q117 267 107 267Q90 267 78 255.5Q66 244 66 219Q66 211 68.5 200Q71 189 79 180L28 195Q37 255 71 289Q105 323 151 323Q177 323 200 313.5Q223 304 246 291Z" glyph-name="asciitilde" horiz-adv-x="451" unicode="~" /><glyph d="M222 593Q218 578 211 552.5Q204 527 200 511L230 541Q239 550 247.5 558Q256 566 262 571Q286 582 306 588.5Q326 595 346 601L357 583Q338 566 323.5 553.5Q309 541 287 524Q280 521 269 518Q258 515 246.5 512Q235 509 224 506Q213 503 205 501Q213 499 224 496.5Q235 494 247 491Q259 488 269.5 484.5Q280 481 288 478Q310 462 326 448Q342 434 356 420L347 402Q324 410 305.5 416Q287 422 261 432Q249 442 230.5 461Q212 480 200 491Q204 476 211 450.5Q218 425 222 409Q218 382 214 361Q210 340 204 320H185Q180 344 176 363Q172 382 167 409Q170 425 177 450.5Q184 476 189 491Q177 480 158.5 461Q140 442 127 431Q102 422 84.5 416Q67 410 43 402L32 420Q47 434 63 448Q79 462 102 478Q109 481 120 484.5Q131 488 142.5 491Q154 494 164.5 496.5Q175 499 183 501Q168 506 142 512Q116 518 101 524Q80 541 65.5 553.5Q51 566 33 583L42 601Q62 595 82.5 588Q103 581 128 570Q134 565 142 557.5Q150 550 158 541L189 511Q187 519 183.5 530Q180 541 177 552.5Q174 564 171 574.5Q168 585 167 593Q172 621 176 639.5Q180 658 185 683H204Q210 663 214 642Q218 621 222 593Z" glyph-name="asterisk" horiz-adv-x="389" unicode="*" /><glyph d="M558 71Q609 71 648.5 90.5Q688 110 715.5 144.5Q743 179 757 225Q771 271 771 325Q771 386 753.5 436Q736 486 699 521.5Q662 557 603.5 576Q545 595 464 595Q379 595 307.5 569Q236 543 183.5 493Q131 443 101.5 369.5Q72 296 72 201Q72 119 102 61Q132 3 180 -34Q228 -71 288 -88Q348 -105 408 -105Q464 -105 509 -99Q554 -93 591.5 -80Q629 -67 661.5 -48Q694 -29 727 -3L742 -26Q713 -49 680.5 -68Q648 -87 607.5 -101Q567 -115 518 -123Q469 -131 408 -131Q339 -131 273 -111.5Q207 -92 155.5 -51.5Q104 -11 72.5 52Q41 115 41 201Q41 306 74.5 385Q108 464 166 516.5Q224 569 300.5 595Q377 621 464 621Q549 621 612.5 599.5Q676 578 718.5 539.5Q761 501 782.5 446.5Q804 392 804 326Q804 266 786.5 214.5Q769 163 735.5 125Q702 87 654 65Q606 43 546 43Q519 43 487 45.5Q455 48 436 53Q440 69 443 88Q446 107 448 121H443Q435 109 421 95Q407 81 389.5 69.5Q372 58 352 50.5Q332 43 311 43Q289 43 269 50Q249 57 233.5 73Q218 89 208.5 116Q199 143 198 184Q195 243 215 298Q235 353 272 395Q309 437 359.5 462.5Q410 488 468 488Q484 488 497 487.5Q510 487 524 485Q538 483 555.5 479.5Q573 476 599 470L561 293Q551 248 543 208Q535 173 528.5 136Q522 99 517 76Q528 72 538.5 71.5Q549 71 558 71ZM511 451Q500 457 487 460Q474 463 466 463Q424 463 390 441.5Q356 420 332 382.5Q308 345 295 293.5Q282 242 282 183Q282 162 284.5 143Q287 124 293 109.5Q299 95 309 87Q319 79 335 79Q352 79 369.5 88Q387 97 403 112Q419 127 432 145.5Q445 164 454 183Z" glyph-name="at" horiz-adv-x="808" unicode="@" /><glyph d="M40 424Q78 450 123.5 466Q169 482 224 482Q272 482 305 473Q338 464 358.5 447Q379 430 387.5 406Q396 382 396 351Q396 317 395.5 286Q395 255 394 223.5Q393 192 392.5 158Q392 124 392 84Q392 56 404 47.5Q416 39 434 39Q458 39 474 55L477 52Q474 42 465.5 31Q457 20 444.5 10.5Q432 1 415.5 -5Q399 -11 381 -11Q355 -11 338 -4.5Q321 2 311 12.5Q301 23 296.5 36Q292 49 289 62H285Q276 49 264 36Q252 23 236 12.5Q220 2 199.5 -4.5Q179 -11 155 -11Q132 -11 111 -4.5Q90 2 73.5 15.5Q57 29 47 49.5Q37 70 37 99Q37 129 45.5 148.5Q54 168 67.5 180.5Q81 193 97.5 200Q114 207 130 213L217 242Q238 249 256.5 254.5Q275 260 287 264V382Q287 427 270.5 443Q254 459 210 459Q186 459 165.5 449Q145 439 125 420Q112 407 99.5 390Q87 373 76 355ZM287 246Q277 242 262.5 237Q248 232 232.5 226Q217 220 202 214.5Q187 209 175 204Q154 196 143 174.5Q132 153 132 121Q132 84 149 62Q166 40 201 40Q227 40 250 53.5Q273 67 283 84ZM197 613Q176 624 161.5 631Q147 638 128 638Q113 638 105 622.5Q97 607 108 583L70 593Q76 640 103.5 661.5Q131 683 169 683Q190 683 208 675.5Q226 668 247 657Q269 646 284.5 637Q300 628 314 628Q329 628 335.5 643.5Q342 659 331 683L368 673Q363 626 342.5 604.5Q322 583 284 583Q262 583 240.5 592.5Q219 602 197 613Z" glyph-name="atilde" horiz-adv-x="470" unicode="&#227;" /><glyph d="M56 616Q56 622 55 636.5Q54 651 52.5 667Q51 683 49.5 696Q48 709 46 711L164 732V438Q193 459 227 470.5Q261 482 306 482Q345 482 385 471.5Q425 461 457.5 433.5Q490 406 511 358.5Q532 311 532 238Q532 171 509.5 124Q487 77 450.5 47Q414 17 367.5 3Q321 -11 272 -11Q225 -11 187 3Q149 17 126 38L68 0H56ZM164 85Q175 55 204.5 34Q234 13 274 13Q302 13 328.5 21.5Q355 30 375.5 53Q396 76 408 118Q420 160 420 227Q420 329 383.5 388.5Q347 448 270 448Q244 448 213 437.5Q182 427 164 413Z" glyph-name="b" horiz-adv-x="559" unicode="b" /><glyph d="M15 726Q25 678 39.5 617.5Q54 557 69 497Q84 437 98 383.5Q112 330 121 294Q130 259 144 202Q158 145 174 80.5Q190 16 206.5 -48.5Q223 -113 236 -162L194 -170Q184 -122 168.5 -57Q153 8 137 73Q121 138 106.5 196.5Q92 255 83 290Q74 325 60.5 378Q47 431 32 490Q17 549 1 609Q-15 669 -28 718Z" glyph-name="backslash" horiz-adv-x="324" unicode="\" /><glyph d="M74 -133Q74 -83 74.5 -23.5Q75 36 75 94V612Q75 671 74 721H118Q117 671 116.5 611.5Q116 552 116 494V94Q116 35 116.5 -24.5Q117 -84 118 -133Z" glyph-name="bar" horiz-adv-x="191" unicode="|" /><glyph d="M107 286Q132 283 154.5 275Q177 267 193.5 254Q210 241 220 222Q230 203 230 177Q230 152 227.5 131.5Q225 111 221.5 90Q218 69 215.5 46.5Q213 24 213 -6Q213 -57 233.5 -81Q254 -105 289 -110Q290 -110 298.5 -111.5Q307 -113 316 -114.5Q325 -116 333 -117.5Q341 -119 342 -119L340 -145Q334 -144 326 -143Q319 -142 310.5 -141.5Q302 -141 293 -139Q254 -135 222 -123.5Q190 -112 166.5 -91Q143 -70 130 -37.5Q117 -5 117 42Q117 61 121 80Q125 99 130.5 118.5Q136 138 140 158.5Q144 179 144 201Q144 232 129 254Q114 276 84 276Q70 276 59 275.5Q48 275 29 274V303Q48 302 59 301.5Q70 301 84 301Q114 301 129 322.5Q144 344 144 375Q144 397 140 419Q136 441 130.5 462Q125 483 121 503Q117 523 117 543Q117 583 130 613.5Q143 644 166.5 665Q190 686 222 698Q254 710 293 715Q302 716 310.5 717Q319 718 326 719Q334 720 340 721L342 695Q341 695 333 693.5Q325 692 316 690.5Q307 689 298.5 687.5Q290 686 289 686Q254 681 233.5 657Q213 633 213 582Q213 552 215.5 529.5Q218 507 221.5 486Q225 465 227.5 444.5Q230 424 230 399Q230 373 220 354Q210 335 193.5 322Q177 309 154.5 301Q132 293 107 290Z" glyph-name="braceleft" horiz-adv-x="361" unicode="{" /><glyph d="M254 290Q229 293 206.5 301Q184 309 167.5 322Q151 335 141 354Q131 373 131 399Q131 424 133.5 444.5Q136 465 139.5 486Q143 507 145.5 529.5Q148 552 148 582Q148 633 127.5 657Q107 681 72 686Q70 686 62 687.5Q54 689 44.5 690.5Q35 692 27 693.5Q19 695 18 695L20 721Q26 720 34 719Q41 718 49 717Q57 716 67 715Q145 706 194.5 664.5Q244 623 244 543Q244 523 239.5 503Q235 483 230 462Q225 441 220.5 419Q216 397 216 375Q216 344 231 322.5Q246 301 277 301Q290 301 301 301.5Q312 302 332 303V274Q312 275 301 275.5Q290 276 277 276Q246 276 231 254Q216 232 216 201Q216 179 220.5 158.5Q225 138 230 118.5Q235 99 239.5 80Q244 61 244 42Q244 -5 231 -37.5Q218 -70 194.5 -91Q171 -112 138.5 -123.5Q106 -135 67 -139Q57 -141 49 -141.5Q41 -142 34 -143Q26 -144 20 -145L18 -119Q19 -119 27 -117.5Q35 -116 44.5 -114.5Q54 -113 62 -111.5Q70 -110 72 -110Q107 -105 127.5 -81Q148 -57 148 -6Q148 24 145.5 46.5Q143 69 139.5 90Q136 111 133.5 131.5Q131 152 131 177Q131 203 141 222Q151 241 167.5 254Q184 267 206.5 275Q229 283 254 286Z" glyph-name="braceright" horiz-adv-x="361" unicode="}" /><glyph d="M83 -130V721H315V696H173V-104H315V-130Z" glyph-name="bracketleft" horiz-adv-x="315" unicode="[" /><glyph d="M0 -130V-104H142V696H0V721H232V-130Z" glyph-name="bracketright" horiz-adv-x="315" unicode="]" /><glyph d="M181 590Q223 590 246 607.5Q269 625 281 677L306 673Q298 597 264.5 567.5Q231 538 181 538Q132 538 98.5 567.5Q65 597 57 673L83 677Q94 625 117 607.5Q140 590 181 590Z" glyph-name="breve" horiz-adv-x="368" unicode="&#728;" /><glyph d="M181 780Q195 780 210.5 782Q226 784 240.5 792Q255 800 266.5 815Q278 830 284 856L310 851Q306 813 293.5 788.5Q281 764 263 750Q245 736 223.5 730Q202 724 181 724Q160 724 139 730Q118 736 100 750Q82 764 69 788.5Q56 813 52 851L78 856Q84 830 95.5 815Q107 800 121.5 792Q136 784 151.5 782Q167 780 181 780Z" glyph-name="breve.uc" horiz-adv-x="368" /><glyph d="M74 344Q74 366 74.5 392.5Q75 419 75 445V673Q75 699 74 721H118Q117 699 116.5 672.5Q116 646 116 620V444Q116 418 116.5 392Q117 366 118 344ZM74 -132Q74 -110 74.5 -84Q75 -58 75 -32V195Q75 221 74 243H118Q117 221 116.5 194.5Q116 168 116 142V-33Q116 -59 116.5 -85Q117 -111 118 -132Z" glyph-name="brokenbar" horiz-adv-x="191" unicode="&#166;" /><glyph d="M41 314Q41 334 49 352Q57 370 70.5 383.5Q84 397 102 404.5Q120 412 140 412Q181 412 209.5 383.5Q238 355 238 314Q238 273 209.5 244.5Q181 216 140 216Q120 216 102 223.5Q84 231 70.5 244.5Q57 258 49 276Q41 294 41 314Z" glyph-name="bullet" horiz-adv-x="280" unicode="&#8226;" /><glyph d="M140 259Q140 208 153 170.5Q166 133 187 107.5Q208 82 235 69.5Q262 57 291 57Q333 57 373.5 72.5Q414 88 438 122L443 118Q435 94 419.5 70.5Q404 47 380 29Q356 11 324.5 0Q293 -11 253 -11Q211 -11 170.5 5Q130 21 98.5 51Q67 81 47.5 125Q28 169 28 226Q28 290 49 338Q70 386 104.5 418Q139 450 184 466Q229 482 276 482Q330 482 371 470Q412 458 435 435L377 361Q369 378 358.5 396.5Q348 415 335 429Q321 443 306 451Q291 459 270 459Q210 459 175 411Q140 363 140 259Z" glyph-name="c" horiz-adv-x="448" unicode="c" /><glyph d="M57 692 75 706 183 605H185L293 706L311 692L193 538H175Z" glyph-name="caron" horiz-adv-x="368" unicode="&#711;" /><glyph d="M145 526 163 722H227L167 526Z" glyph-name="caron.alt" horiz-adv-x="368" /><glyph d="M39 852 56 866 183 784H185L312 866L329 852L193 717H175Z" glyph-name="caron.uc" horiz-adv-x="368" /><glyph d="M187 108Q208 82 235 69.5Q262 57 291 57Q333 57 373.5 72.5Q414 88 438 122L443 118Q435 94 419.5 70.5Q404 47 380 29Q356 11 324.5 0Q293 -11 253 -11H245Q242 -11 240 -10L221 -54Q228 -47 241.5 -43.5Q255 -40 270 -40Q308 -40 327 -60.5Q346 -81 346 -107Q346 -136 317.5 -159Q289 -182 229 -182Q200 -182 170.5 -175Q141 -168 126 -160L144 -109Q157 -129 175 -146.5Q193 -164 227 -164Q255 -164 268.5 -148.5Q282 -133 282 -113Q282 -82 272 -71.5Q262 -61 242 -61Q232 -61 221.5 -67Q211 -73 206 -81L184 -74L213 -7Q176 -1 142.5 17.5Q109 36 84 66Q58 95 43 135.5Q28 176 28 226Q28 290 49 338Q70 386 105 418Q139 450 184 466Q229 482 276 482Q330 482 371 470Q412 458 435 435L377 361Q369 378 358.5 396.5Q348 415 335 429Q321 443 306 451Q291 459 270 459Q210 459 175 411Q140 363 140 259Q140 208 153 170.5Q166 133 187 108Z" glyph-name="ccedilla" horiz-adv-x="448" unicode="&#231;" /><glyph d="M190 8 163 -54Q170 -47 183.5 -43.5Q197 -40 213 -40Q250 -40 269 -60.5Q288 -81 288 -107Q288 -136 259.5 -159Q231 -182 171 -182Q142 -182 112.5 -175Q83 -168 68 -160L86 -109Q99 -129 117 -146.5Q135 -164 169 -164Q197 -164 210.5 -148.5Q224 -133 224 -113Q224 -82 214 -71.5Q204 -61 184 -61Q174 -61 163.5 -67Q153 -73 148 -81L126 -74L163 8Z" glyph-name="cedilla" horiz-adv-x="368" unicode="&#184;" /><glyph d="M271 -110V-11H262Q220 -11 179.5 5Q139 21 107.5 51Q76 81 56.5 125Q37 169 37 226Q37 288 56.5 335Q76 382 109 414.5Q142 447 184.5 464.5Q227 482 272 484V565H307V483Q352 481 383.5 471.5Q415 462 437 442L391 374Q378 404 358 428.5Q338 453 307 461V59Q348 60 386 74.5Q424 89 447 122L453 118Q439 76 402.5 40.5Q366 5 307 -6V-110ZM149 259Q149 215 159 181.5Q169 148 186 123.5Q203 99 225 84Q247 69 271 63L272 464Q216 460 182.5 409.5Q149 359 149 259Z" glyph-name="cent" horiz-adv-x="475" unicode="&#162;" /><glyph d="M311 552 293 538 185 638H183L75 538L57 552L175 706H193Z" glyph-name="circumflex" horiz-adv-x="368" unicode="&#710;" /><glyph d="M329 736 312 722 185 804H183L56 722L39 736L175 871H193Z" glyph-name="circumflex.uc" horiz-adv-x="368" /><glyph d="M70 55Q70 80 88 99Q106 118 132 118Q157 118 175 99Q193 80 193 55Q193 30 175 12Q157 -6 132 -6Q106 -6 88 12Q70 30 70 55ZM70 422Q70 447 88 465.5Q106 484 132 484Q157 484 175 465.5Q193 447 193 422Q193 397 175 379Q157 361 132 361Q106 361 88 379Q70 397 70 422Z" glyph-name="colon" horiz-adv-x="263" unicode=":" /><glyph d="M118 111Q129 98 139.5 73Q150 48 150 19Q150 -41 116 -87.5Q82 -134 23 -172L14 -160Q48 -134 61.5 -96.5Q75 -59 75 -22Q75 10 60.5 33Q46 56 29 72Z" glyph-name="comma" horiz-adv-x="178" unicode="," /><glyph d="M32 229Q32 311 63 383.5Q94 456 147 510Q200 564 272 595Q344 626 426 626Q508 626 580 595Q652 564 705.5 510Q759 456 790 383.5Q821 311 821 229Q821 147 790 75Q759 3 705.5 -51Q652 -105 580 -136Q508 -167 426 -167Q344 -167 272 -136Q200 -105 147 -51Q94 3 63 75Q32 147 32 229ZM58 229Q58 152 86.5 84Q115 16 165 -34.5Q215 -85 282 -114.5Q349 -144 426 -144Q503 -144 570.5 -114.5Q638 -85 687.5 -34.5Q737 16 765.5 84Q794 152 794 229Q794 306 765.5 374Q737 442 687.5 493Q638 544 570.5 573.5Q503 603 426 603Q349 603 282 573.5Q215 544 165 493Q115 442 86.5 374Q58 306 58 229ZM438 488Q487 488 534.5 473Q582 458 617 432L572 362Q560 386 547 405.5Q534 425 518 438.5Q502 452 482 459Q462 466 436 466Q404 466 375 451.5Q346 437 324.5 408Q303 379 290.5 336Q278 293 278 235Q278 181 289 137Q300 93 321 61.5Q342 30 372.5 13Q403 -4 443 -4Q494 -4 538 19.5Q582 43 610 90L630 72Q617 51 599 32Q581 13 556.5 -2Q532 -17 500.5 -26Q469 -35 430 -35Q374 -35 327.5 -15.5Q281 4 247 38.5Q213 73 194.5 120.5Q176 168 176 224Q176 287 197 336Q218 385 254 419Q290 453 337.5 470.5Q385 488 438 488Z" glyph-name="copyright" horiz-adv-x="853" unicode="&#169;" /><glyph d="M382 627Q382 633 381 646Q380 659 378.5 673.5Q377 688 375 699.5Q373 711 372 713L488 734V163Q488 137 489 99Q489 94 489.5 78.5Q490 63 491 46.5Q492 30 493 16Q495 3 496 0Q477 1 458 1Q441 1 421.5 0Q402 -1 385 -3V58H382Q376 47 363.5 35Q351 23 333.5 12.5Q316 2 293.5 -4.5Q271 -11 244 -11Q199 -11 159 5Q119 21 89 52Q59 83 42 128.5Q25 174 25 234Q25 295 48 341Q71 387 107.5 418.5Q144 450 189 466Q234 482 279 482Q314 482 340.5 476.5Q367 471 382 466ZM382 371Q382 395 373 412Q364 429 350 439.5Q336 450 319 454.5Q302 459 286 459Q218 459 177 405.5Q136 352 136 252Q136 141 174.5 89Q213 37 285 37Q323 37 346 51.5Q369 66 382 80Z" glyph-name="d" horiz-adv-x="543" unicode="d" /><glyph d="M440 449 264 457 284 352 256 -133H230L202 351L223 457L46 449V499L223 491L211 583L230 720H257L276 583L264 491L440 499Z" glyph-name="dagger" horiz-adv-x="486" unicode="&#8224;" /><glyph d="M440 88 264 96 276 4 257 -133H230L211 4L223 96L46 88V138L223 130L202 236V351L223 457L46 449V499L223 491L211 583L230 720H257L276 583L264 491L440 499V449L264 457L284 352V235L264 130L440 138Z" glyph-name="daggerdbl" horiz-adv-x="486" unicode="&#8225;" /><glyph d="M178 666Q157 666 140.5 658Q124 650 113 636.5Q102 623 96 605.5Q90 588 90 570Q90 552 96 534.5Q102 517 113 504Q124 491 140.5 483Q157 475 178 475Q199 475 215.5 483Q232 491 243.5 504Q255 517 261 534.5Q267 552 267 570Q267 588 261 605.5Q255 623 243.5 636.5Q232 650 215.5 658Q199 666 178 666ZM178 696Q203 696 226 687.5Q249 679 265.5 662.5Q282 646 292 623Q302 600 302 570Q302 540 292 517Q282 494 265.5 478Q249 462 226 453.5Q203 445 178 445Q153 445 130.5 453.5Q108 462 91.5 478Q75 494 65 517Q55 540 55 570Q55 600 65 623Q75 646 91.5 662.5Q108 679 130.5 687.5Q153 696 178 696Z" glyph-name="degree" horiz-adv-x="357" unicode="&#176;" /><glyph d="M37 612Q37 632 52 647.5Q67 663 87 663Q107 663 123 647.5Q139 632 139 612Q139 591 123 576Q107 561 87 561Q67 561 52 576Q37 591 37 612ZM229 612Q229 632 244.5 647.5Q260 663 280 663Q300 663 315.5 647.5Q331 632 331 612Q331 591 315.5 576Q300 561 280 561Q260 561 244.5 576Q229 591 229 612Z" glyph-name="dieresis" horiz-adv-x="368" unicode="&#168;" /><glyph d="M28 786Q28 806 43 821Q58 836 78 836Q98 836 114 821Q130 806 130 786Q130 765 114 750Q98 735 78 735Q58 735 43 750Q28 765 28 786ZM238 786Q238 806 253.5 821Q269 836 289 836Q309 836 324.5 821Q340 806 340 786Q340 765 324.5 750Q309 735 289 735Q269 735 253.5 750Q238 765 238 786Z" glyph-name="dieresis.uc" horiz-adv-x="368" /><glyph d="M238 92Q238 113 253 128.5Q268 144 289 144Q309 144 324.5 128.5Q340 113 340 92Q340 71 324.5 56Q309 41 289 41Q268 41 253 56Q238 71 238 92ZM238 448Q238 469 253 484.5Q268 500 289 500Q309 500 324.5 484.5Q340 469 340 448Q340 427 324.5 412Q309 397 289 397Q268 397 253 412Q238 427 238 448ZM74 255V288H511V255Z" glyph-name="divide" horiz-adv-x="584" unicode="&#247;" /><glyph d="M247 -98V-12Q223 -12 195 -7Q167 -2 139.5 5.5Q112 13 88 23.5Q64 34 48 46L72 151Q132 18 247 17V293Q204 311 169.5 329Q135 347 110.5 370.5Q86 394 73 426Q60 458 60 503Q60 538 74.5 569.5Q89 601 114 625.5Q139 650 173 666Q207 682 247 685V752H282V686Q334 684 378.5 672.5Q423 661 456 638L423 544Q401 589 366 620.5Q331 652 282 657V405L283 404Q284 404 286 404Q341 382 378.5 359Q416 336 439 309.5Q462 283 472.5 251Q483 219 483 178Q483 143 468 111Q453 79 426.5 53.5Q400 28 363 11.5Q326 -5 282 -10V-98ZM397 135Q397 160 391.5 179Q386 198 373 214.5Q360 231 338 246Q316 261 282 277V18Q333 26 365 55.5Q397 85 397 135ZM139 558Q139 519 164 484.5Q189 450 247 421V657Q225 655 205.5 649Q186 643 171 631.5Q156 620 147.5 602Q139 584 139 558Z" glyph-name="dollar" horiz-adv-x="506" unicode="$" /><glyph d="M123 622Q123 648 140.5 666Q158 684 184 684Q210 684 228 666Q246 648 246 622Q246 597 228 579.5Q210 562 184 562Q158 562 140.5 579.5Q123 597 123 622Z" glyph-name="dotaccent" horiz-adv-x="368" unicode="&#729;" /><glyph d="M130 792Q130 815 145.5 830.5Q161 846 184 846Q207 846 223 830.5Q239 815 239 792Q239 771 223 755Q207 739 184 739Q161 739 145.5 755Q130 771 130 792Z" glyph-name="dotaccent.uc" horiz-adv-x="368" /><glyph d="M163 53Q163 42 165.5 23.5Q168 5 171 0H47Q51 5 53 23.5Q55 42 55 53L56 405Q56 411 55 419.5Q54 428 52.5 437Q51 446 49.5 453Q48 460 46 463L163 484Z" glyph-name="dotlessi" horiz-adv-x="217" unicode="&#305;" /><glyph d="M140 305Q139 296 139 286V269Q139 210 154 170.5Q169 131 192.5 107Q216 83 244.5 73Q273 63 300 63Q330 63 353.5 68.5Q377 74 395 82.5Q413 91 425.5 101.5Q438 112 447 122L454 117Q447 100 432.5 78Q418 56 394 36Q370 16 336.5 2.5Q303 -11 259 -11Q211 -11 168.5 4Q126 19 95 49.5Q64 80 46 126Q28 172 28 234Q28 291 47 336.5Q66 382 98 414.5Q130 447 171.5 464.5Q213 482 258 482Q306 482 340 465.5Q374 449 396 423.5Q418 398 428.5 366.5Q439 335 439 305ZM256 462Q223 462 202 449.5Q181 437 168 417.5Q155 398 149 372.5Q143 347 141 322L334 329Q334 350 332 373.5Q330 397 322 416.5Q314 436 298.5 449Q283 462 256 462Z" glyph-name="e" horiz-adv-x="477" unicode="e" /><glyph d="M140 305Q139 296 139 286V269Q139 210 154 170.5Q169 131 192.5 107Q216 83 244.5 73Q273 63 300 63Q330 63 353.5 68.5Q377 74 395 82.5Q413 91 425.5 101.5Q438 112 447 122L454 117Q447 100 432.5 78Q418 56 394 36Q370 16 336.5 2.5Q303 -11 259 -11Q211 -11 168.5 4Q126 19 95 49.5Q64 80 46 126Q28 172 28 234Q28 291 47 336.5Q66 382 98 414.5Q130 447 171.5 464.5Q213 482 258 482Q306 482 340 465.5Q374 449 396 423.5Q418 398 428.5 366.5Q439 335 439 305ZM256 462Q223 462 202 449.5Q181 437 168 417.5Q155 398 149 372.5Q143 347 141 322L334 329Q334 350 332 373.5Q330 397 322 416.5Q314 436 298.5 449Q283 462 256 462ZM221 534 268 703 335 683 242 524Z" glyph-name="eacute" horiz-adv-x="477" unicode="&#233;" /><glyph d="M140 305Q139 296 139 286V269Q139 210 154 170.5Q169 131 192.5 107Q216 83 244.5 73Q273 63 300 63Q330 63 353.5 68.5Q377 74 395 82.5Q413 91 425.5 101.5Q438 112 447 122L454 117Q447 100 432.5 78Q418 56 394 36Q370 16 336.5 2.5Q303 -11 259 -11Q211 -11 168.5 4Q126 19 95 49.5Q64 80 46 126Q28 172 28 234Q28 291 47 336.5Q66 382 98 414.5Q130 447 171.5 464.5Q213 482 258 482Q306 482 340 465.5Q374 449 396 423.5Q418 398 428.5 366.5Q439 335 439 305ZM256 462Q223 462 202 449.5Q181 437 168 417.5Q155 398 149 372.5Q143 347 141 322L334 329Q334 350 332 373.5Q330 397 322 416.5Q314 436 298.5 449Q283 462 256 462ZM377 552 359 538 251 638H249L141 538L123 552L241 706H259Z" glyph-name="ecircumflex" horiz-adv-x="477" unicode="&#234;" /><glyph d="M103 612Q103 632 118 647.5Q133 663 153 663Q173 663 189 647.5Q205 632 205 612Q205 591 189 576Q173 561 153 561Q133 561 118 576Q103 591 103 612ZM295 612Q295 632 310.5 647.5Q326 663 346 663Q366 663 381.5 647.5Q397 632 397 612Q397 591 381.5 576Q366 561 346 561Q326 561 310.5 576Q295 591 295 612ZM140 305Q139 296 139 286V269Q139 210 154 170.5Q169 131 192.5 107Q216 83 244.5 73Q273 63 300 63Q330 63 353.5 68.5Q377 74 395 82.5Q413 91 425.5 101.5Q438 112 447 122L454 117Q447 100 432.5 78Q418 56 394 36Q370 16 336.5 2.5Q303 -11 259 -11Q211 -11 168.5 4Q126 19 95 49.5Q64 80 46 126Q28 172 28 234Q28 291 47 336.5Q66 382 98 414.5Q130 447 171.5 464.5Q213 482 258 482Q306 482 340 465.5Q374 449 396 423.5Q418 398 428.5 366.5Q439 335 439 305ZM256 462Q223 462 202 449.5Q181 437 168 417.5Q155 398 149 372.5Q143 347 141 322L334 329Q334 350 332 373.5Q330 397 322 416.5Q314 436 298.5 449Q283 462 256 462Z" glyph-name="edieresis" horiz-adv-x="477" unicode="&#235;" /><glyph d="M140 305Q139 296 139 286V269Q139 210 154 170.5Q169 131 192.5 107Q216 83 244.5 73Q273 63 300 63Q330 63 353.5 68.5Q377 74 395 82.5Q413 91 425.5 101.5Q438 112 447 122L454 117Q447 100 432.5 78Q418 56 394 36Q370 16 336.5 2.5Q303 -11 259 -11Q211 -11 168.5 4Q126 19 95 49.5Q64 80 46 126Q28 172 28 234Q28 291 47 336.5Q66 382 98 414.5Q130 447 171.5 464.5Q213 482 258 482Q306 482 340 465.5Q374 449 396 423.5Q418 398 428.5 366.5Q439 335 439 305ZM256 462Q223 462 202 449.5Q181 437 168 417.5Q155 398 149 372.5Q143 347 141 322L334 329Q334 350 332 373.5Q330 397 322 416.5Q314 436 298.5 449Q283 462 256 462ZM254 524 161 683 228 703 275 534Z" glyph-name="egrave" horiz-adv-x="477" unicode="&#232;" /><glyph d="M277 696Q364 696 418 660.5Q472 625 472 548Q472 521 461 498Q450 475 431.5 454.5Q413 434 389 417Q365 400 339 386Q369 369 399 348.5Q429 328 453.5 303.5Q478 279 493 249.5Q508 220 508 185Q508 148 493.5 113Q479 78 449 50.5Q419 23 374.5 6Q330 -11 270 -11Q219 -11 177 0.5Q135 12 105.5 33.5Q76 55 59.5 85.5Q43 116 43 155Q43 188 57.5 215.5Q72 243 94.5 265Q117 287 144.5 304Q172 321 198 334Q136 373 103 421Q70 469 70 523Q70 566 88.5 598Q107 630 136.5 652Q166 674 203 685Q240 696 277 696ZM224 320Q192 304 172.5 285.5Q153 267 142 246Q131 225 127 201.5Q123 178 123 153Q123 87 162.5 54Q202 21 271 21Q342 21 380 53Q418 85 418 135Q418 163 402 188Q386 213 359.5 235.5Q333 258 298 279Q263 300 224 320ZM305 399Q327 408 346 424Q365 440 378 460Q391 480 398.5 502Q406 524 406 545Q406 579 396.5 602.5Q387 626 370 639.5Q353 653 329 659Q305 665 277 665Q218 665 189.5 637.5Q161 610 161 565Q161 536 173 512Q185 488 204.5 467.5Q224 447 250 430Q276 413 305 399Z" glyph-name="eight" horiz-adv-x="539" unicode="8" /><glyph d="M106 55Q106 81 123.5 99Q141 117 167 117Q193 117 211 99Q229 81 229 55Q229 30 211 12.5Q193 -5 167 -5Q141 -5 123.5 12.5Q106 30 106 55ZM425 55Q425 81 442.5 99Q460 117 486 117Q512 117 530 99Q548 81 548 55Q548 30 530 12.5Q512 -5 486 -5Q460 -5 442.5 12.5Q425 30 425 55ZM745 55Q745 81 762.5 99Q780 117 806 117Q832 117 850 99Q868 81 868 55Q868 30 850 12.5Q832 -5 806 -5Q780 -5 762.5 12.5Q745 30 745 55Z" glyph-name="ellipsis" horiz-adv-x="972" unicode="&#8230;" /><glyph d="M37 272H625V242H37Z" glyph-name="emdash" horiz-adv-x="661" unicode="&#8212;" /><glyph d="M37 272H437V242H37Z" glyph-name="endash" horiz-adv-x="474" unicode="&#8211;" /><glyph d="M474 346H37V379H474ZM474 164H37V197H474Z" glyph-name="equal" horiz-adv-x="511" unicode="=" /><glyph d="M262 612Q234 635 202 653Q170 671 132 682L133 696Q223 682 303 635L418 701L436 673L333 614Q374 584 407.5 546Q441 508 465 464Q489 420 502.5 370.5Q516 321 516 269Q516 203 496.5 151Q477 99 443.5 63Q410 27 366 7.5Q322 -12 273 -12Q222 -12 177.5 6Q133 24 99.5 56.5Q66 89 47 134Q28 179 28 233Q28 291 47 338Q66 385 98.5 417Q131 449 174.5 466.5Q218 484 266 484Q298 484 329 472Q360 460 381 431Q350 522 288 588L168 519L150 547ZM274 459Q239 459 214.5 441.5Q190 424 173.5 393.5Q157 363 149.5 321.5Q142 280 142 233Q142 191 148.5 151.5Q155 112 170 81Q185 50 210 31.5Q235 13 273 13Q307 13 331.5 31Q356 49 371 79.5Q386 110 393 150Q400 190 400 235Q400 345 371.5 402Q343 459 274 459Z" glyph-name="eth" horiz-adv-x="544" unicode="&#240;" /><glyph d="M93 187Q89 249 83.5 304Q78 359 72 416.5Q66 474 60 537.5Q54 601 49 681L166 687L121 187ZM46 52Q46 76 63 93.5Q80 111 106 111Q131 111 148.5 93.5Q166 76 166 52Q166 29 148.5 11.5Q131 -6 106 -6Q80 -6 63 11.5Q46 29 46 52Z" glyph-name="exclam" horiz-adv-x="212" unicode="!" /><glyph d="M119 495Q123 433 128 377.5Q133 322 139 265Q145 208 151 144Q157 80 163 1L46 -6L90 495ZM166 629Q166 606 149 588Q132 570 106 570Q81 570 63.5 588Q46 606 46 629Q46 653 63.5 670Q81 687 106 687Q132 687 149 670Q166 653 166 629Z" glyph-name="exclamdown" horiz-adv-x="270" unicode="&#161;" /><glyph d="M195 431V99Q195 94 195.5 78.5Q196 63 197.5 46.5Q199 30 200 16Q201 3 202 0H79Q81 2 82.5 16Q84 30 85 46.5Q86 63 86.5 78.5Q87 94 87 99V431H28V439L87 471V504Q87 563 105.5 606Q124 649 154 676.5Q184 704 221.5 717.5Q259 731 297 731Q345 731 381.5 718.5Q418 706 435 692L390 628Q365 671 339.5 689Q314 707 282 707Q233 707 214 676.5Q195 646 195 589V470H331L322 431Z" glyph-name="f" horiz-adv-x="311" unicode="f" /><glyph d="M355 431H193V99Q193 94 193.5 78.5Q194 63 195.5 46.5Q197 30 198 16Q199 3 200 0H77Q79 2 80.5 16Q82 30 83.5 46.5Q85 63 85.5 78.5Q86 94 86 99V431H28V436L86 471V504Q86 563 107.5 606Q129 649 161.5 676.5Q194 704 232.5 717.5Q271 731 306 731Q331 731 355.5 728.5Q380 726 398 719L463 732V436Q492 458 526 471Q560 484 605 484Q644 484 684 473Q724 462 756.5 434.5Q789 407 810 359Q831 311 831 238Q831 171 809.5 124Q788 77 753 47Q718 17 672 3Q626 -11 578 -11Q531 -11 499.5 3.5Q468 18 444 29L367 0H355ZM463 84Q469 69 480.5 55.5Q492 42 508 31.5Q524 21 543 15Q562 9 582 9Q610 9 635 18Q660 27 679 51Q698 75 708.5 117.5Q719 160 719 227Q719 329 682.5 389.5Q646 450 569 450Q543 450 512 439.5Q481 429 463 415ZM193 470H355L356 684Q336 712 302 712Q252 712 222.5 681Q193 650 193 592Z" glyph-name="f_b" horiz-adv-x="858" /><glyph d="M465 431V99Q465 94 465.5 78.5Q466 63 467 46.5Q468 30 469 16Q471 3 472 0H349Q350 2 351.5 16Q353 30 354.5 46.5Q356 63 356.5 78.5Q357 94 357 99V431H195V99Q195 94 195.5 78.5Q196 63 197.5 46.5Q199 30 200 16Q201 3 202 0H79Q81 2 82.5 16Q84 30 85 46.5Q86 63 86.5 78.5Q87 94 87 99V431H28V436L87 471V495Q87 553 108.5 596Q130 639 163.5 667Q197 695 237.5 708.5Q278 722 316 722Q355 722 390 713.5Q425 705 446 694Q473 713 504 722Q535 731 567 731Q615 731 651.5 718.5Q688 706 705 692L662 628Q637 671 611 691.5Q585 712 553 712Q504 712 484.5 681Q465 650 465 592V470H601L592 431ZM195 470H357V504Q357 549 368 584Q379 619 397 645Q375 676 352 689.5Q329 703 302 703Q252 703 223.5 672Q195 641 195 583Z" glyph-name="f_f" horiz-adv-x="581" unicode="&#64256;" /><glyph d="M627 431H465V99Q465 94 465.5 78.5Q466 63 467 46.5Q468 30 469 16Q471 3 472 0H349Q350 2 351.5 16Q353 30 354.5 46.5Q356 63 356.5 78.5Q357 94 357 99V431H195V99Q195 94 195.5 78.5Q196 63 197.5 46.5Q199 30 200 16Q201 3 202 0H79Q81 2 82.5 16Q84 30 85 46.5Q86 63 86.5 78.5Q87 94 87 99V431H28V436L87 471V495Q87 553 108.5 596Q130 639 163.5 667Q197 695 237.5 708.5Q278 722 316 722Q358 722 394 712.5Q430 703 451 691Q481 711 514 721Q547 731 578 731Q602 731 627 728.5Q652 726 670 719L734 732V436Q764 458 798 471Q832 484 877 484Q916 484 956 473Q996 462 1028.5 434.5Q1061 407 1081.5 359Q1102 311 1102 238Q1102 171 1080.5 124Q1059 77 1024 47Q989 17 943.5 3Q898 -11 849 -11Q826 -11 806.5 -6.5Q787 -2 771 4Q755 10 741.5 17Q728 24 716 29L638 0H627ZM734 84Q740 69 752 55.5Q764 42 780 31.5Q796 21 815 15Q834 9 854 9Q882 9 907 18Q932 27 950.5 51Q969 75 979.5 117.5Q990 160 990 227Q990 329 953.5 389.5Q917 450 841 450Q815 450 783.5 439.5Q752 429 734 415ZM195 470H357V504Q357 547 368.5 581Q380 615 400 641Q377 674 353.5 688.5Q330 703 302 703Q252 703 223.5 672Q195 641 195 583ZM465 470H627V684Q608 712 573 712Q524 712 494.5 681Q465 650 465 592Z" glyph-name="f_f_b" horiz-adv-x="1129" /><glyph d="M626 431H466V99Q466 94 466.5 78.5Q467 63 468 46.5Q469 30 470 16Q472 3 473 0H350Q351 2 352.5 16Q354 30 355.5 46.5Q357 63 357.5 78.5Q358 94 358 99V431H195V99Q195 94 195.5 78.5Q196 63 197.5 46.5Q199 30 200 16Q201 3 202 0H79Q81 2 82.5 16Q84 30 85 46.5Q86 63 86.5 78.5Q87 94 87 99V431H28V436L87 471V492Q87 551 108.5 594Q130 637 163.5 665.5Q197 694 237.5 708Q278 722 316 722Q358 722 393.5 712.5Q429 703 450 692Q479 712 512 721.5Q545 731 577 731Q633 731 669 719L732 731V421H734Q744 429 754.5 436.5Q765 444 778 452Q803 466 833 475Q863 484 886 484Q931 484 960.5 474.5Q990 465 1007.5 445.5Q1025 426 1032 396Q1039 366 1039 324V72Q1039 66 1039.5 55Q1040 44 1041 32.5Q1042 21 1043.5 11.5Q1045 2 1047 0H923Q924 2 925.5 11.5Q927 21 928.5 32.5Q930 44 930.5 55Q931 66 931 72V328Q931 385 912 411Q893 437 842 437Q815 437 785.5 426.5Q756 416 733 399V72Q733 66 733.5 55Q734 44 735.5 32.5Q737 21 738.5 11.5Q740 2 742 0H617Q619 2 620.5 11.5Q622 21 623.5 32.5Q625 44 625.5 55Q626 66 626 72ZM195 470H358V504Q358 547 369 582Q380 617 399 643Q377 675 353.5 689Q330 703 302 703Q252 703 223.5 672Q195 641 195 583ZM466 470H626L627 685Q616 699 603 705.5Q590 712 572 712Q523 712 494.5 681Q466 650 466 592Z" glyph-name="f_f_h" horiz-adv-x="1088" /><glyph d="M735 470V53Q735 42 737.5 23.5Q740 5 743 0H619Q623 5 625 23.5Q627 42 627 53V431H466V90Q466 84 466.5 70.5Q467 57 468 42Q469 27 470.5 14.5Q472 2 474 0H350Q351 2 352.5 14.5Q354 27 355.5 42Q357 57 357.5 70.5Q358 84 358 90V431H195V99Q195 94 195.5 78.5Q196 63 197.5 46.5Q199 30 200 16Q201 3 202 0H79Q81 2 82.5 16Q84 30 85 46.5Q86 63 86.5 78.5Q87 94 87 99V431H28V436L87 471V495Q87 553 108.5 596Q130 639 163.5 667Q197 695 237.5 708.5Q278 722 316 722Q358 722 395 712.5Q432 703 453 690Q483 711 518.5 721Q554 731 586 731Q634 731 675 718.5Q716 706 733 692L691 619Q665 668 634.5 690Q604 712 572 712Q523 712 494.5 681Q466 650 466 592V470ZM358 504Q358 546 369 580Q380 614 400 640Q378 674 354 688.5Q330 703 302 703Q252 703 223.5 672Q195 641 195 583V470H358Z" glyph-name="f_f_i" horiz-adv-x="789" unicode="&#64259;" /><glyph d="M627 431H466V90Q466 84 466.5 70.5Q467 57 468 42Q469 27 470.5 14.5Q472 2 474 0H350Q351 2 352.5 14.5Q354 27 355.5 42Q357 57 357.5 70.5Q358 84 358 90V431H195V99Q195 94 195.5 78.5Q196 63 197.5 46.5Q199 30 200 16Q201 3 202 0H79Q81 2 82.5 16Q84 30 85 46.5Q86 63 86.5 78.5Q87 94 87 99V431H28V436L87 471V495Q87 553 108.5 596Q130 639 163.5 667Q197 695 237.5 708.5Q278 722 316 722Q358 722 395 712.5Q432 703 453 690Q483 711 518.5 721Q554 731 586 731Q634 731 675 718.5Q716 706 733 692L691 619Q665 668 634.5 690Q604 712 572 712Q523 712 494.5 681Q466 650 466 592V470H735L734 -31Q734 -94 718 -136.5Q702 -179 677.5 -204.5Q653 -230 622.5 -240.5Q592 -251 562 -251Q516 -251 478 -239.5Q440 -228 420 -217L449 -135Q455 -145 464.5 -161Q474 -177 486.5 -192Q499 -207 514.5 -217.5Q530 -228 547 -228Q593 -228 610 -202Q627 -176 627 -131ZM195 470H358V504Q358 546 369 580Q380 614 400 640Q378 674 354 688.5Q330 703 302 703Q252 703 223.5 672Q195 641 195 583Z" glyph-name="f_f_j" horiz-adv-x="781" /><glyph d="M734 226V53Q734 42 736.5 23.5Q739 5 742 0H618Q622 5 624.5 23.5Q627 42 627 53V431H465V90Q465 84 465.5 70.5Q466 57 467 42Q468 27 469.5 14.5Q471 2 473 0H349Q350 2 351.5 14.5Q353 27 354.5 42Q356 57 356.5 70.5Q357 84 357 90V431H195V99Q195 94 195.5 78.5Q196 63 197.5 46.5Q199 30 200 16Q201 3 202 0H79Q81 2 82.5 16Q84 30 85 46.5Q86 63 86.5 78.5Q87 94 87 99V431H28V436L87 471V495Q87 553 108.5 596Q130 639 163.5 667Q197 695 237.5 708.5Q278 722 316 722Q358 722 395 712.5Q432 703 452 690Q483 711 518 721Q553 731 585 731Q631 731 670 719L734 731V253L952 473H1017Q1003 464 992 457Q981 450 969.5 441.5Q958 433 945.5 422Q933 411 917 396L802 292L987 75L1056 2V0H916ZM357 504Q357 547 368.5 581Q380 615 400 641Q377 674 353.5 688.5Q330 703 302 703Q252 703 223.5 672Q195 641 195 583V470H357ZM627 470V682Q615 697 604 704.5Q593 712 571 712Q522 712 493.5 681Q465 650 465 592V470Z" glyph-name="f_f_k" horiz-adv-x="1056" /><glyph d="M734 53Q734 42 736.5 23.5Q739 5 742 0H618Q622 5 624.5 23.5Q627 42 627 53V431H465V90Q465 84 465.5 70.5Q466 57 467 42Q468 27 469.5 14.5Q471 2 473 0H349Q350 2 351.5 14.5Q353 27 354.5 42Q356 57 356.5 70.5Q357 84 357 90V431H195V99Q195 94 195.5 78.5Q196 63 197.5 46.5Q199 30 200 16Q201 3 202 0H79Q81 2 82.5 16Q84 30 85 46.5Q86 63 86.5 78.5Q87 94 87 99V431H28V436L87 471V495Q87 553 108.5 596Q130 639 163.5 667Q197 695 237.5 708.5Q278 722 316 722Q358 722 395 712.5Q432 703 452 690Q483 711 518 721Q553 731 585 731Q631 731 670 719L734 731ZM195 470H357V504Q357 547 368.5 581Q380 615 400 641Q377 674 353.5 688.5Q330 703 302 703Q252 703 223.5 672Q195 641 195 583ZM627 470V682Q612 712 571 712Q522 712 493.5 681Q465 650 465 592V470Z" glyph-name="f_f_l" horiz-adv-x="788" unicode="&#64260;" /><glyph d="M355 431H195V99Q195 94 195.5 78.5Q196 63 197.5 46.5Q199 30 200 16Q201 3 202 0H79Q81 2 82.5 16Q84 30 85 46.5Q86 63 86.5 78.5Q87 94 87 99V431H28V436L87 471V504Q87 563 107 606Q127 649 159 676.5Q191 704 229.5 717.5Q268 731 306 731Q362 731 398 719L462 731V421H464Q474 429 484 436.5Q494 444 508 452Q533 466 562.5 475Q592 484 615 484Q660 484 690 474.5Q720 465 737 445.5Q754 426 761 396Q768 366 768 324V72Q768 66 768.5 55Q769 44 770.5 32.5Q772 21 773 11.5Q774 2 776 0H652Q654 2 655.5 11.5Q657 21 658.5 32.5Q660 44 660.5 55Q661 66 661 72V328Q661 385 641.5 411Q622 437 571 437Q544 437 515 426.5Q486 416 463 399V72Q463 66 463.5 55Q464 44 465 32.5Q466 21 467.5 11.5Q469 2 471 0H347Q348 2 349.5 11.5Q351 21 352.5 32.5Q354 44 354.5 55Q355 66 355 72ZM195 470H355L356 685Q345 699 332.5 705.5Q320 712 302 712Q252 712 223.5 681Q195 650 195 592Z" glyph-name="f_h" horiz-adv-x="817" /><glyph d="M465 470V53Q465 42 467 23.5Q469 5 473 0H349Q352 5 354.5 23.5Q357 42 357 53V431H195V90Q195 84 195.5 70.5Q196 57 197.5 42Q199 27 200 14.5Q201 2 203 0H79Q81 2 82.5 14.5Q84 27 85 42Q86 57 86.5 70.5Q87 84 87 90V431H28V436L87 471V504Q87 563 108.5 606Q130 649 163.5 676.5Q197 704 237.5 717.5Q278 731 316 731Q340 731 362.5 727.5Q385 724 404.5 718.5Q424 713 439 706Q454 699 463 692L420 619Q394 668 364 690Q334 712 302 712Q252 712 223.5 681Q195 650 195 592V470Z" glyph-name="f_i" horiz-adv-x="519" unicode="&#64257;" /><glyph d="M357 431H195V90Q195 84 195.5 70.5Q196 57 197.5 42Q199 27 200 14.5Q201 2 203 0H79Q81 2 82.5 14.5Q84 27 85 42Q86 57 86.5 70.5Q87 84 87 90V431H28V436L87 471V504Q87 563 108.5 606Q130 649 163.5 676.5Q197 704 237.5 717.5Q278 731 316 731Q340 731 362.5 727.5Q385 724 404.5 718.5Q424 713 439 706Q454 699 463 692L420 619Q394 668 364 690Q334 712 302 712Q252 712 223.5 681Q195 650 195 592V470H465L464 -31Q464 -94 448 -136.5Q432 -179 407.5 -204.5Q383 -230 352.5 -240.5Q322 -251 292 -251Q246 -251 207.5 -239.5Q169 -228 149 -217L178 -135Q184 -145 193.5 -161Q203 -177 216 -192Q229 -207 244.5 -217.5Q260 -228 277 -228Q323 -228 339.5 -202Q356 -176 356 -131Z" glyph-name="f_j" horiz-adv-x="511" /><glyph d="M465 226V53Q465 42 467 23.5Q469 5 473 0H349Q352 5 354.5 23.5Q357 42 357 53V431H195V90Q195 84 195.5 70.5Q196 57 197.5 42Q199 27 200 14.5Q201 2 203 0H79Q81 2 82.5 14.5Q84 27 85 42Q86 57 86.5 70.5Q87 84 87 90V431H28V436L87 471V504Q87 563 108.5 606Q130 649 163.5 676.5Q197 704 237.5 717.5Q278 731 316 731Q361 731 400 719L465 731V253L683 470H747Q733 461 722 454Q711 447 699.5 438.5Q688 430 676 419Q664 408 648 393L533 292L718 75L787 2V0H647ZM357 470 358 682Q345 697 334 704.5Q323 712 302 712Q252 712 223.5 681Q195 650 195 592V470Z" glyph-name="f_k" horiz-adv-x="787" /><glyph d="M465 53Q465 42 467 23.5Q469 5 473 0H349Q352 5 354.5 23.5Q357 42 357 53V431H195V90Q195 84 195.5 70.5Q196 57 197.5 42Q199 27 200 14.5Q201 2 203 0H79Q81 2 82.5 14.5Q84 27 85 42Q86 57 86.5 70.5Q87 84 87 90V431H28V436L87 471V504Q87 563 108.5 606Q130 649 163.5 676.5Q197 704 237.5 717.5Q278 731 316 731Q361 731 400 719L465 731ZM357 470 358 682Q345 697 334 704.5Q323 712 302 712Q252 712 223.5 681Q195 650 195 592V470Z" glyph-name="f_l" horiz-adv-x="519" unicode="&#64258;" /><glyph d="M425 586Q415 589 400.5 591.5Q386 594 370 595.5Q354 597 340 598Q326 599 318 599H167L145 475Q191 463 242 442.5Q293 422 335.5 390.5Q378 359 405.5 316Q433 273 433 216Q433 170 415.5 128.5Q398 87 365.5 56Q333 25 286.5 7Q240 -11 181 -11Q131 -11 90.5 0.5Q50 12 9 38L44 108Q53 91 69.5 75Q86 59 105.5 46.5Q125 34 147 26.5Q169 19 190 19Q225 19 251.5 31Q278 43 295.5 64.5Q313 86 322 115Q331 144 331 178Q331 220 313.5 251.5Q296 283 265 307Q234 331 191.5 347.5Q149 364 100 376L155 684H441Z" glyph-name="five" horiz-adv-x="468" unicode="5" /><glyph d="M114 389H43V397L117 420L123 466Q131 518 145.5 561Q160 604 182.5 634.5Q205 665 236 681.5Q267 698 308 698Q332 698 349.5 695.5Q367 693 380.5 689Q394 685 404 679.5Q414 674 424 667L376 606Q370 618 363 631.5Q356 645 347.5 655.5Q339 666 328.5 673Q318 680 306 680Q285 680 271.5 666.5Q258 653 250 631Q242 609 237.5 580.5Q233 552 230 523L217 420H330L328 389H214L177 60Q164 -46 116.5 -101Q69 -156 -14 -156Q-43 -156 -65 -149Q-87 -142 -106 -131L-75 -70Q-69 -82 -62 -94Q-55 -106 -46.5 -116Q-38 -126 -30 -132Q-22 -138 -14 -138Q27 -138 44.5 -103Q62 -68 70 -1Z" glyph-name="florin" horiz-adv-x="383" unicode="&#402;" /><glyph d="M294 189H18V198Q59 249 104 311.5Q149 374 193 440Q237 506 278 569.5Q319 633 354 686Q359 685 372 683.5Q385 682 405 681V219Q435 219 456 220Q477 221 492 223.5Q507 226 518 230Q529 234 540 240V169Q531 173 520.5 176.5Q510 180 495 183Q480 186 458 187.5Q436 189 405 189V98Q405 91 406.5 75.5Q408 60 410 44Q412 28 414 15Q417 3 418 0H282Q283 2 285.5 15Q288 28 289 43L292 74Q294 90 294 98ZM294 219V539Q282 520 266 496.5Q250 473 232.5 446.5Q215 420 196.5 393Q178 366 161 341Q121 281 76 219Z" glyph-name="four" horiz-adv-x="558" unicode="4" /><glyph d="M-157 -23Q-131 20 -100 72L-38 177Q-7 230 20.5 277Q48 324 67 356Q85 387 112.5 434Q140 481 170.5 533Q201 585 231 637.5Q261 690 284 734L318 714Q292 671 260.5 618.5Q229 566 198 514.5Q167 463 139 416.5Q111 370 93 339Q74 307 46.5 259.5Q19 212 -11 159.5Q-41 107 -70.5 53.5Q-100 0 -123 -43Z" glyph-name="fraction" horiz-adv-x="167" unicode="&#8260;" /><glyph d="M34 317Q34 352 48 382.5Q62 413 88 435Q114 457 151 469.5Q188 482 235 482Q266 482 291 476Q316 470 339 461Q355 454 372.5 449Q390 444 405 444Q418 444 436 449.5Q454 455 471 462Q490 470 510 480L505 386Q494 392 479.5 398Q465 404 449.5 410Q434 416 418.5 421Q403 426 390 431L388 429Q403 418 418.5 390.5Q434 363 434 328Q434 250 381.5 204Q329 158 233 158Q204 158 177 164Q151 156 137.5 142.5Q124 129 124 113Q124 75 179 75H347Q429 75 464.5 45.5Q500 16 500 -48Q500 -92 481 -126Q462 -160 428 -183.5Q394 -207 347 -219.5Q300 -232 243 -232Q134 -232 74 -202.5Q14 -173 14 -120Q14 -99 25.5 -83.5Q37 -68 55 -56.5Q73 -45 95 -38Q117 -31 139 -27V-23Q124 -21 109 -14Q94 -7 82 4Q70 15 63 31.5Q56 48 56 70Q56 85 65 100Q74 115 88 128.5Q102 142 118.5 152Q135 162 151 167V169Q126 177 104.5 192.5Q83 208 67.5 227.5Q52 247 43 270Q34 293 34 317ZM179 -32Q157 -32 140.5 -40Q124 -48 113.5 -60Q103 -72 98 -87Q93 -102 93 -116Q93 -170 130 -189.5Q167 -209 243 -209Q340 -209 389.5 -176Q439 -143 439 -98Q439 -63 415 -47.5Q391 -32 339 -32ZM141 319Q141 278 146.5 251.5Q152 225 163.5 209.5Q175 194 193 187.5Q211 181 235 181Q259 181 276.5 187.5Q294 194 305.5 210Q317 226 322.5 252.5Q328 279 328 319Q328 395 302.5 427Q277 459 235 459Q214 459 196.5 452.5Q179 446 167 430Q155 414 148 387Q141 360 141 319Z" glyph-name="g" horiz-adv-x="510" unicode="g" /><glyph d="M393 404Q379 430 349.5 443.5Q320 457 288 457Q220 457 183.5 404.5Q147 352 147 252Q147 141 185 87.5Q223 34 294 34Q332 34 356 49Q380 64 393 78ZM498 45Q498 -25 476.5 -71.5Q455 -118 419 -145.5Q383 -173 336.5 -184.5Q290 -196 239 -196Q216 -196 190.5 -192.5Q165 -189 140.5 -184Q116 -179 93.5 -172Q71 -165 56 -157L82 -83Q113 -121 155 -147Q197 -173 237 -173Q323 -173 359.5 -138.5Q396 -104 396 -33V56H393Q381 35 345 16.5Q309 -2 255 -2Q210 -2 170 12.5Q130 27 100 56.5Q70 86 53 130Q36 174 36 234Q36 295 57.5 341Q79 387 114 418.5Q149 450 193 466Q237 482 282 482Q299 482 316.5 478Q334 474 349.5 467.5Q365 461 377.5 452.5Q390 444 397 436H400V470H506Q502 465 500 446.5Q498 428 498 417Z" glyph-name="g.alt" horiz-adv-x="552" /><glyph d="M37 320Q37 355 50.5 385Q64 415 89.5 436.5Q115 458 151.5 470Q188 482 235 482Q266 482 291 476.5Q316 471 339 462Q355 454 371 449.5Q387 445 402 445Q415 445 433 450Q451 455 468 462Q487 470 507 480L502 386Q492 392 478 398.5Q464 405 448.5 411Q433 417 417.5 422.5Q402 428 390 431L388 428Q404 417 417.5 391.5Q431 366 431 330Q431 253 380 205.5Q329 158 233 158Q202 158 175 164Q124 149 124 116Q124 98 137.5 86.5Q151 75 179 75H319Q402 75 442 45.5Q482 16 482 -48Q482 -136 424.5 -184Q367 -232 243 -232Q134 -232 74 -204Q14 -176 14 -123Q14 -103 24 -86.5Q34 -70 51.5 -57.5Q69 -45 91.5 -37Q114 -29 139 -26V-22Q124 -20 109 -13Q94 -6 82 5.5Q70 17 63 31.5Q56 46 56 64Q56 82 64 98.5Q72 115 85.5 128.5Q99 142 116 152Q133 162 152 167V169Q126 177 105 193Q84 209 69 229Q54 249 45.5 272.5Q37 296 37 320ZM174 -31Q151 -31 136 -39Q121 -47 111 -59.5Q101 -72 97 -87Q93 -102 93 -116Q93 -170 130 -189.5Q167 -209 243 -209Q298 -209 330 -201.5Q362 -194 379 -180.5Q396 -167 401 -148.5Q406 -130 406 -108Q406 -72 385 -51.5Q364 -31 313 -31ZM142 322Q142 281 147.5 254Q153 227 164 210.5Q175 194 193 187.5Q211 181 235 181Q283 181 305 211Q327 241 327 322Q327 398 302 428.5Q277 459 235 459Q214 459 197 453Q180 447 167.5 431.5Q155 416 148.5 389.5Q142 363 142 322ZM521 320Q521 355 534.5 385Q548 415 573.5 436.5Q599 458 635.5 470Q672 482 719 482Q750 482 775 476Q800 470 823 461Q839 453 855 448.5Q871 444 886 444Q899 444 917 449.5Q935 455 952 462Q971 470 991 481L986 389Q976 393 961.5 399Q947 405 931 411Q915 417 899 422.5Q883 428 871 431L869 428Q885 417 900 391.5Q915 366 915 330Q915 253 864 205.5Q813 158 717 158Q686 158 659 164Q633 156 620.5 140.5Q608 125 608 109Q608 75 663 75H812Q895 75 939.5 45.5Q984 16 984 -48Q984 -136 921 -184Q858 -232 727 -232Q680 -232 641 -225Q602 -218 574 -204Q546 -190 531 -169.5Q516 -149 516 -123Q516 -82 548.5 -58Q581 -34 632 -27V-23Q617 -21 600.5 -13.5Q584 -6 570.5 5Q557 16 548.5 31Q540 46 540 64Q540 84 548 101Q556 118 569.5 131Q583 144 600 153Q617 162 636 167V169Q610 177 589 193Q568 209 553 229Q538 249 529.5 272.5Q521 296 521 320ZM658 -32Q642 -32 630.5 -40Q619 -48 611 -60Q603 -72 599 -87Q595 -102 595 -116Q595 -169 630 -189Q665 -209 727 -209Q782 -209 817 -201.5Q852 -194 872 -180.5Q892 -167 900 -148.5Q908 -130 908 -108Q908 -72 887 -52Q866 -32 815 -32ZM626 322Q626 281 631.5 254Q637 227 648 211Q659 195 677 188.5Q695 182 719 182Q767 182 789 211.5Q811 241 811 322Q811 398 786 428.5Q761 459 719 459Q698 459 681 453Q664 447 651.5 431.5Q639 416 632.5 389.5Q626 363 626 322Z" glyph-name="g_g" horiz-adv-x="991" /><glyph d="M37 320Q37 355 50.5 385Q64 415 89.5 436.5Q115 458 151.5 470Q188 482 235 482Q266 482 291 476.5Q316 471 339 462Q355 454 371 449.5Q387 445 402 445Q415 445 433.5 450.5Q452 456 469 463Q489 471 510 481L505 387Q495 393 480.5 399Q466 405 450 411Q434 417 417.5 422.5Q401 428 387 433L385 430Q401 419 416 392.5Q431 366 431 330Q431 253 380 205.5Q329 158 233 158Q202 158 175 164Q124 149 124 116Q124 98 137.5 86.5Q151 75 179 75H319Q402 75 442 45.5Q482 16 482 -48Q482 -136 424.5 -184Q367 -232 243 -232Q134 -232 74 -204Q14 -176 14 -123Q14 -103 24 -86.5Q34 -70 51.5 -57.5Q69 -45 91.5 -37Q114 -29 139 -26V-22Q124 -20 109 -13Q94 -6 82 5.5Q70 17 63 31.5Q56 46 56 64Q56 82 64 98.5Q72 115 85 128.5Q98 142 115 152Q132 162 151 167V169Q125 177 104 193Q83 209 68 229Q53 249 45 272.5Q37 296 37 320ZM174 -31Q151 -31 136 -39Q121 -47 111 -59.5Q101 -72 97 -87Q93 -102 93 -116Q93 -169 130 -188.5Q167 -208 243 -208Q298 -208 331.5 -200.5Q365 -193 383.5 -180Q402 -167 408.5 -148.5Q415 -130 415 -108Q415 -72 389.5 -51.5Q364 -31 313 -31ZM142 322Q142 281 147.5 254Q153 227 164 210.5Q175 194 193 187.5Q211 181 235 181Q283 181 305 211Q327 241 327 322Q327 398 302 428.5Q277 459 235 459Q214 459 197 453Q180 447 167.5 431.5Q155 416 148.5 389.5Q142 363 142 322ZM512 320Q512 355 525.5 385Q539 415 564.5 436.5Q590 458 626.5 470Q663 482 710 482Q742 482 767 477Q792 472 815 464Q833 457 850.5 450.5Q868 444 883 444Q896 444 908.5 449Q921 454 932 460Q944 467 955 477V389Q934 400 909.5 410Q885 420 865 428L863 425Q878 414 892.5 390Q907 366 907 330Q907 253 855.5 205.5Q804 158 708 158Q678 158 650 164Q600 150 600 116Q600 98 613 86.5Q626 75 655 75H795Q836 75 869.5 69.5Q903 64 926.5 49.5Q950 35 963 11.5Q976 -12 976 -48Q976 -136 909 -184Q842 -232 719 -232Q610 -232 554.5 -204Q499 -176 499 -123Q499 -82 531.5 -57.5Q564 -33 615 -26V-22Q599 -20 584 -13Q569 -6 557.5 5.5Q546 17 539 31.5Q532 46 532 64Q532 82 539.5 98.5Q547 115 560 128.5Q573 142 590 152Q607 162 625 167V169Q600 177 579 193Q558 209 543 229Q528 249 520 272.5Q512 296 512 320ZM650 -31Q627 -31 613 -39Q599 -47 591.5 -59.5Q584 -72 581 -87Q578 -102 578 -116Q578 -143 585.5 -160.5Q593 -178 610 -188.5Q627 -199 654 -203.5Q681 -208 719 -208Q774 -208 810.5 -200.5Q847 -193 869 -180Q891 -167 900 -148.5Q909 -130 909 -108Q909 -72 883.5 -51.5Q858 -31 807 -31ZM617 322Q617 281 622.5 254Q628 227 639.5 210.5Q651 194 668.5 187.5Q686 181 710 181Q734 181 751.5 188Q769 195 780.5 211Q792 227 797 254Q802 281 802 322Q802 398 777 428.5Q752 459 710 459Q689 459 672 453Q655 447 643 431.5Q631 416 624 389.5Q617 363 617 322ZM1156 -24 1014 363Q1011 372 1005 386.5Q999 401 992 417Q985 433 978 447Q971 461 966 470H1099Q1104 444 1111.5 416Q1119 388 1124 371L1212 104L1322 391Q1325 398 1328 408Q1331 418 1333.5 429Q1336 440 1338.5 450.5Q1341 461 1342 470H1402Q1391 455 1381 431.5Q1371 408 1361 384L1200 -6Q1176 -65 1154 -107Q1132 -149 1108.5 -176.5Q1085 -204 1058.5 -217Q1032 -230 998 -230Q983 -230 965 -226Q947 -222 932 -214L957 -157Q969 -174 983.5 -185.5Q998 -197 1021 -197Q1053 -197 1080.5 -166Q1108 -135 1134 -75Z" glyph-name="g_g_y" horiz-adv-x="1387" /><glyph d="M37 320Q37 355 50.5 385Q64 415 89.5 436.5Q115 458 151.5 470Q188 482 235 482Q266 482 289.5 477Q313 472 336 464Q354 457 373 451.5Q392 446 408 446Q421 446 434 450.5Q447 455 457 461Q468 468 479 477V389Q459 400 434 411Q409 422 389 430L387 427Q403 416 417 391Q431 366 431 330Q431 253 380 205.5Q329 158 233 158Q202 158 175 164Q124 149 124 116Q124 98 137.5 86.5Q151 75 179 75H319Q402 75 451 45.5Q500 16 500 -48Q500 -136 433.5 -184Q367 -232 243 -232Q134 -232 74 -204Q14 -176 14 -123Q14 -103 24 -86.5Q34 -70 51.5 -57.5Q69 -45 91.5 -37Q114 -29 139 -26V-22Q124 -20 109 -13Q94 -6 82 5.5Q70 17 63 31.5Q56 46 56 64Q56 82 64.5 98.5Q73 115 86.5 128.5Q100 142 117.5 152Q135 162 154 167V169Q128 177 107 193Q86 209 70 229Q54 249 45.5 272.5Q37 296 37 320ZM174 -31Q151 -31 136 -39Q121 -47 111 -59.5Q101 -72 97 -87Q93 -102 93 -116Q93 -169 130 -188.5Q167 -208 243 -208Q339 -208 381.5 -180Q424 -152 424 -108Q424 -72 394 -51.5Q364 -31 313 -31ZM142 322Q142 281 147.5 254Q153 227 164 210.5Q175 194 193 187.5Q211 181 235 181Q283 181 305 211Q327 241 327 322Q327 398 302 428.5Q277 459 235 459Q214 459 197 453Q180 447 167.5 431.5Q155 416 148.5 389.5Q142 363 142 322ZM681 -24 538 363Q535 372 529 387Q523 402 516 418Q509 434 502 448.5Q495 463 490 472H624Q628 446 635.5 417Q643 388 649 371L736 104L846 391Q849 398 852 408Q855 418 858 429.5Q861 441 863 452Q865 463 867 472H926Q915 457 905 432.5Q895 408 885 384L724 -6Q700 -65 678.5 -107Q657 -149 633.5 -176.5Q610 -204 583.5 -217Q557 -230 523 -230Q490 -230 456 -214L481 -157Q492 -178 508 -186Q524 -194 547 -194Q581 -194 607 -164.5Q633 -135 659 -75Z" glyph-name="g_y" horiz-adv-x="911" /><glyph d="M500 612Q500 586 490 567Q480 548 464.5 532Q449 516 431 501.5Q413 487 397 471Q373 448 357.5 429Q342 410 342 380Q342 364 349 353.5Q356 343 368.5 333.5Q381 324 399 313.5Q417 303 439 287Q465 268 486 254Q507 240 521.5 225Q536 210 544 191Q552 172 552 144Q552 107 537 78.5Q522 50 497 30Q472 10 440 -0.5Q408 -11 374 -11Q338 -11 297 -1.5Q256 8 230 22L261 92Q271 70 285.5 54.5Q300 39 315 29.5Q330 20 345 15.5Q360 11 372 11Q420 11 446.5 29Q473 47 473 89Q473 108 465.5 121.5Q458 135 443.5 147Q429 159 408 171.5Q387 184 360 202Q343 214 327.5 227Q312 240 300.5 255Q289 270 282 288Q275 306 275 329Q275 354 286 375.5Q297 397 312 414.5Q327 432 342.5 446.5Q358 461 367 472Q381 490 390.5 504.5Q400 519 406 533.5Q412 548 414.5 564Q417 580 417 603Q417 642 406.5 664Q396 686 380 696.5Q364 707 345.5 709.5Q327 712 311 712Q262 712 228.5 677.5Q195 643 195 574V99Q195 94 195.5 78.5Q196 63 197.5 46.5Q199 30 200 16Q201 3 202 0H79Q81 2 82.5 16Q84 30 85 46.5Q86 63 86.5 78.5Q87 94 87 99V433H28V439L87 474V504Q87 563 108 606Q129 649 161 676.5Q193 704 232.5 717.5Q272 731 310 731Q401 731 450.5 703Q500 675 500 612Z" glyph-name="germandbls" horiz-adv-x="580" unicode="&#223;" /><glyph d="M189 524 96 683 163 703 210 534Z" glyph-name="grave" horiz-adv-x="368" unicode="`" /><glyph d="M252 728 92 809 135 878 270 749Z" glyph-name="grave.uc" horiz-adv-x="368" /><glyph d="M78 110 408 271 78 432V470L460 286V257L78 73Z" glyph-name="greater" horiz-adv-x="511" unicode="&gt;" /><glyph d="M32 265 214 421 222 416 121 265V260L222 109L214 102L32 260ZM191 265 374 421 379 416 281 265V260L379 109L374 102L191 260Z" glyph-name="guillemotleft" horiz-adv-x="416" unicode="&#171;" /><glyph d="M384 259 201 102 194 108 294 259V263L194 415L201 421L384 263ZM224 259 42 102 37 108 135 259V263L37 415L42 421L224 263Z" glyph-name="guillemotright" horiz-adv-x="416" unicode="&#187;" /><glyph d="M32 265 214 421 222 416 121 265V260L222 109L214 102L32 260Z" glyph-name="guilsinglleft" horiz-adv-x="259" unicode="&#8249;" /><glyph d="M226 259 44 102 37 108 137 259V263L37 415L44 421L226 263Z" glyph-name="guilsinglright" horiz-adv-x="259" unicode="&#8250;" /><glyph d="M56 652Q56 658 55 666.5Q54 675 52.5 684Q51 693 49.5 700.5Q48 708 46 710L162 731V420H164Q174 428 184 435Q194 442 208 450Q233 464 263 473Q293 482 316 482Q361 482 390.5 472.5Q420 463 437 443.5Q454 424 461 394Q468 364 468 322V72Q468 66 468.5 55Q469 44 470.5 32.5Q472 21 473.5 11.5Q475 2 477 0H352Q354 2 355.5 11.5Q357 21 358.5 32.5Q360 44 360.5 55Q361 66 361 72V326Q361 383 341.5 409Q322 435 271 435Q245 435 215.5 424.5Q186 414 163 397V72Q163 66 163.5 55Q164 44 165.5 32.5Q167 21 168 11.5Q169 2 171 0H47Q49 2 50.5 11.5Q52 21 53 32.5Q54 44 54.5 55Q55 66 55 72Z" glyph-name="h" horiz-adv-x="518" unicode="h" /><glyph d="M98 534 154 721 212 701 119 524ZM217 534 273 721 331 701 238 524Z" glyph-name="hungarumlaut" horiz-adv-x="368" unicode="&#733;" /><glyph d="M28 749 162 878 201 827 41 728ZM175 749 309 878 349 827 189 728Z" glyph-name="hungarumlaut.uc" horiz-adv-x="368" /><glyph d="M64 282H271L262 212H55Z" glyph-name="hyphen" horiz-adv-x="327" unicode="-" /><glyph d="M48 641Q48 665 65.5 683Q83 701 109 701Q134 701 151.5 683Q169 665 169 641Q169 616 151.5 598.5Q134 581 109 581Q83 581 65.5 598.5Q48 616 48 641ZM163 53Q163 42 165.5 23.5Q168 5 171 0H48Q51 5 53.5 23.5Q56 42 56 53V402Q56 408 55 416.5Q54 425 52.5 434Q51 443 49.5 450.5Q48 458 46 460L163 481Z" glyph-name="i" horiz-adv-x="217" unicode="i" /><glyph d="M76 534 123 703 190 683 97 524ZM163 53Q163 42 165.5 23.5Q168 5 171 0H47Q51 5 53 23.5Q55 42 55 53L56 405Q56 411 55 419.5Q54 428 52.5 437Q51 446 49.5 453Q48 460 46 463L163 484Z" glyph-name="iacute" horiz-adv-x="217" unicode="&#237;" /><glyph d="M237 552 219 538 111 638H109L1 538L-17 552L101 706H119ZM163 53Q163 42 165.5 23.5Q168 5 171 0H47Q51 5 53 23.5Q55 42 55 53L56 405Q56 411 55 419.5Q54 428 52.5 437Q51 446 49.5 453Q48 460 46 463L163 484Z" glyph-name="icircumflex" horiz-adv-x="217" unicode="&#238;" /><glyph d="M-38 612Q-38 632 -23 647.5Q-8 663 12 663Q32 663 48 647.5Q64 632 64 612Q64 591 48 576Q32 561 12 561Q-8 561 -23 576Q-38 591 -38 612ZM154 612Q154 632 169.5 647.5Q185 663 205 663Q225 663 240.5 647.5Q256 632 256 612Q256 591 240.5 576Q225 561 205 561Q185 561 169.5 576Q154 591 154 612ZM163 53Q163 42 165.5 23.5Q168 5 171 0H47Q51 5 53 23.5Q55 42 55 53L56 405Q56 411 55 419.5Q54 428 52.5 437Q51 446 49.5 453Q48 460 46 463L163 484Z" glyph-name="idieresis" horiz-adv-x="217" unicode="&#239;" /><glyph d="M163 53Q163 42 165.5 23.5Q168 5 171 0H47Q51 5 53 23.5Q55 42 55 53L56 405Q56 411 55 419.5Q54 428 52.5 437Q51 446 49.5 453Q48 460 46 463L163 484ZM127 524 34 683 101 703 148 534Z" glyph-name="igrave" horiz-adv-x="217" unicode="&#236;" /><glyph d="M61 402Q61 408 60 416.5Q59 425 57.5 434Q56 443 54 450.5Q52 458 51 460L167 481V-4Q167 -67 149.5 -110.5Q132 -154 105 -181Q78 -208 44 -220.5Q10 -233 -23 -233Q-69 -233 -96.5 -227Q-124 -221 -147 -213L-123 -131Q-116 -143 -105 -156.5Q-94 -170 -80.5 -181Q-67 -192 -51.5 -199.5Q-36 -207 -19 -207Q26 -207 43.5 -182Q61 -157 61 -112ZM52 641Q52 665 69.5 683Q87 701 113 701Q138 701 156 683Q174 665 174 641Q174 616 156 598.5Q138 581 113 581Q87 581 69.5 598.5Q52 616 52 641Z" glyph-name="j" horiz-adv-x="220" unicode="j" /><glyph d="M163 53Q163 42 165.5 23.5Q168 5 171 0H47Q51 5 53 23.5Q55 42 55 53V652Q55 658 54.5 666.5Q54 675 52.5 684Q51 693 49.5 700.5Q48 708 46 710L163 731ZM394 470H458Q444 461 433 454Q422 447 410.5 438.5Q399 430 387 419Q375 408 359 393L264 295L429 75Q440 58 452 45Q464 32 475 22Q486 11 498 2V0H358L178 246Z" glyph-name="k" horiz-adv-x="498" unicode="k" /><glyph d="M163 53Q163 42 165.5 23.5Q168 5 171 0H48Q51 5 53.5 23.5Q56 42 56 53V652Q56 658 55 666.5Q54 675 52.5 684Q51 693 49.5 700.5Q48 708 46 710L163 731Z" glyph-name="l" horiz-adv-x="217" unicode="l" /><glyph d="M432 73 51 257V286L432 470V432L103 271L432 110Z" glyph-name="less" horiz-adv-x="511" unicode="&lt;" /><glyph d="M77 349 78 654Q78 660 77 668.5Q76 677 74.5 686Q73 695 71.5 702.5Q70 710 68 712L185 733V410L259 453L277 425L185 372V53Q185 42 187.5 23.5Q190 5 193 0H69Q73 5 75 23.5Q77 42 77 53V310L9 270L-9 299Z" glyph-name="lslash" horiz-adv-x="277" unicode="&#322;" /><glyph d="M56 403Q56 409 55 417.5Q54 426 52.5 435Q51 444 49.5 451Q48 458 46 461L162 482V420H164Q174 428 184 435Q194 442 208 450Q233 464 263 473Q293 482 316 482Q376 482 408.5 465.5Q441 449 455 413V414H457Q467 422 483 432Q499 442 512 450Q538 464 567.5 473Q597 482 620 482Q665 482 695 472.5Q725 463 742 443.5Q759 424 766 394Q773 364 773 322V53Q773 42 775 23.5Q777 5 781 0H657Q660 5 662.5 23.5Q665 42 665 53V326Q665 383 646 409Q627 435 576 435Q550 435 519 423.5Q488 412 462 393Q468 363 468 322V53Q468 42 470.5 23.5Q473 5 477 0H352Q356 5 358.5 23.5Q361 42 361 53V326Q361 383 341.5 409Q322 435 271 435Q245 435 215.5 424.5Q186 414 163 397V53Q163 42 165.5 23.5Q168 5 171 0H48Q51 5 53.5 23Q56 41 56 53Z" glyph-name="m" horiz-adv-x="822" unicode="m" /><glyph d="M310 634 304 588H58L64 634Z" glyph-name="macron" horiz-adv-x="368" unicode="&#175;" /><glyph d="M328 790 322 753H40L46 790Z" glyph-name="macron.uc" horiz-adv-x="368" /><glyph d="M37 255V288H474V255Z" glyph-name="minus" horiz-adv-x="511" unicode="&#8722;" /><glyph d="M256 291 431 466 455 443 280 268 455 92 431 69 256 244 87 75 64 99 233 268 58 443 81 466Z" glyph-name="multiply" horiz-adv-x="511" unicode="&#215;" /><glyph d="M56 402Q56 408 55 416.5Q54 425 52.5 434Q51 443 49.5 450.5Q48 458 46 460L162 481V419H164Q174 427 184 434Q194 441 208 449Q233 463 263 472Q293 481 316 481Q361 481 390.5 471.5Q420 462 437 442.5Q454 423 461 393Q468 363 468 321V53Q468 42 470.5 23.5Q473 5 477 0H352Q356 5 358.5 23.5Q361 42 361 53V325Q361 382 341.5 408Q322 434 271 434Q245 434 215.5 424Q186 414 163 397V53Q163 42 165.5 23.5Q168 5 171 0H48Q51 5 53.5 23.5Q56 42 56 53Z" glyph-name="n" horiz-adv-x="518" unicode="n" /><glyph d="M253 262Q208 262 169.5 275.5Q131 289 103 316Q75 343 59 382.5Q43 422 43 474Q43 523 62 564Q81 605 113 634.5Q145 664 187.5 680Q230 696 278 696Q327 696 371 677Q415 658 448 620.5Q481 583 500.5 528.5Q520 474 520 404Q520 292 496.5 213.5Q473 135 430 85Q387 35 327.5 12Q268 -11 195 -11Q178 -11 158.5 -9Q139 -7 119.5 -2.5Q100 2 82.5 8.5Q65 15 52 24L70 101Q79 86 93 71.5Q107 57 124 45Q141 33 160.5 25.5Q180 18 200 18Q261 18 299.5 44Q338 70 360.5 112Q383 154 392.5 206Q402 258 405 310Q387 290 346.5 276Q306 262 253 262ZM407 440Q407 560 375.5 613.5Q344 667 278 667Q244 667 221 652Q198 637 183.5 611Q169 585 162.5 549.5Q156 514 156 472Q156 425 166.5 393Q177 361 195 341Q213 321 238 312Q263 303 292 303Q332 303 359.5 314.5Q387 326 404 339Q405 366 406 391.5Q407 417 407 440Z" glyph-name="nine" horiz-adv-x="557" unicode="9" /><glyph glyph-name="nonmarkingreturn" horiz-adv-x="202" unicode="" /><glyph d="M56 402Q56 408 55 416.5Q54 425 52.5 434Q51 443 49.5 450.5Q48 458 46 460L162 481V419H164Q174 427 184 434Q194 441 208 449Q233 463 263 472Q293 481 316 481Q361 481 390.5 471.5Q420 462 437 442.5Q454 423 461 393Q468 363 468 321V53Q468 42 470.5 23.5Q473 5 477 0H352Q356 5 358.5 23.5Q361 42 361 53V325Q361 382 341.5 408Q322 434 271 434Q245 434 215.5 424Q186 414 163 397V53Q163 42 165.5 23.5Q168 5 171 0H48Q51 5 53.5 23.5Q56 42 56 53ZM235 613Q214 624 199.5 631Q185 638 166 638Q151 638 143 622.5Q135 607 146 583L108 593Q114 640 141.5 661.5Q169 683 207 683Q228 683 246 675.5Q264 668 285 657Q307 646 322.5 637Q338 628 352 628Q367 628 373.5 643.5Q380 659 369 683L406 673Q401 626 380.5 604.5Q360 583 322 583Q300 583 278.5 592.5Q257 602 235 613Z" glyph-name="ntilde" horiz-adv-x="518" unicode="&#241;" /><glyph d="M444 684H477Q469 643 463 612Q457 581 452 554.5Q447 528 442.5 503Q438 478 433 448H484Q507 448 527 448.5Q547 449 566 449.5Q585 450 608 450V425H516Q474 425 429 426L414 340L398 257H448Q471 257 491 257.5Q511 258 530 258.5Q549 259 571 259V234H481Q440 234 395 235Q388 197 383.5 169Q379 141 374.5 115Q370 89 366 62Q362 35 356 0H324Q328 24 332.5 48Q337 72 342 99L353 160Q359 193 367 235H201Q195 197 190 169Q185 141 181 115Q177 89 173 62Q169 35 163 0H131Q135 24 139.5 48Q144 72 149 99L160 160Q166 193 174 235H9V258Q45 257 88 257H178L193 342L208 426H46V449Q81 448 123 448H212L251 684H283Q275 643 269.5 612Q264 581 259 554.5Q254 528 249.5 503Q245 478 240 448H405ZM386 342 401 426H236Q233 407 229 386.5Q225 366 221 340L205 257H371Z" glyph-name="numbersign" horiz-adv-x="617" unicode="#" /><glyph d="M272 13Q310 13 336 29.5Q362 46 377.5 76Q393 106 399.5 147.5Q406 189 406 239Q406 352 372.5 405Q339 458 272 458Q231 458 205.5 441.5Q180 425 165.5 395Q151 365 145.5 323.5Q140 282 140 233Q140 120 175.5 66.5Q211 13 272 13ZM272 482Q315 482 358.5 466.5Q402 451 437.5 420Q473 389 495.5 343Q518 297 518 237Q518 181 497.5 135.5Q477 90 443 57.5Q409 25 364.5 7Q320 -11 272 -11Q230 -11 186.5 5Q143 21 107.5 52Q72 83 50 129Q28 175 28 235Q28 291 48.5 336.5Q69 382 102.5 414.5Q136 447 180 464.5Q224 482 272 482Z" glyph-name="o" horiz-adv-x="546" unicode="o" /><glyph d="M272 13Q310 13 336 29.5Q362 46 377.5 76Q393 106 399.5 147.5Q406 189 406 239Q406 352 372.5 405Q339 458 272 458Q231 458 205.5 441.5Q180 425 165.5 395Q151 365 145.5 323.5Q140 282 140 233Q140 120 175.5 66.5Q211 13 272 13ZM272 482Q315 482 358.5 466.5Q402 451 437.5 420Q473 389 495.5 343Q518 297 518 237Q518 181 497.5 135.5Q477 90 443 57.5Q409 25 364.5 7Q320 -11 272 -11Q230 -11 186.5 5Q143 21 107.5 52Q72 83 50 129Q28 175 28 235Q28 291 48.5 336.5Q69 382 102.5 414.5Q136 447 180 464.5Q224 482 272 482ZM229 534 276 703 343 683 250 524Z" glyph-name="oacute" horiz-adv-x="546" unicode="&#243;" /><glyph d="M272 13Q310 13 336 29.5Q362 46 377.5 76Q393 106 399.5 147.5Q406 189 406 239Q406 352 372.5 405Q339 458 272 458Q231 458 205.5 441.5Q180 425 165.5 395Q151 365 145.5 323.5Q140 282 140 233Q140 120 175.5 66.5Q211 13 272 13ZM272 482Q315 482 358.5 466.5Q402 451 437.5 420Q473 389 495.5 343Q518 297 518 237Q518 181 497.5 135.5Q477 90 443 57.5Q409 25 364.5 7Q320 -11 272 -11Q230 -11 186.5 5Q143 21 107.5 52Q72 83 50 129Q28 175 28 235Q28 291 48.5 336.5Q69 382 102.5 414.5Q136 447 180 464.5Q224 482 272 482ZM399 552 381 538 273 638H271L163 538L145 552L263 706H281Z" glyph-name="ocircumflex" horiz-adv-x="546" unicode="&#244;" /><glyph d="M125 612Q125 632 140 647.5Q155 663 175 663Q195 663 211 647.5Q227 632 227 612Q227 591 211 576Q195 561 175 561Q155 561 140 576Q125 591 125 612ZM317 612Q317 632 332.5 647.5Q348 663 368 663Q388 663 403.5 647.5Q419 632 419 612Q419 591 403.5 576Q388 561 368 561Q348 561 332.5 576Q317 591 317 612ZM272 13Q310 13 336 29.5Q362 46 377.5 76Q393 106 399.5 147.5Q406 189 406 239Q406 352 372.5 405Q339 458 272 458Q231 458 205.5 441.5Q180 425 165.5 395Q151 365 145.5 323.5Q140 282 140 233Q140 120 175.5 66.5Q211 13 272 13ZM272 482Q315 482 358.5 466.5Q402 451 437.5 420Q473 389 495.5 343Q518 297 518 237Q518 181 497.5 135.5Q477 90 443 57.5Q409 25 364.5 7Q320 -11 272 -11Q230 -11 186.5 5Q143 21 107.5 52Q72 83 50 129Q28 175 28 235Q28 291 48.5 336.5Q69 382 102.5 414.5Q136 447 180 464.5Q224 482 272 482Z" glyph-name="odieresis" horiz-adv-x="546" unicode="&#246;" /><glyph d="M272 484Q323 484 375 461.5Q427 439 464 394H468Q501 437 548 460.5Q595 484 647 484Q695 484 729 467.5Q763 451 785 425Q807 399 817.5 367Q828 335 828 305H529Q528 296 528 286V269Q528 210 543 170.5Q558 131 581.5 107Q605 83 633.5 73Q662 63 689 63Q719 63 742.5 68.5Q766 74 784 82.5Q802 91 814.5 101.5Q827 112 836 122L843 117Q836 100 821.5 78Q807 56 783 36Q759 16 725.5 2.5Q692 -11 648 -11Q590 -11 541.5 10Q493 31 462 75H460Q425 33 376 11Q327 -11 272 -11Q230 -11 186.5 5Q143 21 107.5 52Q72 83 50 129Q28 175 28 235Q28 291 48.5 337Q69 383 102.5 415.5Q136 448 180 466Q224 484 272 484ZM272 13Q310 13 336 29.5Q362 46 377.5 76Q393 106 399.5 147.5Q406 189 406 239Q406 352 372.5 406Q339 460 272 460Q231 460 205.5 443Q180 426 165.5 396Q151 366 145.5 324Q140 282 140 233Q140 120 175.5 66.5Q211 13 272 13ZM645 464Q612 464 591 451.5Q570 439 557 418.5Q544 398 538 372.5Q532 347 530 322L723 329Q723 350 721 374Q719 398 711 418Q703 438 687.5 451Q672 464 645 464Z" glyph-name="oe" horiz-adv-x="866" unicode="&#339;" /><glyph d="M230 8Q214 -11 197 -36.5Q180 -62 180 -97Q180 -160 237 -160Q254 -160 269 -146.5Q284 -133 291 -116L309 -155Q297 -168 272.5 -175Q248 -182 216 -182Q162 -182 136 -158.5Q110 -135 110 -108Q110 -88 122.5 -70Q135 -52 152.5 -37Q170 -22 187.5 -10.5Q205 1 215 8Z" glyph-name="ogonek" horiz-adv-x="368" unicode="&#731;" /><glyph d="M272 13Q310 13 336 29.5Q362 46 377.5 76Q393 106 399.5 147.5Q406 189 406 239Q406 352 372.5 405Q339 458 272 458Q231 458 205.5 441.5Q180 425 165.5 395Q151 365 145.5 323.5Q140 282 140 233Q140 120 175.5 66.5Q211 13 272 13ZM272 482Q315 482 358.5 466.5Q402 451 437.5 420Q473 389 495.5 343Q518 297 518 237Q518 181 497.5 135.5Q477 90 443 57.5Q409 25 364.5 7Q320 -11 272 -11Q230 -11 186.5 5Q143 21 107.5 52Q72 83 50 129Q28 175 28 235Q28 291 48.5 336.5Q69 382 102.5 414.5Q136 447 180 464.5Q224 482 272 482ZM281 524 188 683 255 703 302 534Z" glyph-name="ograve" horiz-adv-x="546" unicode="&#242;" /><glyph d="M247 117Q247 110 248.5 91.5Q250 73 252.5 53.5Q255 34 257 18Q259 2 261 0H124Q126 2 128.5 17.5Q131 33 133 52.5Q135 72 136.5 90.5Q138 109 138 117V604Q129 602 114 600.5Q99 599 83 597Q67 595 52.5 594Q38 593 30 593V625Q85 640 140.5 659Q196 678 236 695L247 684Z" glyph-name="one" horiz-adv-x="318" unicode="1" /><glyph d="M32 658Q53 674 82 684.5Q111 695 149 695Q206 695 227 672Q248 649 248 604V456Q248 446 254 440.5Q260 435 268 435Q276 435 283.5 437.5Q291 440 295 445L298 443Q293 428 278.5 415.5Q264 403 237 403Q214 403 199.5 414.5Q185 426 180 445H178Q168 429 147 416Q126 403 99 403Q70 403 46.5 421Q23 439 23 474Q23 493 28 505.5Q33 518 40.5 525Q48 532 57 535.5Q66 539 74 542Q99 551 128 558.5Q157 566 177 572V628Q177 653 167.5 664.5Q158 676 132 676Q110 676 90.5 659Q71 642 57 616ZM176 457Q177 475 177 503V558L121 542Q107 537 99.5 523.5Q92 510 92 482Q92 453 103.5 442Q115 431 132 431Q146 431 157.5 439Q169 447 176 457Z" glyph-name="ordfeminine" horiz-adv-x="315" unicode="&#170;" /><glyph d="M175 695Q201 695 227 685.5Q253 676 273.5 658Q294 640 307 613Q320 586 320 550Q320 518 308.5 491Q297 464 277.5 444.5Q258 425 231.5 414Q205 403 175 403Q148 403 121.5 412.5Q95 422 75 441Q55 460 42.5 486.5Q30 513 30 548Q30 581 42 608Q54 635 74 654.5Q94 674 120 684.5Q146 695 175 695ZM175 417Q216 417 230.5 452Q245 487 245 552Q245 623 228.5 652.5Q212 682 175 682Q140 682 124 646.5Q108 611 108 546Q108 474 124.5 445.5Q141 417 175 417Z" glyph-name="ordmasculine" horiz-adv-x="350" unicode="&#186;" /><glyph d="M114 -71 154 15Q128 28 105 47.5Q82 67 65 94Q48 121 38 156Q28 191 28 235Q28 298 48.5 344.5Q69 391 102.5 422Q136 453 180 468.5Q224 484 272 484Q317 484 363 468L406 559L442 545L399 454Q449 427 483.5 374.5Q518 322 518 237Q518 174 497.5 127.5Q477 81 443 50.5Q409 20 364.5 4.5Q320 -11 272 -11Q234 -11 192 0L152 -87ZM140 233Q140 175 149.5 133.5Q159 92 177 64L348 434Q319 460 272 460Q231 460 205.5 443Q180 426 165.5 396Q151 366 145.5 324Q140 282 140 233ZM272 13Q310 13 336 29.5Q362 46 377.5 76Q393 106 399.5 147.5Q406 189 406 239Q406 345 375 400L207 32Q233 13 272 13Z" glyph-name="oslash" horiz-adv-x="546" unicode="&#248;" /><glyph d="M272 13Q310 13 336 29.5Q362 46 377.5 76Q393 106 399.5 147.5Q406 189 406 239Q406 352 372.5 405Q339 458 272 458Q231 458 205.5 441.5Q180 425 165.5 395Q151 365 145.5 323.5Q140 282 140 233Q140 120 175.5 66.5Q211 13 272 13ZM272 482Q315 482 358.5 466.5Q402 451 437.5 420Q473 389 495.5 343Q518 297 518 237Q518 181 497.5 135.5Q477 90 443 57.5Q409 25 364.5 7Q320 -11 272 -11Q230 -11 186.5 5Q143 21 107.5 52Q72 83 50 129Q28 175 28 235Q28 291 48.5 336.5Q69 382 102.5 414.5Q136 447 180 464.5Q224 482 272 482ZM250 613Q229 624 214.5 631Q200 638 181 638Q166 638 158 622.5Q150 607 161 583L123 593Q129 640 156.5 661.5Q184 683 222 683Q243 683 261 675.5Q279 668 300 657Q322 646 337.5 637Q353 628 367 628Q382 628 388.5 643.5Q395 659 384 683L421 673Q416 626 395.5 604.5Q375 583 337 583Q315 583 293.5 592.5Q272 602 250 613Z" glyph-name="otilde" horiz-adv-x="546" unicode="&#245;" /><glyph d="M56 403Q56 409 54.5 417.5Q53 426 50.5 435Q48 444 45.5 451Q43 458 41 461L163 482V423H164Q191 449 228.5 465.5Q266 482 311 482Q350 482 389 474.5Q428 467 460 443Q492 419 512 374.5Q532 330 532 257Q532 188 509 137.5Q486 87 449 54Q412 21 364.5 5Q317 -11 269 -11Q236 -11 209.5 -7Q183 -3 164 5V-178Q164 -184 164.5 -192Q165 -200 166 -208Q167 -216 168.5 -222.5Q170 -229 172 -232H48Q49 -229 50.5 -222.5Q52 -216 53.5 -208Q55 -200 55.5 -192Q56 -184 56 -178ZM164 69Q180 42 208 25.5Q236 9 264 9Q298 9 326.5 20.5Q355 32 376 60Q397 88 408.5 133Q420 178 420 246Q420 349 384.5 395.5Q349 442 272 442Q246 442 215 431Q184 420 164 402Z" glyph-name="p" horiz-adv-x="559" unicode="p" /><glyph d="M398 0Q400 101 399.5 179.5Q399 258 399 331V474Q399 552 397 649H302Q301 550 300.5 473.5Q300 397 300 331Q300 258 299.5 178.5Q299 99 301 0H259V320Q159 320 101.5 368Q44 416 44 500Q44 550 63 585Q82 620 114.5 642Q147 664 189 674Q231 684 276 684H528V648Q515 648 491.5 648.5Q468 649 440 649Q439 550 438.5 473.5Q438 397 438 331Q438 258 437.5 178.5Q437 99 439 0Z" glyph-name="paragraph" horiz-adv-x="546" unicode="&#182;" /><glyph d="M51 281Q51 362 71.5 428Q92 494 124.5 547Q157 600 198 642Q239 684 280 716L290 703Q253 669 226 623.5Q199 578 181.5 523.5Q164 469 155.5 407.5Q147 346 147 281Q147 215 155.5 153.5Q164 92 181.5 37.5Q199 -17 226 -62.5Q253 -108 290 -142L280 -155Q238 -123 197 -81Q156 -39 123.5 14Q91 67 71 133.5Q51 200 51 281Z" glyph-name="parenleft" horiz-adv-x="299" unicode="(" /><glyph d="M248 281Q248 200 228 133.5Q208 67 175.5 14Q143 -39 102 -81Q61 -123 19 -155L9 -142Q46 -108 73 -62.5Q100 -17 117.5 37.5Q135 92 143.5 153.5Q152 215 152 281Q152 346 143.5 407.5Q135 469 117.5 523.5Q100 578 73 623.5Q46 669 9 703L19 716Q60 684 101 642Q142 600 174.5 547Q207 494 227.5 428Q248 362 248 281Z" glyph-name="parenright" horiz-adv-x="299" unicode=")" /><glyph d="M585 365Q618 365 647 351Q676 337 697 312.5Q718 288 730 255Q742 222 742 185Q742 142 730.5 106Q719 70 698.5 44Q678 18 650 3.5Q622 -11 589 -11Q556 -11 527 3Q498 17 477 41.5Q456 66 444 99Q432 132 432 169Q432 212 443.5 248Q455 284 475.5 310Q496 336 524 350.5Q552 365 585 365ZM589 11Q611 11 625 23Q639 35 647 57Q655 79 658 109.5Q661 140 661 178Q661 257 645 300Q629 343 585 343Q563 343 549 331Q535 319 526.5 297Q518 275 515 244Q512 213 512 176Q512 96 528 53.5Q544 11 589 11ZM213 696Q246 696 274.5 682Q303 668 324 643.5Q345 619 357 586Q369 553 369 516Q369 473 357.5 437Q346 401 326 375Q306 349 277.5 334.5Q249 320 216 320Q183 320 154.5 334Q126 348 105 372.5Q84 397 72 430Q60 463 60 500Q60 543 71.5 579Q83 615 103 641Q123 667 151.5 681.5Q180 696 213 696ZM216 342Q259 342 274 388Q289 434 289 510Q289 589 273 631.5Q257 674 213 674Q191 674 177 662Q163 650 154.5 628Q146 606 143 575Q140 544 140 507Q140 427 156 384.5Q172 342 216 342ZM620 696Q590 645 561.5 594.5Q533 544 506.5 497Q480 450 457 408.5Q434 367 416 335Q398 303 374 261.5Q350 220 322 172Q294 124 264 71Q234 18 205 -36L175 -20Q247 104 301.5 194.5Q356 285 391 349Q426 413 477 507Q528 601 591 712Z" glyph-name="percent" horiz-adv-x="801" unicode="%" /><glyph d="M46 55Q46 80 64.5 99Q83 118 108 118Q133 118 151 99Q169 80 169 55Q169 30 151 12Q133 -6 108 -6Q83 -6 64.5 12Q46 30 46 55Z" glyph-name="period" horiz-adv-x="215" unicode="." /><glyph d="M55 328Q55 354 73.5 372Q92 390 117 390Q141 390 159.5 372Q178 354 178 328Q178 303 159.5 285.5Q141 268 117 268Q92 268 73.5 285.5Q55 303 55 328Z" glyph-name="periodcentered" horiz-adv-x="234" unicode="&#183;" /><glyph d="M585 365Q618 365 647 351Q676 337 697 312.5Q718 288 730 255Q742 222 742 185Q742 142 730.5 106Q719 70 698.5 44Q678 18 650 3.5Q622 -11 589 -11Q556 -11 527 3Q498 17 477 41.5Q456 66 444 99Q432 132 432 169Q432 212 443.5 248Q455 284 475.5 310Q496 336 524 350.5Q552 365 585 365ZM589 11Q611 11 625 23Q639 35 647 57Q655 79 658 109.5Q661 140 661 178Q661 257 645 300Q629 343 585 343Q563 343 549 331Q535 319 526.5 297Q518 275 515 244Q512 213 512 176Q512 96 528 53.5Q544 11 589 11ZM213 696Q246 696 274.5 682Q303 668 324 643.5Q345 619 357 586Q369 553 369 516Q369 473 357.5 437Q346 401 326 375Q306 349 277.5 334.5Q249 320 216 320Q183 320 154.5 334Q126 348 105 372.5Q84 397 72 430Q60 463 60 500Q60 543 71.5 579Q83 615 103 641Q123 667 151.5 681.5Q180 696 213 696ZM216 342Q259 342 274 388Q289 434 289 510Q289 589 273 631.5Q257 674 213 674Q191 674 177 662Q163 650 154.5 628Q146 606 143 575Q140 544 140 507Q140 427 156 384.5Q172 342 216 342ZM620 696Q590 645 561.5 594.5Q533 544 506.5 497Q480 450 457 408.5Q434 367 416 335Q398 303 374 261.5Q350 220 322 172Q294 124 264 71Q234 18 205 -36L175 -20Q247 104 301.5 194.5Q356 285 391 349Q426 413 477 507Q528 601 591 712ZM935 365Q968 365 996.5 351Q1025 337 1046 312.5Q1067 288 1079 255Q1091 222 1091 185Q1091 142 1079.5 106Q1068 70 1048 44Q1028 18 999.5 3.5Q971 -11 938 -11Q905 -11 876.5 3Q848 17 827 41.5Q806 66 794 99Q782 132 782 169Q782 212 793.5 248Q805 284 825 310Q845 336 873.5 350.5Q902 365 935 365ZM938 11Q960 11 974 23Q988 35 996 57Q1004 79 1007.5 109.5Q1011 140 1011 178Q1011 257 995 300Q979 343 935 343Q913 343 899 331Q885 319 876.5 297Q868 275 865 244Q862 213 862 176Q862 96 878 53.5Q894 11 938 11Z" glyph-name="perthousand" horiz-adv-x="1151" unicode="&#8240;" /><glyph d="M236 30V255H37V288H236V513H275V288H474V255H275V30Z" glyph-name="plus" horiz-adv-x="511" unicode="+" /><glyph d="M393 52H391Q385 41 372.5 30Q360 19 343 10Q326 1 305.5 -5Q285 -11 262 -11Q217 -11 175 5Q133 21 100 52Q67 83 47.5 128.5Q28 174 28 234Q28 295 52 341Q76 387 113.5 418.5Q151 450 197 466Q243 482 288 482Q318 482 342 478Q366 474 384.5 468.5Q403 463 416 457.5Q429 452 437 448L494 482L501 480Q499 458 498 430Q497 402 497 349V-22Q497 -72 497.5 -112.5Q498 -153 498 -178Q498 -184 498.5 -192Q499 -200 500 -208Q501 -216 502.5 -222.5Q504 -229 506 -232H384Q385 -229 386.5 -222.5Q388 -216 389.5 -208Q391 -200 391.5 -192Q392 -184 392 -178ZM391 366Q391 389 382 407Q373 425 358 437.5Q343 450 324 456.5Q305 463 285 463Q217 463 178 407.5Q139 352 139 252Q139 197 152.5 157Q166 117 188 90.5Q210 64 237.5 51.5Q265 39 293 39Q331 39 354.5 50Q378 61 391 75Z" glyph-name="q" horiz-adv-x="561" unicode="q" /><glyph d="M75 696Q129 688 175.5 669Q222 650 257 620.5Q292 591 313.5 553.5Q335 516 338 472Q338 423 323 385.5Q308 348 281.5 322Q255 296 220.5 282.5Q186 269 147 269H122Q117 269 112 270V238Q112 224 112.5 205.5Q113 187 115 169H79Q81 198 81 234.5Q81 271 82 303Q82 340 83 378Q117 375 152 375Q181 375 206 384.5Q231 394 249 411Q267 428 277.5 452Q288 476 288 505Q288 541 267.5 573Q247 605 203 622Q176 633 139 629Q102 625 64 620ZM37 53Q37 78 54.5 96Q72 114 97 114Q121 114 138.5 96Q156 78 156 53Q156 29 138.5 11.5Q121 -6 97 -6Q72 -6 54.5 11.5Q37 29 37 53Z" glyph-name="question" horiz-adv-x="356" unicode="?" /><glyph d="M299 -6Q245 1 198.5 20.5Q152 40 117 69.5Q82 99 61 136.5Q40 174 37 218Q37 267 52 304.5Q67 342 93 368Q119 394 153.5 407.5Q188 421 227 421Q235 421 241 420.5Q247 420 252 420H262V452Q262 483 259 521H295Q293 492 292.5 455.5Q292 419 292 387V312Q257 315 223 315Q194 315 169 305.5Q144 296 125.5 279Q107 262 96.5 238Q86 214 86 185Q86 149 106.5 117Q127 85 171 68Q198 57 235 61Q272 65 310 70ZM338 637Q338 612 320 594Q302 576 278 576Q254 576 236 594Q218 612 218 637Q218 661 236 678.5Q254 696 278 696Q302 696 320 678.5Q338 661 338 637Z" glyph-name="questiondown" horiz-adv-x="387" unicode="&#191;" /><glyph d="M51 440Q56 522 58.5 578.5Q61 635 63 681L141 687Q133 655 126.5 628Q120 601 113 573.5Q106 546 98 514Q90 482 80 440ZM162 440Q167 522 169.5 578.5Q172 635 175 681L252 687Q244 655 237.5 628Q231 601 224 573.5Q217 546 209 514Q201 482 191 440Z" glyph-name="quotedbl" horiz-adv-x="261" unicode="&quot;" /><glyph d="M293 116Q307 101 316 77Q325 53 325 23Q325 -30 291 -68Q257 -106 202 -139L193 -124Q212 -112 224 -101Q236 -90 243.5 -76.5Q251 -63 254 -45.5Q257 -28 257 -2Q257 17 245.5 40Q234 63 214 80ZM137 116Q151 101 159.5 77Q168 53 168 23Q168 -30 134.5 -68Q101 -106 46 -139L37 -124Q55 -112 67.5 -101Q80 -90 87 -76.5Q94 -63 97 -45.5Q100 -28 100 -2Q100 17 89 40Q78 63 58 80Z" glyph-name="quotedblbase" horiz-adv-x="396" unicode="&#8222;" /><glyph d="M82 451Q68 466 59.5 489.5Q51 513 51 544Q51 597 84.5 634.5Q118 672 173 706L182 691Q163 679 151 668Q139 657 132 643.5Q125 630 122 612Q119 594 119 569Q119 550 130 527Q141 504 161 487ZM238 451Q224 466 215.5 489.5Q207 513 207 544Q207 597 241 634.5Q275 672 329 706L339 691Q320 679 308 668Q296 657 288.5 643.5Q281 630 278 612Q275 594 275 569Q275 550 286 527Q297 504 317 487Z" glyph-name="quotedblleft" horiz-adv-x="375" unicode="&#8220;" /><glyph d="M293 706Q307 690 316 666.5Q325 643 325 613Q325 560 291 522Q257 484 202 451L193 466Q212 478 224 489Q236 500 243.5 513.5Q251 527 254 544.5Q257 562 257 588Q257 607 245.5 630Q234 653 214 670ZM137 706Q151 690 159.5 666.5Q168 643 168 613Q168 560 134.5 522Q101 484 46 451L37 466Q55 478 67.5 489Q80 500 87 513.5Q94 527 97 544.5Q100 562 100 588Q100 607 89 630Q78 653 58 670Z" glyph-name="quotedblright" horiz-adv-x="375" unicode="&#8221;" /><glyph d="M82 451Q68 466 59.5 489.5Q51 513 51 544Q51 597 84.5 634.5Q118 672 173 706L182 691Q163 679 151 668Q139 657 132 643.5Q125 630 122 612Q119 594 119 569Q119 550 130 527Q141 504 161 487Z" glyph-name="quoteleft" horiz-adv-x="219" unicode="&#8216;" /><glyph d="M137 706Q151 690 159.5 666.5Q168 643 168 613Q168 560 134.5 522Q101 484 46 451L37 466Q55 478 67.5 489Q80 500 87 513.5Q94 527 97 544.5Q100 562 100 588Q100 607 89 630Q78 653 58 670Z" glyph-name="quoteright" horiz-adv-x="219" unicode="&#8217;" /><glyph d="M114 113Q128 98 136.5 74.5Q145 51 145 20Q145 -33 111.5 -71Q78 -109 23 -142L14 -127Q32 -115 44.5 -104Q57 -93 64 -79.5Q71 -66 74 -48.5Q77 -31 77 -5Q77 14 66 37Q55 60 35 77Z" glyph-name="quotesinglbase" horiz-adv-x="173" unicode="&#8218;" /><glyph d="M37 440Q42 522 44.5 578.5Q47 635 50 681L127 687Q119 655 112.5 628Q106 601 99 573.5Q92 546 84 514Q76 482 66 440Z" glyph-name="quotesingle" horiz-adv-x="145" unicode="'" /><glyph d="M159 386H160L190 416Q206 432 224 446Q242 460 262 469Q282 478 303 478Q314 478 326 476.5Q338 475 349 470L333 389Q313 400 299.5 404Q286 408 263 408Q242 408 212.5 396.5Q183 385 163 362V53Q163 42 165.5 23.5Q168 5 171 0H48Q51 5 53.5 23.5Q56 42 56 53V392Q56 398 55 406.5Q54 415 52.5 424Q51 433 49.5 440Q48 447 46 450L159 471Z" glyph-name="r" horiz-adv-x="339" unicode="r" /><glyph d="M32 483Q32 526 47.5 564.5Q63 603 91 632Q119 661 157.5 677.5Q196 694 243 694Q289 694 328 677.5Q367 661 395 632Q423 603 438.5 564.5Q454 526 454 483Q454 439 438.5 401Q423 363 395 334Q367 305 328 288.5Q289 272 243 272Q196 272 157.5 288.5Q119 305 91 334Q63 363 47.5 401Q32 439 32 483ZM56 483Q56 444 68 409.5Q80 375 104 348.5Q128 322 163 306.5Q198 291 243 291Q288 291 322.5 306.5Q357 322 380.5 348.5Q404 375 416.5 409.5Q429 444 429 483Q429 521 416.5 556Q404 591 380.5 617.5Q357 644 322.5 660Q288 676 243 676Q198 676 163 660Q128 644 104 617.5Q80 591 68 556Q56 521 56 483ZM323 420Q330 410 336.5 400Q343 390 350 382H299L236 484H210V422Q210 420 210.5 414Q211 408 212 401Q213 394 214 388.5Q215 383 216 382H161Q161 383 162 388Q163 393 164 400Q165 407 165.5 413Q166 419 166 422V560Q166 574 163.5 590Q161 606 160 608H241Q283 608 305.5 594Q328 580 328 547Q328 529 314 513Q300 497 276 490ZM210 499H234Q261 499 272 509.5Q283 520 283 546Q283 575 272.5 583.5Q262 592 234 592H210Z" glyph-name="registered" horiz-adv-x="486" unicode="&#174;" /><glyph d="M184 684Q161 684 148.5 668.5Q136 653 136 633Q136 612 148.5 597Q161 582 184 582Q207 582 219 597Q231 612 231 633Q231 653 219 668.5Q207 684 184 684ZM184 708Q214 708 236.5 688.5Q259 669 259 633Q259 598 236.5 578Q214 558 184 558Q154 558 131.5 578Q109 598 109 633Q109 669 131.5 688.5Q154 708 184 708Z" glyph-name="ring" horiz-adv-x="368" unicode="&#730;" /><glyph d="M184 898Q218 898 243 875Q268 852 268 813Q268 774 242.5 751Q217 728 184 728Q150 728 125 751Q100 774 100 813Q100 852 125 875Q150 898 184 898ZM184 748Q212 748 227.5 766.5Q243 785 243 813Q243 841 227 859.5Q211 878 184 878Q156 878 140.5 859.5Q125 841 125 813Q125 785 140.5 766.5Q156 748 184 748Z" glyph-name="ring.uc" horiz-adv-x="368" /><glyph d="M189 -11Q144 -11 103.5 1.5Q63 14 37 31L70 120Q79 98 90 78Q101 58 115.5 43Q130 28 148.5 19.5Q167 11 190 11Q241 11 267.5 30Q294 49 294 91Q294 109 286.5 122Q279 135 264 146.5Q249 158 227 168.5Q205 179 176 193Q146 208 123 221Q100 234 85 250.5Q70 267 62.5 290Q55 313 55 346Q55 375 67 400Q79 425 100.5 443Q122 461 152 471.5Q182 482 219 482Q266 482 299 472.5Q332 463 361 445L321 372Q316 388 308 403.5Q300 419 288 431.5Q276 444 259.5 451.5Q243 459 220 459Q172 459 152.5 438.5Q133 418 133 387Q133 371 136.5 359Q140 347 149 337Q158 327 174 317Q190 307 215 296Q256 278 286.5 261.5Q317 245 337.5 226.5Q358 208 368 186.5Q378 165 378 137Q378 63 325.5 26Q273 -11 189 -11Z" glyph-name="s" horiz-adv-x="410" unicode="s" /><glyph d="M83 692 101 706 209 605H211L319 706L337 692L219 538H201ZM189 -11Q144 -11 103.5 1.5Q63 14 37 31L70 120Q79 98 90 78Q101 58 115.5 43Q130 28 148.5 19.5Q167 11 190 11Q241 11 267.5 30Q294 49 294 91Q294 109 286.5 122Q279 135 264 146.5Q249 158 227 168.5Q205 179 176 193Q146 208 123 221Q100 234 85 250.5Q70 267 62.5 290Q55 313 55 346Q55 375 67 400Q79 425 100.5 443Q122 461 152 471.5Q182 482 219 482Q266 482 299 472.5Q332 463 361 445L321 372Q316 388 308 403.5Q300 419 288 431.5Q276 444 259.5 451.5Q243 459 220 459Q172 459 152.5 438.5Q133 418 133 387Q133 371 136.5 359Q140 347 149 337Q158 327 174 317Q190 307 215 296Q256 278 286.5 261.5Q317 245 337.5 226.5Q358 208 368 186.5Q378 165 378 137Q378 63 325.5 26Q273 -11 189 -11Z" glyph-name="scaron" horiz-adv-x="410" unicode="&#353;" /><glyph d="M422 229Q422 190 398 154Q374 118 335 98Q364 72 382 40.5Q400 9 400 -30Q400 -73 384 -104Q368 -135 341.5 -155.5Q315 -176 282.5 -185.5Q250 -195 217 -195Q163 -195 130 -182.5Q97 -170 72 -148L107 -84Q111 -101 119 -116Q127 -131 140.5 -142Q154 -153 174 -160Q194 -167 223 -167Q268 -167 298.5 -142Q329 -117 329 -79Q329 -63 323.5 -46.5Q318 -30 304 -10.5Q290 9 265 32Q240 55 201 85Q164 114 133.5 138.5Q103 163 81.5 187Q60 211 48.5 235.5Q37 260 37 290Q37 310 44 331.5Q51 353 63.5 372Q76 391 93.5 407Q111 423 132 432Q115 453 105.5 477.5Q96 502 96 531Q96 573 109 604.5Q122 636 144.5 656Q167 676 197 686Q227 696 260 696Q314 696 347.5 683Q381 670 406 649L371 584Q363 617 337 642Q311 667 255 667Q209 667 188 642.5Q167 618 167 580Q167 563 172.5 546.5Q178 530 192 511Q206 492 230.5 469Q255 446 294 416Q331 387 356 365.5Q381 344 395.5 323.5Q410 303 416 281Q422 259 422 229ZM254 326Q223 349 194 371.5Q165 394 143 420Q126 407 113.5 386.5Q101 366 101 337Q101 320 112.5 301Q124 282 143 261.5Q162 241 187.5 219Q213 197 242 175Q263 158 283 142.5Q303 127 322 110Q343 125 350.5 143.5Q358 162 358 191Q358 207 352.5 222Q347 237 334.5 253Q322 269 302 286.5Q282 304 254 326Z" glyph-name="section" horiz-adv-x="459" unicode="&#167;" /><glyph d="M63 422Q63 447 81.5 465.5Q100 484 125 484Q150 484 168.5 465.5Q187 447 187 422Q187 397 168.5 379Q150 361 125 361Q100 361 81.5 379Q63 397 63 422ZM159 115Q171 102 181 77Q191 52 191 23Q191 -7 180.5 -34Q170 -61 152 -85Q134 -109 109 -131Q84 -153 55 -172L44 -157Q78 -131 92.5 -95Q107 -59 107 -22Q107 10 92.5 33Q78 56 62 72Z" glyph-name="semicolon" horiz-adv-x="252" unicode=";" /><glyph d="M171 595Q163 595 143 594Q123 593 100.5 591.5Q78 590 57.5 587.5Q37 585 28 582Q31 592 36 610.5Q41 629 46 646Q51 666 58 689Q72 687 94.5 686.5Q117 686 138 685Q163 684 190 684H458L466 661Q439 592 404.5 522.5Q370 453 329.5 374.5Q289 296 244.5 204Q200 112 153 0H67Q120 100 166.5 180.5Q213 261 254 330.5Q295 400 332 463.5Q369 527 404 595Z" glyph-name="seven" horiz-adv-x="476" unicode="7" /><glyph d="M310 432Q355 432 393.5 418.5Q432 405 460 378.5Q488 352 504 312.5Q520 273 520 221Q520 171 501 128.5Q482 86 450 55Q418 24 375.5 6.5Q333 -11 285 -11Q236 -11 192 9.5Q148 30 115 67Q82 104 62.5 156.5Q43 209 43 272Q43 377 71 456.5Q99 536 147.5 590Q196 644 260.5 671Q325 698 398 698Q408 698 423 697.5Q438 697 454.5 695.5Q471 694 486 691.5Q501 689 512 685L495 611Q481 631 450 647.5Q419 664 380 664Q286 664 231 593.5Q176 523 164 375Q184 394 218 413Q252 432 310 432ZM158 227Q158 169 168 129Q178 89 195 64.5Q212 40 235.5 29Q259 18 285 18Q319 18 342 33Q365 48 379.5 74Q394 100 400.5 135.5Q407 171 407 213Q407 307 372.5 347.5Q338 388 281 388Q236 388 207 375Q178 362 162 352Q160 323 159 291.5Q158 260 158 227Z" glyph-name="six" horiz-adv-x="559" unicode="6" /><glyph d="M236 718Q223 669 207.5 609Q192 549 176.5 490Q161 431 148 378Q135 325 126 290Q117 255 102.5 196.5Q88 138 72 73Q56 8 40.5 -57Q25 -122 15 -170L-28 -162Q-15 -113 1 -48L34 80Q51 145 65 202Q79 259 88 294Q97 330 111 383.5Q125 437 140 497Q155 557 169.5 617.5Q184 678 194 726Z" glyph-name="slash" horiz-adv-x="236" unicode="/" /><glyph glyph-name="space" horiz-adv-x="202" unicode=" " /><glyph d="M197 -6Q211 -22 218.5 -41Q226 -60 226 -83Q226 -116 203.5 -147Q181 -178 125 -201L116 -187Q129 -180 139.5 -173Q150 -166 157.5 -156.5Q165 -147 168.5 -133.5Q172 -120 172 -99Q172 -87 165 -70.5Q158 -54 141 -40Z" glyph-name="space_uni0326" horiz-adv-x="368" /><glyph d="M162 542Q148 557 140 576.5Q132 596 132 618Q132 682 222 722L231 707Q211 695 203.5 677Q196 659 196 635Q196 622 203.5 604Q211 586 222 573Z" glyph-name="space_uni0326.alt" horiz-adv-x="368" /><glyph d="M34 0Q53 28 66 61.5Q79 95 87 131Q95 167 98 203.5Q101 240 101 275L100 410Q99 487 119.5 541Q140 595 174.5 629.5Q209 664 255 680Q301 696 351 696Q396 696 429 688.5Q462 681 484 672L454 587Q445 598 434 612.5Q423 627 409 639.5Q395 652 376.5 661Q358 670 335 670Q278 670 248.5 619Q219 568 219 487V426Q219 406 218.5 395Q218 384 218 377V358H250Q264 358 281.5 358.5Q299 359 317 359Q359 360 412 361L402 324Q353 324 313 325H279Q263 325 249.5 325.5Q236 326 227 326H217Q216 297 211 257Q206 217 195 178Q184 139 166.5 105.5Q149 72 122 57Q167 58 220 58.5Q273 59 323.5 60Q374 61 416 61.5Q458 62 482 63L476 0Z" glyph-name="sterling" horiz-adv-x="530" unicode="&#163;" /><glyph d="M322 470 312 431H184V124Q184 90 204 69Q224 48 259 48Q285 48 306 54Q327 60 339 71L343 65Q338 57 326 44Q314 31 295.5 19Q277 7 253 -2Q229 -11 201 -11Q143 -11 111.5 16.5Q80 44 80 98L82 431H18V438Q107 500 177 592H185L184 470Z" glyph-name="t" horiz-adv-x="343" unicode="t" /><glyph d="M274 -11Q236 -11 208 -1Q180 9 158 20V-198Q158 -204 158.5 -212Q159 -220 160.5 -228Q162 -236 163.5 -242.5Q165 -249 167 -251H42Q44 -249 45.5 -242.5Q47 -236 48.5 -228Q50 -220 50.5 -212Q51 -204 51 -198L52 616Q52 622 51 636.5Q50 651 48.5 667Q47 683 45 696Q43 709 41 711L159 732V440Q189 461 223 472.5Q257 484 302 484Q341 484 381 473Q421 462 453.5 434.5Q486 407 506.5 359Q527 311 527 238Q527 171 505.5 124Q484 77 449 47Q414 17 368.5 3Q323 -11 274 -11ZM159 84Q165 69 177 55.5Q189 42 205 31.5Q221 21 240 15Q259 9 279 9Q307 9 332 18Q357 27 375.5 51Q394 75 404.5 117.5Q415 160 415 227Q415 329 378.5 389.5Q342 450 266 450Q240 450 208.5 439.5Q177 429 159 415Z" glyph-name="thorn" horiz-adv-x="555" unicode="&#254;" /><glyph d="M481 193Q481 150 465 112.5Q449 75 417 47.5Q385 20 336.5 4Q288 -12 224 -12Q174 -12 123 1.5Q72 15 28 44L72 117Q81 100 95.5 82.5Q110 65 129 51Q148 37 170 28Q192 19 215 19Q297 18 333.5 64Q370 110 370 186Q370 222 363.5 250.5Q357 279 342.5 299Q328 319 304 329.5Q280 340 245 340Q219 340 197 334.5Q175 329 159 321L149 352Q184 366 216.5 380Q249 394 273.5 414.5Q298 435 313 464.5Q328 494 328 539Q328 663 221 663Q173 663 141.5 639.5Q110 616 88 581L51 642Q103 673 148 684.5Q193 696 248 696Q301 696 337 684Q373 672 395 651Q417 630 426.5 602Q436 574 436 542Q436 513 423.5 487.5Q411 462 388.5 440Q366 418 335 401Q304 384 267 373Q324 371 365 356Q406 341 431.5 316.5Q457 292 469 260.5Q481 229 481 193Z" glyph-name="three" horiz-adv-x="536" unicode="3" /><glyph d="M168 613Q147 624 132.5 631Q118 638 99 638Q84 638 76 622.5Q68 607 79 583L41 593Q47 640 74.5 661.5Q102 683 140 683Q161 683 179 675.5Q197 668 218 657Q240 646 255.5 637Q271 628 285 628Q300 628 306.5 643.5Q313 659 302 683L339 673Q334 626 313.5 604.5Q293 583 255 583Q233 583 211.5 592.5Q190 602 168 613Z" glyph-name="tilde" horiz-adv-x="368" unicode="&#732;" /><glyph d="M166 760Q144 771 126.5 778Q109 785 90 785Q75 785 67 769.5Q59 754 70 730L32 741Q38 787 65.5 808.5Q93 830 131 830Q152 830 173 822.5Q194 815 215 804L254 784Q271 776 285 776Q300 776 306.5 791.5Q313 807 302 830L339 820Q334 773 313.5 751.5Q293 730 255 730Q233 730 210 739.5Q187 749 166 760Z" glyph-name="tilde.uc" horiz-adv-x="368" /><glyph d="M420 684 497 457 570 684H662Q662 683 661 675.5Q660 668 659 659L658 641Q658 632 658 629V413Q658 410 658 402L659 387Q660 380 661 373.5Q662 367 662 366H587Q588 367 588.5 373Q589 379 589 386L590 401Q591 409 591 413V655L491 368H457L355 654V485Q355 482 355.5 463Q356 444 356.5 423Q357 402 358 384.5Q359 367 361 366H317Q318 367 319 384.5Q320 402 321 423Q322 444 322.5 463Q323 482 323 485V625Q323 628 322.5 637Q322 646 321 656Q320 666 319 674.5Q318 683 317 684ZM32 684H267Q275 684 283 685Q292 685 300 686L295 654Q291 654 281 655Q271 656 259 656.5Q247 657 236.5 657.5Q226 658 220 658H186V413Q186 410 186.5 403Q187 396 187.5 388Q188 380 189 373.5Q190 367 190 366H117Q117 367 118 373.5Q119 380 119.5 388Q120 396 120.5 403Q121 410 121 413V658H80Q75 658 64.5 657.5Q54 657 43 656.5Q32 656 22.5 655Q13 654 9 654L13 686Q21 684 32 684Z" glyph-name="trademark" horiz-adv-x="699" unicode="&#8482;" /><glyph d="M244 663Q202 663 165.5 640.5Q129 618 94 561L46 634Q82 663 132.5 679.5Q183 696 248 696Q360 696 424 647Q488 598 488 510Q488 472 475 437.5Q462 403 440 370.5Q418 338 390 307.5Q362 277 331 247Q314 230 292.5 209.5Q271 189 247.5 167Q224 145 201 124.5Q178 104 159 89H411Q419 89 433 90Q447 91 463 92.5Q479 94 493.5 96.5Q508 99 518 102Q514 91 508.5 74.5Q503 58 497 41Q490 22 482 0H53L52 33Q126 92 182.5 150.5Q239 209 284 258Q312 288 329.5 318.5Q347 349 357 379Q367 409 370.5 438.5Q374 468 374 496Q374 533 367 563.5Q360 594 344 616Q328 638 303.5 650.5Q279 663 244 663Z" glyph-name="two" horiz-adv-x="555" unicode="2" /><glyph d="M465 53Q465 42 467 23.5Q469 5 473 0H359V57H357Q337 37 313 23Q288 9 262 -1Q236 -11 201 -11Q166 -11 138 -2.5Q110 6 90.5 26.5Q71 47 60.5 81.5Q50 116 50 167V417Q50 428 47.5 446.5Q45 465 41 470H157V136Q157 79 181.5 58Q206 37 249 37Q276 37 307.5 51Q339 65 358 89V417Q358 428 355.5 446.5Q353 465 350 470H465Z" glyph-name="u" horiz-adv-x="519" unicode="u" /><glyph d="M235 534 282 703 349 683 256 524ZM465 53Q465 42 467 23.5Q469 5 473 0H359V57H357Q337 37 313 23Q288 9 262 -1Q236 -11 201 -11Q166 -11 138 -2.5Q110 6 90.5 26.5Q71 47 60.5 81.5Q50 116 50 167V417Q50 428 47.5 446.5Q45 465 41 470H157V136Q157 79 181.5 58Q206 37 249 37Q276 37 307.5 51Q339 65 358 89V417Q358 428 355.5 446.5Q353 465 350 470H465Z" glyph-name="uacute" horiz-adv-x="519" unicode="&#250;" /><glyph d="M384 552 366 538 258 638H256L148 538L130 552L248 706H266ZM465 53Q465 42 467 23.5Q469 5 473 0H359V57H357Q337 37 313 23Q288 9 262 -1Q236 -11 201 -11Q166 -11 138 -2.5Q110 6 90.5 26.5Q71 47 60.5 81.5Q50 116 50 167V417Q50 428 47.5 446.5Q45 465 41 470H157V136Q157 79 181.5 58Q206 37 249 37Q276 37 307.5 51Q339 65 358 89V417Q358 428 355.5 446.5Q353 465 350 470H465Z" glyph-name="ucircumflex" horiz-adv-x="519" unicode="&#251;" /><glyph d="M109 612Q109 632 124 647.5Q139 663 159 663Q179 663 195 647.5Q211 632 211 612Q211 591 195 576Q179 561 159 561Q139 561 124 576Q109 591 109 612ZM301 612Q301 632 316.5 647.5Q332 663 352 663Q372 663 387.5 647.5Q403 632 403 612Q403 591 387.5 576Q372 561 352 561Q332 561 316.5 576Q301 591 301 612ZM465 53Q465 42 467 23.5Q469 5 473 0H359V57H357Q337 37 313 23Q288 9 262 -1Q236 -11 201 -11Q166 -11 138 -2.5Q110 6 90.5 26.5Q71 47 60.5 81.5Q50 116 50 167V417Q50 428 47.5 446.5Q45 465 41 470H157V136Q157 79 181.5 58Q206 37 249 37Q276 37 307.5 51Q339 65 358 89V417Q358 428 355.5 446.5Q353 465 350 470H465Z" glyph-name="udieresis" horiz-adv-x="519" unicode="&#252;" /><glyph d="M259 524 166 683 233 703 280 534ZM465 53Q465 42 467 23.5Q469 5 473 0H359V57H357Q337 37 313 23Q288 9 262 -1Q236 -11 201 -11Q166 -11 138 -2.5Q110 6 90.5 26.5Q71 47 60.5 81.5Q50 116 50 167V417Q50 428 47.5 446.5Q45 465 41 470H157V136Q157 79 181.5 58Q206 37 249 37Q276 37 307.5 51Q339 65 358 89V417Q358 428 355.5 446.5Q353 465 350 470H465Z" glyph-name="ugrave" horiz-adv-x="519" unicode="&#249;" /><glyph d="M-9 -103H391V-152H-9Z" glyph-name="underscore" horiz-adv-x="382" unicode="_" /><glyph d="M61 401Q61 407 60 415.5Q59 424 57.5 433Q56 442 54 449.5Q52 457 51 459L167 480V-22Q167 -85 150 -127.5Q133 -170 106.5 -195.5Q80 -221 48 -231.5Q16 -242 -14 -242Q-60 -242 -93.5 -230.5Q-127 -219 -147 -208L-106 -117Q-103 -129 -95.5 -146.5Q-88 -164 -77 -180Q-66 -196 -51 -207.5Q-36 -219 -19 -219Q26 -219 43 -192.5Q60 -166 60 -121Z" glyph-name="uni0237" horiz-adv-x="220" unicode="&#567;" /><glyph d="M445 470Q434 455 424 431.5Q414 408 404 384L250 0H199L47 384Q40 402 27.5 427.5Q15 453 5 470H139Q144 448 151.5 420.5Q159 393 167 371L264 105L364 386Q367 393 370 404Q373 415 376 426.5Q379 438 381.5 449.5Q384 461 385 470Z" glyph-name="v" horiz-adv-x="445" unicode="v" /><glyph d="M735 470Q724 450 715.5 428.5Q707 407 696 377L557 0H489L383 345L256 0H189L62 357Q59 366 52.5 381.5Q46 397 39 414Q32 431 24.5 446Q17 461 12 470H146Q151 448 159.5 420.5Q168 393 175 371L259 105L387 463H443L560 105L660 391Q661 396 664 406Q667 416 669.5 427Q672 438 674.5 449.5Q677 461 679 470Z" glyph-name="w" horiz-adv-x="742" unicode="w" /><glyph d="M735 470Q724 450 715.5 428.5Q707 407 696 377L557 0H489L383 345L256 0H189L62 357Q59 366 52.5 381.5Q46 397 39 414Q32 431 24.5 446Q17 461 12 470H146Q151 448 159.5 420.5Q168 393 175 371L259 105L387 463H443L560 105L660 391Q661 396 664 406Q667 416 669.5 427Q672 438 674.5 449.5Q677 461 679 470ZM383 534 430 703 497 683 404 524Z" glyph-name="wacute" horiz-adv-x="742" unicode="&#7811;" /><glyph d="M529 552 511 538 403 638H401L293 538L275 552L393 706H411ZM735 470Q724 450 715.5 428.5Q707 407 696 377L557 0H489L383 345L256 0H189L62 357Q59 366 52.5 381.5Q46 397 39 414Q32 431 24.5 446Q17 461 12 470H146Q151 448 159.5 420.5Q168 393 175 371L259 105L387 463H443L560 105L660 391Q661 396 664 406Q667 416 669.5 427Q672 438 674.5 449.5Q677 461 679 470Z" glyph-name="wcircumflex" horiz-adv-x="742" unicode="&#373;" /><glyph d="M735 470Q724 450 715.5 428.5Q707 407 696 377L557 0H489L383 345L256 0H189L62 357Q59 366 52.5 381.5Q46 397 39 414Q32 431 24.5 446Q17 461 12 470H146Q151 448 159.5 420.5Q168 393 175 371L259 105L387 463H443L560 105L660 391Q661 396 664 406Q667 416 669.5 427Q672 438 674.5 449.5Q677 461 679 470ZM261 612Q261 632 276 647.5Q291 663 311 663Q331 663 347 647.5Q363 632 363 612Q363 591 347 576Q331 561 311 561Q291 561 276 576Q261 591 261 612ZM453 612Q453 632 468.5 647.5Q484 663 504 663Q524 663 539.5 647.5Q555 632 555 612Q555 591 539.5 576Q524 561 504 561Q484 561 468.5 576Q453 591 453 612Z" glyph-name="wdieresis" horiz-adv-x="742" unicode="&#7813;" /><glyph d="M735 470Q724 450 715.5 428.5Q707 407 696 377L557 0H489L383 345L256 0H189L62 357Q59 366 52.5 381.5Q46 397 39 414Q32 431 24.5 446Q17 461 12 470H146Q151 448 159.5 420.5Q168 393 175 371L259 105L387 463H443L560 105L660 391Q661 396 664 406Q667 416 669.5 427Q672 438 674.5 449.5Q677 461 679 470ZM409 524 316 683 383 703 430 534Z" glyph-name="wgrave" horiz-adv-x="742" unicode="&#7809;" /><glyph d="M270 259 385 94Q396 78 404.5 66Q413 54 420.5 43.5Q428 33 436 22.5Q444 12 454 0H318Q313 10 309.5 18.5Q306 27 301.5 34.5Q297 42 291.5 50.5Q286 59 279 70L197 190L112 67L71 0H10Q22 15 31 26Q40 37 47.5 46.5Q55 56 61.5 65.5Q68 75 77 88L178 220L73 376Q62 392 53 404.5Q44 417 36.5 427.5Q29 438 21 448Q13 458 3 470H140Q148 455 151.5 448.5Q155 442 157.5 437.5Q160 433 163 427.5Q166 422 173 411L253 293L329 403Q343 425 351.5 437.5Q360 450 369 470H427Q416 455 408 444Q400 433 392.5 423.5Q385 414 378 404Q371 394 362 381Z" glyph-name="x" horiz-adv-x="454" unicode="x" /><glyph d="M374 391Q377 398 380.5 408Q384 418 387 429Q390 440 392.5 450.5Q395 461 397 470H454Q443 455 433 431.5Q423 408 413 384L252 -6Q228 -65 205.5 -107.5Q183 -150 156 -178Q129 -206 96 -219.5Q63 -233 18 -233Q4 -233 -12 -230.5Q-28 -228 -43 -224.5Q-58 -221 -70.5 -216.5Q-83 -212 -89 -208L-64 -128Q-45 -155 -22.5 -177.5Q0 -200 34 -200Q55 -200 75 -193.5Q95 -187 113.5 -171.5Q132 -156 150 -130Q168 -104 186 -65L206 -20L42 384Q35 402 23 427.5Q11 453 0 470H134Q139 448 147 420.5Q155 393 163 371L264 104Z" glyph-name="y" horiz-adv-x="439" unicode="y" /><glyph d="M233 534 280 703 347 683 254 524ZM374 391Q377 398 380.5 408Q384 418 387 429Q390 440 392.5 450.5Q395 461 397 470H454Q443 455 433 431.5Q423 408 413 384L252 -6Q228 -65 205.5 -107.5Q183 -150 156 -178Q129 -206 96 -219.5Q63 -233 18 -233Q4 -233 -12 -230.5Q-28 -228 -43 -224.5Q-58 -221 -70.5 -216.5Q-83 -212 -89 -208L-64 -128Q-45 -155 -22.5 -177.5Q0 -200 34 -200Q55 -200 75 -193.5Q95 -187 113.5 -171.5Q132 -156 150 -130Q168 -104 186 -65L206 -20L42 384Q35 402 23 427.5Q11 453 0 470H134Q139 448 147 420.5Q155 393 163 371L264 104Z" glyph-name="yacute" horiz-adv-x="439" unicode="&#253;" /><glyph d="M386 552 368 538 260 638H258L150 538L132 552L250 706H268ZM374 391Q377 398 380.5 408Q384 418 387 429Q390 440 392.5 450.5Q395 461 397 470H454Q443 455 433 431.5Q423 408 413 384L252 -6Q228 -65 205.5 -107.5Q183 -150 156 -178Q129 -206 96 -219.5Q63 -233 18 -233Q4 -233 -12 -230.5Q-28 -228 -43 -224.5Q-58 -221 -70.5 -216.5Q-83 -212 -89 -208L-64 -128Q-45 -155 -22.5 -177.5Q0 -200 34 -200Q55 -200 75 -193.5Q95 -187 113.5 -171.5Q132 -156 150 -130Q168 -104 186 -65L206 -20L42 384Q35 402 23 427.5Q11 453 0 470H134Q139 448 147 420.5Q155 393 163 371L264 104Z" glyph-name="ycircumflex" horiz-adv-x="439" unicode="&#375;" /><glyph d="M109 612Q109 632 124 647.5Q139 663 159 663Q179 663 195 647.5Q211 632 211 612Q211 591 195 576Q179 561 159 561Q139 561 124 576Q109 591 109 612ZM301 612Q301 632 316.5 647.5Q332 663 352 663Q372 663 387.5 647.5Q403 632 403 612Q403 591 387.5 576Q372 561 352 561Q332 561 316.5 576Q301 591 301 612ZM374 391Q377 398 380.5 408Q384 418 387 429Q390 440 392.5 450.5Q395 461 397 470H454Q443 455 433 431.5Q423 408 413 384L252 -6Q228 -65 205.5 -107.5Q183 -150 156 -178Q129 -206 96 -219.5Q63 -233 18 -233Q4 -233 -12 -230.5Q-28 -228 -43 -224.5Q-58 -221 -70.5 -216.5Q-83 -212 -89 -208L-64 -128Q-45 -155 -22.5 -177.5Q0 -200 34 -200Q55 -200 75 -193.5Q95 -187 113.5 -171.5Q132 -156 150 -130Q168 -104 186 -65L206 -20L42 384Q35 402 23 427.5Q11 453 0 470H134Q139 448 147 420.5Q155 393 163 371L264 104Z" glyph-name="ydieresis" horiz-adv-x="439" unicode="&#255;" /><glyph d="M71 366H201L70 618Q58 638 47.5 654Q37 670 23 684H158L328 353L493 684H555Q541 668 530.5 655Q520 642 506 618L375 366H505V334H359L343 304L342 243H505V211H342V62Q342 54 343 44.5Q344 35 346 26Q348 17 349.5 9.5Q351 2 353 0H222Q225 5 229 25Q233 45 233 62V211H71V243H233L234 304L218 334H71Z" glyph-name="yen" horiz-adv-x="582" unicode="&#165;" /><glyph d="M273 524 180 683 247 703 294 534ZM374 391Q377 398 380.5 408Q384 418 387 429Q390 440 392.5 450.5Q395 461 397 470H454Q443 455 433 431.5Q423 408 413 384L252 -6Q228 -65 205.5 -107.5Q183 -150 156 -178Q129 -206 96 -219.5Q63 -233 18 -233Q4 -233 -12 -230.5Q-28 -228 -43 -224.5Q-58 -221 -70.5 -216.5Q-83 -212 -89 -208L-64 -128Q-45 -155 -22.5 -177.5Q0 -200 34 -200Q55 -200 75 -193.5Q95 -187 113.5 -171.5Q132 -156 150 -130Q168 -104 186 -65L206 -20L42 384Q35 402 23 427.5Q11 453 0 470H134Q139 448 147 420.5Q155 393 163 371L264 104Z" glyph-name="ygrave" horiz-adv-x="439" unicode="&#7923;" /><glyph d="M277 29Q288 29 308.5 30Q329 31 350 33Q371 35 388 38.5Q405 42 410 47L406 -2Q390 -1 378 -0.5Q366 0 344 0H22L18 28L293 439H154Q142 439 124.5 438Q107 437 89 434.5Q71 432 56.5 428.5Q42 425 37 420L43 472Q58 471 72 471Q84 470 96 470H408L416 448L142 29Z" glyph-name="z" horiz-adv-x="441" unicode="z" /><glyph d="M108 692 126 706 234 605H236L344 706L362 692L244 538H226ZM277 29Q288 29 308.5 30Q329 31 350 33Q371 35 388 38.5Q405 42 410 47L406 -2Q390 -1 378 -0.5Q366 0 344 0H22L18 28L293 439H154Q142 439 124.5 438Q107 437 89 434.5Q71 432 56.5 428.5Q42 425 37 420L43 472Q58 471 72 471Q84 470 96 470H408L416 448L142 29Z" glyph-name="zcaron" horiz-adv-x="441" unicode="&#382;" /><glyph d="M319 19Q366 19 396 43.5Q426 68 443.5 111.5Q461 155 467.5 213Q474 271 474 339Q474 411 467 470.5Q460 530 442 573.5Q424 617 393.5 641Q363 665 315 665Q272 665 242 640Q212 615 193.5 572Q175 529 167 470Q159 411 159 344Q159 273 167.5 213Q176 153 195 110Q214 67 244.5 43Q275 19 319 19ZM315 696Q376 696 426.5 669.5Q477 643 513 597Q549 551 568.5 488Q588 425 588 352Q588 268 568.5 200.5Q549 133 514 86Q479 39 429.5 13.5Q380 -12 319 -12Q257 -12 206.5 14Q156 40 120 86Q84 132 64 195Q44 258 44 331Q44 412 63.5 479Q83 546 118.5 594.5Q154 643 204 669.5Q254 696 315 696Z" glyph-name="zero" horiz-adv-x="633" unicode="0" /></font>
</defs>
</svg>
